<?xml version="1.0" encoding="utf-8"?>
<!-- Generator: Adobe Illustrator 19.2.1, SVG Export Plug-In . SVG Version: 6.00 Build 0)  -->
<svg version="1.1" id="Layer_1" xmlns="http://www.w3.org/2000/svg" xmlns:xlink="http://www.w3.org/1999/xlink" x="0px" y="0px"
	 viewBox="0 0 400 300" style="enable-background:new 0 0 400 300;" xml:space="preserve">
<style type="text/css">
	.st0{display:none;}
	.st1{display:inline;fill:#FF3C36;stroke:#FFFFFF;stroke-width:1.2346;stroke-miterlimit:10;}
	.st2{display:inline;fill:#FFFBF8;}
	.st3{opacity:0.7;}
	.st4{fill:#61F0BD;stroke:#61F0BD;stroke-width:0.5;stroke-miterlimit:10;}
	.st5{fill:#26596B;stroke:#26596B;stroke-width:0.5;stroke-miterlimit:10;}
	.st6{fill:#26596B;stroke:#25596B;stroke-width:0.5;stroke-miterlimit:10;}
	.st7{fill:none;}
</style>
<g id="Layer_9" class="st0">
	<rect x="-34.8" y="-1930.5" class="st1" width="3603.5" height="1854.2"/>
	<rect x="-18.3" y="-11.4" class="st2" width="1542.5" height="931.2"/>
</g>
<g id="title">
</g>
<g id="legenda">
</g>
<g id="lines">
</g>
<g id="svg">
</g>
<g id="numbers_copy" class="st3">
</g>
<g id="Layer_16">
</g>
<g id="numbers">
</g>
<g id="numbers_white">
</g>
<g id="text">
	<g id="New_Symbol">
	</g>
	<g>
		<g>
			<g>
				<path class="st4" d="M66.1,83.8L46.2,68.3l-7.8-17.5l44.1,11L66.1,83.8z M32.1,100.2L15.7,45.6l29.7,23.1L32.1,100.2z M32.1,11
					l5.2,5.2v22.9L19.9,43l-4.2,0.9L32.1,11z M37.6,49.7l-20.9-5.2l0.8-0.2l20.2-4.5l0,0l26-5.8L37.6,49.7z M37.4,50.5l7.4,16.7
					L16.7,45.4L37.4,50.5z M83.6,61.4c0-0.1-0.2-0.2-0.3-0.3L38.8,50l27.6-16.6c0.2-0.1,0.2-0.3,0.2-0.5c-0.1-0.2-0.3-0.3-0.5-0.3
					l-28,6.2V16c0-0.1,0-0.2-0.1-0.3L32.3,10c-0.1-0.1-0.2-0.1-0.4-0.1c-0.1,0-0.2,0.1-0.3,0.2L14.5,44.3l0,0l0,0l0,0l0,0l0,0l0,0
					l0,0l0,0l0,0l0,0l0,0l0,0l0,0l0,0l0,0l0,0l0,0l0,0l0,0l0,0l17.1,56.9c0.1,0.2,0.2,0.3,0.4,0.3l0,0c0.2,0,0.3-0.1,0.4-0.3
					l13.6-32l19.9,15.4c0.1,0.1,0.2,0.1,0.3,0.1c0,0,0,0,0.1,0s0.2-0.1,0.3-0.2l17.1-22.8C83.7,61.7,83.7,61.6,83.6,61.4"/>
			</g>
		</g>
		<g>
			<path class="st5" d="M34.1,138.9l0.1,0.6c0.7-0.5,1.2-0.7,1.5-0.7c0.9,0,1.5,0.3,1.8,0.9c0.7-0.6,1.4-0.9,2-0.9
				c0.9,0,1.5,0.3,1.8,0.8s0.5,1.4,0.5,2.5v6.4h-1.1v-6.4c0-0.8-0.1-1.3-0.2-1.7c-0.2-0.4-0.5-0.5-0.9-0.5c-0.5,0-1,0.2-1.7,0.6
				c0.1,0.5,0.1,1,0.1,1.6v3.3h-1.1v-3.3c0-0.8-0.1-1.3-0.2-1.7c-0.2-0.4-0.5-0.6-0.9-0.6s-1,0.2-1.6,0.6v8h-1.1v-9.5L34.1,138.9
				L34.1,138.9z"/>
			<path class="st5" d="M47.1,148.6c-1,0-1.7-0.2-2.3-0.8s-0.8-1.2-0.8-2.1s0.3-1.6,0.9-2.1c0.6-0.5,1.4-0.8,2.4-0.8s1.9,0,2.7,0.1
				c0-1.2-0.1-2-0.4-2.4s-0.9-0.7-1.8-0.7c-0.9,0-1.9,0.2-3.2,0.6l-0.3-1c1.2-0.5,2.4-0.7,3.4-0.7c1.3,0,2.2,0.3,2.7,0.9
				c0.5,0.6,0.7,1.6,0.7,3.1v4.2l0.2,1.5l-1,0.1l-0.2-1.2c-0.3,0.3-0.7,0.5-1.3,0.8C48.1,148.5,47.6,148.6,47.1,148.6z M47.1,147.6
				c0.5,0,1-0.2,1.6-0.5s1-0.6,1.3-0.9v-2.4c-0.9-0.1-1.7-0.1-2.5-0.1s-1.4,0.2-1.8,0.5s-0.6,0.8-0.6,1.4
				C45.1,146.9,45.8,147.6,47.1,147.6z"/>
			<path class="st5" d="M54.7,152.3v-11.6l-0.2-1.7l1-0.1l0.2,1.1c1-0.7,1.9-1.1,2.8-1.1c1.2,0,2.1,0.4,2.8,1.3c0.7,0.9,1,2.1,1,3.6
				s-0.4,2.7-1.1,3.6s-1.7,1.3-3,1.3c-0.7,0-1.5-0.2-2.4-0.5v4.2h-1.1V152.3z M61.1,143.7c0-1.2-0.2-2.1-0.7-2.8s-1.1-1-2-1
				s-1.7,0.4-2.7,1.1v6c0.3,0.1,0.7,0.3,1.1,0.4c0.5,0.1,0.9,0.2,1.2,0.2c0.9,0,1.7-0.3,2.2-1C60.8,145.8,61.1,144.9,61.1,143.7z"/>
			<path class="st5" d="M65.1,152.3v-11.6l-0.2-1.7l1-0.1l0.2,1.1c1-0.7,1.9-1.1,2.8-1.1c1.2,0,2.1,0.4,2.8,1.3c0.7,0.9,1,2.1,1,3.6
				s-0.4,2.7-1.1,3.6s-1.7,1.3-3,1.3c-0.7,0-1.5-0.2-2.4-0.5v4.2h-1.1V152.3z M71.5,143.7c0-1.2-0.2-2.1-0.7-2.8s-1.1-1-2-1
				s-1.7,0.4-2.7,1.1v6c0.3,0.1,0.7,0.3,1.1,0.4c0.5,0.1,0.9,0.2,1.2,0.2c0.9,0,1.7-0.3,2.2-1C71.2,145.8,71.5,144.9,71.5,143.7z"/>
			<path class="st5" d="M76.4,139.9v-1h3.4v8.5h2.3v1h-5.9v-1h2.5v-7.5H76.4z M79.2,137c-0.2,0-0.4-0.1-0.6-0.2s-0.2-0.4-0.2-0.6
				c0-0.3,0.1-0.5,0.2-0.6s0.4-0.2,0.6-0.2s0.4,0.1,0.6,0.2c0.2,0.1,0.2,0.4,0.2,0.6c0,0.3-0.1,0.5-0.2,0.7
				C79.6,136.9,79.4,137,79.2,137z"/>
			<path class="st5" d="M86.9,138.9v0.8c1.3-0.6,2.4-0.9,3.2-0.9c0.9,0,1.5,0.3,2,0.9c0.5,0.6,0.7,1.4,0.7,2.4v6.3h-1.1v-6.3
				c0-0.7-0.2-1.2-0.5-1.6c-0.3-0.4-0.8-0.6-1.4-0.6s-1.6,0.3-3,0.9v7.7h-1.1V139L86.9,138.9L86.9,138.9z"/>
			<path class="st5" d="M103.3,146.1l0.1,2.8c0,1.2-0.4,2.1-1.1,2.7s-1.6,0.9-2.6,0.9s-2.3-0.3-3.6-0.8l0.4-1
				c1.3,0.5,2.4,0.8,3.1,0.8c0.8,0,1.4-0.2,2-0.6c0.5-0.4,0.8-1,0.8-1.9c0-0.1,0-0.3,0-0.7s0-0.6,0-0.8c-1,0.7-1.9,1-2.7,1
				c-1.2,0-2.1-0.4-2.8-1.2c-0.6-0.8-1-2-1-3.5s0.4-2.7,1.1-3.6c0.7-0.9,1.7-1.3,3-1.3c0.7,0,1.5,0.2,2.4,0.7V139h1v7.1H103.3z
				 M96.9,143.6c0,1.2,0.2,2.1,0.7,2.7s1.1,1,2,1s1.8-0.4,2.7-1.1v-5.6c-0.8-0.5-1.6-0.8-2.3-0.8c-0.9,0-1.7,0.3-2.2,1
				S96.9,142.5,96.9,143.6z"/>
			<path class="st5" d="M122.7,142v-2c-0.7-0.1-1.2-0.2-1.6-0.2c-1,0-1.7,0.3-2.1,1c-0.5,0.7-0.7,1.6-0.7,2.8s0.2,2.1,0.7,2.8
				s1.2,1,2.1,1c0.6,0,1.4-0.2,2.5-0.6l0.3,1c-1.1,0.4-2,0.6-2.8,0.6c-1.3,0-2.3-0.4-3-1.3c-0.7-0.9-1-2.1-1-3.7
				c0-1.6,0.3-2.8,1-3.6s1.7-1.2,3-1.2c0.9,0,1.8,0.1,2.6,0.4v2.8h-1V142z"/>
			<path class="st5" d="M127.1,143.7c0-3.3,1.3-4.9,3.8-4.9s3.8,1.6,3.8,4.9s-1.3,4.9-3.8,4.9C128.4,148.6,127.1,147,127.1,143.7z
				 M131,139.8c-1.8,0-2.7,1.3-2.7,3.9s0.9,3.9,2.7,3.9s2.7-1.3,2.7-3.9S132.7,139.8,131,139.8z"/>
			<path class="st5" d="M143.8,148.4v-0.8c-1.3,0.7-2.3,1-3.2,1s-1.5-0.3-2-0.9c-0.5-0.6-0.7-1.4-0.7-2.4v-6.4h1.1v6.4
				c0,0.7,0.2,1.2,0.5,1.6c0.3,0.4,0.8,0.6,1.4,0.6s1.6-0.3,3-1v-7.6h1.1v9.5L143.8,148.4L143.8,148.4z"/>
			<path class="st5" d="M148.6,139.9v-1h2.9v1.2c0.4-0.3,1-0.5,1.8-0.8s1.5-0.4,2-0.5v1.2c-0.5,0-1.2,0.2-2,0.4s-1.4,0.5-1.8,0.7
				v6.3h3.2v1h-6.2v-1h1.9v-7.5L148.6,139.9L148.6,139.9z"/>
			<path class="st5" d="M158.7,148l0.3-1c1.3,0.4,2.3,0.7,3.1,0.7c0.7,0,1.3-0.2,1.7-0.5s0.6-0.7,0.6-1.2s-0.2-0.9-0.5-1.2
				c-0.3-0.2-1-0.5-1.9-0.7c-1-0.2-1.7-0.6-2.2-1s-0.7-1-0.7-1.8s0.3-1.4,0.9-1.8c0.6-0.4,1.4-0.6,2.4-0.6s2,0.2,3.1,0.6l-0.3,0.9
				c-1.1-0.4-2-0.6-2.7-0.6s-1.2,0.1-1.6,0.4c-0.4,0.3-0.6,0.6-0.6,1.1s0.2,0.8,0.5,1.1c0.4,0.3,1,0.5,2,0.8s1.7,0.6,2.2,1
				c0.4,0.4,0.6,1,0.6,1.9c0,0.8-0.3,1.5-0.9,2c-0.6,0.5-1.4,0.7-2.4,0.7S160,148.4,158.7,148z"/>
			<path class="st5" d="M168.9,143.7c0-1.5,0.3-2.7,1-3.6s1.6-1.3,2.8-1.3s2.1,0.4,2.7,1.2s0.9,1.9,0.9,3.2l-0.1,1H170
				c0.1,1,0.3,1.8,0.8,2.4s1.1,0.9,1.9,0.9s1.8-0.2,2.9-0.6l0.3,1c-1.1,0.4-2.1,0.6-3,0.6c-1.3,0-2.3-0.4-3-1.3
				C169.2,146.4,168.9,145.2,168.9,143.7z M172.7,139.8c-1.7,0-2.6,1.1-2.7,3.4h5C175.1,140.9,174.3,139.8,172.7,139.8z"/>
			<path class="st5" d="M179.5,148l0.3-1c1.3,0.4,2.3,0.7,3.1,0.7c0.7,0,1.3-0.2,1.7-0.5s0.6-0.7,0.6-1.2s-0.2-0.9-0.5-1.2
				c-0.3-0.2-1-0.5-1.9-0.7c-1-0.2-1.7-0.6-2.2-1s-0.7-1-0.7-1.8s0.3-1.4,0.9-1.8c0.6-0.4,1.4-0.6,2.4-0.6s2,0.2,3.1,0.6l-0.3,0.9
				c-1.1-0.4-2-0.6-2.7-0.6s-1.2,0.1-1.6,0.4c-0.4,0.3-0.6,0.6-0.6,1.1s0.2,0.8,0.5,1.1c0.4,0.3,1,0.5,2,0.8s1.7,0.6,2.2,1
				c0.4,0.4,0.6,1,0.6,1.9c0,0.8-0.3,1.5-0.9,2c-0.6,0.5-1.4,0.7-2.4,0.7S180.8,148.4,179.5,148z"/>
			<path class="st5" d="M203.1,148.6c-1,0-1.7-0.2-2.3-0.8s-0.8-1.2-0.8-2.1s0.3-1.6,0.9-2.1c0.6-0.5,1.4-0.8,2.4-0.8s1.9,0,2.7,0.1
				c0-1.2-0.1-2-0.4-2.4s-0.9-0.7-1.8-0.7c-0.9,0-1.9,0.2-3.2,0.6l-0.3-1c1.2-0.5,2.4-0.7,3.4-0.7c1.3,0,2.2,0.3,2.7,0.9
				c0.5,0.6,0.7,1.6,0.7,3.1v4.2l0.2,1.5l-1,0.1l-0.2-1.2c-0.3,0.3-0.7,0.5-1.3,0.8C204.1,148.5,203.6,148.6,203.1,148.6z
				 M203.1,147.6c0.5,0,1-0.2,1.6-0.5s1-0.6,1.3-0.9v-2.4c-0.9-0.1-1.7-0.1-2.5-0.1s-1.4,0.2-1.8,0.5s-0.6,0.8-0.6,1.4
				C201.1,146.9,201.8,147.6,203.1,147.6z"/>
			<path class="st5" d="M211.7,138.9v0.8c1.3-0.6,2.4-0.9,3.2-0.9c0.9,0,1.5,0.3,2,0.9c0.5,0.6,0.7,1.4,0.7,2.4v6.3h-1.1v-6.3
				c0-0.7-0.2-1.2-0.5-1.6c-0.3-0.4-0.8-0.6-1.4-0.6s-1.6,0.3-3,0.9v7.7h-1.1V139L211.7,138.9L211.7,138.9z"/>
			<path class="st5" d="M228.1,135.1v11.6l0.2,1.7l-1,0.1l-0.2-1.1c-1,0.7-1.9,1-2.8,1c-1.2,0-2.1-0.4-2.8-1.3c-0.7-0.9-1-2.1-1-3.6
				s0.4-2.7,1.1-3.6c0.7-0.9,1.7-1.3,3-1.3c0.7,0,1.5,0.2,2.4,0.5v-4.2h1.1V135.1z M221.7,143.7c0,1.2,0.2,2.1,0.7,2.8
				s1.1,1.1,2,1.1s1.8-0.4,2.7-1.1v-6c-0.3-0.1-0.7-0.3-1.1-0.4c-0.5-0.1-0.9-0.2-1.2-0.2c-0.9,0-1.7,0.3-2.2,1
				C222,141.6,221.7,142.5,221.7,143.7z"/>
			<path class="st5" d="M247.8,148.4v-0.8c-1.3,0.7-2.3,1-3.2,1s-1.5-0.3-2-0.9c-0.5-0.6-0.7-1.4-0.7-2.4v-6.4h1.1v6.4
				c0,0.7,0.2,1.2,0.5,1.6c0.3,0.4,0.8,0.6,1.4,0.6s1.6-0.3,3-1v-7.6h1.1v9.5L247.8,148.4L247.8,148.4z"/>
			<path class="st5" d="M253.3,138.9v0.8c1.3-0.6,2.4-0.9,3.2-0.9c0.9,0,1.5,0.3,2,0.9c0.5,0.6,0.7,1.4,0.7,2.4v6.3h-1.1v-6.3
				c0-0.7-0.2-1.2-0.5-1.6c-0.3-0.4-0.8-0.6-1.4-0.6s-1.6,0.3-3,0.9v7.7h-1.1V139L253.3,138.9L253.3,138.9z"/>
			<path class="st5" d="M263.6,139.9v-1h3.4v8.5h2.3v1h-5.9v-1h2.5v-7.5H263.6z M266.4,137c-0.2,0-0.4-0.1-0.6-0.2s-0.2-0.4-0.2-0.6
				c0-0.3,0.1-0.5,0.2-0.6s0.4-0.2,0.6-0.2s0.4,0.1,0.6,0.2c0.2,0.1,0.2,0.4,0.2,0.6c0,0.3-0.1,0.5-0.2,0.7
				C266.8,136.9,266.6,137,266.4,137z"/>
			<path class="st5" d="M272.6,138.9h1.2l2.6,8.5h0.4l2.5-8.5h1.2l-2.9,9.5h-2L272.6,138.9z"/>
			<path class="st5" d="M283.3,143.7c0-1.5,0.3-2.7,1-3.6s1.6-1.3,2.8-1.3c1.2,0,2.1,0.4,2.7,1.2s0.9,1.9,0.9,3.2l-0.1,1h-6.1
				c0.1,1,0.3,1.8,0.8,2.4s1.1,0.9,1.9,0.9s1.8-0.2,2.9-0.6l0.3,1c-1.1,0.4-2.1,0.6-3,0.6c-1.3,0-2.3-0.4-3-1.3
				C283.6,146.4,283.3,145.2,283.3,143.7z M287.1,139.8c-1.7,0-2.6,1.1-2.7,3.4h5C289.5,140.9,288.7,139.8,287.1,139.8z"/>
			<path class="st5" d="M294.2,139.9v-1h2.9v1.2c0.4-0.3,1-0.5,1.8-0.8s1.5-0.4,2-0.5v1.2c-0.5,0-1.2,0.2-2,0.4s-1.4,0.5-1.8,0.7
				v6.3h3.2v1h-6.2v-1h1.9v-7.5L294.2,139.9L294.2,139.9z"/>
			<path class="st5" d="M304.3,148l0.3-1c1.3,0.4,2.3,0.7,3.1,0.7c0.7,0,1.3-0.2,1.7-0.5c0.4-0.3,0.6-0.7,0.6-1.2s-0.2-0.9-0.5-1.2
				c-0.3-0.2-1-0.5-1.9-0.7c-1-0.2-1.7-0.6-2.2-1s-0.7-1-0.7-1.8s0.3-1.4,0.9-1.8c0.6-0.4,1.4-0.6,2.4-0.6s2,0.2,3.1,0.6l-0.3,0.9
				c-1.1-0.4-2-0.6-2.7-0.6s-1.2,0.1-1.6,0.4c-0.4,0.3-0.6,0.6-0.6,1.1s0.2,0.8,0.5,1.1c0.4,0.3,1,0.5,2,0.8s1.7,0.6,2.2,1
				c0.4,0.4,0.6,1,0.6,1.9c0,0.8-0.3,1.5-0.9,2s-1.4,0.7-2.4,0.7S305.6,148.4,304.3,148z"/>
			<path class="st5" d="M315.6,139.9v-1h3.4v8.5h2.3v1h-5.9v-1h2.5v-7.5H315.6z M318.4,137c-0.2,0-0.4-0.1-0.6-0.2s-0.2-0.4-0.2-0.6
				c0-0.3,0.1-0.5,0.2-0.6s0.4-0.2,0.6-0.2s0.4,0.1,0.6,0.2c0.2,0.1,0.2,0.4,0.2,0.6c0,0.3-0.1,0.5-0.2,0.7
				C318.8,136.9,318.6,137,318.4,137z"/>
			<path class="st5" d="M326.8,140.1h-1.7v-1h1.7v-2.3l1.1-0.2v2.5h3.8v1h-3.8v4.7c0,1,0.1,1.8,0.3,2.2c0.2,0.4,0.6,0.6,1.3,0.6
				c0.6,0,1.3-0.1,2.1-0.4l0.2,1c-0.8,0.3-1.5,0.4-2.2,0.4s-1.2-0.1-1.6-0.3s-0.7-0.5-0.8-0.8c-0.2-0.4-0.3-0.8-0.4-1.2
				s-0.1-0.9-0.1-1.6v-4.6H326.8z"/>
			<path class="st5" d="M336.4,139.9v-1h3.4v8.5h2.3v1h-5.9v-1h2.5v-7.5H336.4z M339.2,137c-0.2,0-0.4-0.1-0.6-0.2s-0.2-0.4-0.2-0.6
				c0-0.3,0.1-0.5,0.2-0.6s0.4-0.2,0.6-0.2s0.4,0.1,0.6,0.2c0.2,0.1,0.2,0.4,0.2,0.6c0,0.3-0.1,0.5-0.2,0.7
				C339.6,136.9,339.4,137,339.2,137z"/>
			<path class="st5" d="M345.7,143.7c0-1.5,0.3-2.7,1-3.6s1.6-1.3,2.8-1.3c1.2,0,2.1,0.4,2.7,1.2s0.9,1.9,0.9,3.2l-0.1,1h-6.1
				c0.1,1,0.3,1.8,0.8,2.4s1.1,0.9,1.9,0.9s1.8-0.2,2.9-0.6l0.3,1c-1.1,0.4-2.1,0.6-3,0.6c-1.3,0-2.3-0.4-3-1.3
				C346,146.4,345.7,145.2,345.7,143.7z M349.5,139.8c-1.7,0-2.6,1.1-2.7,3.4h5C351.9,140.9,351.1,139.8,349.5,139.8z"/>
			<path class="st5" d="M356.3,148l0.3-1c1.3,0.4,2.3,0.7,3.1,0.7c0.7,0,1.3-0.2,1.7-0.5c0.4-0.3,0.6-0.7,0.6-1.2s-0.2-0.9-0.5-1.2
				c-0.3-0.2-1-0.5-1.9-0.7c-1-0.2-1.7-0.6-2.2-1s-0.7-1-0.7-1.8s0.3-1.4,0.9-1.8c0.6-0.4,1.4-0.6,2.4-0.6s2,0.2,3.1,0.6l-0.3,0.9
				c-1.1-0.4-2-0.6-2.7-0.6s-1.2,0.1-1.6,0.4c-0.4,0.3-0.6,0.6-0.6,1.1s0.2,0.8,0.5,1.1c0.4,0.3,1,0.5,2,0.8s1.7,0.6,2.2,1
				c0.4,0.4,0.6,1,0.6,1.9c0,0.8-0.3,1.5-0.9,2s-1.4,0.7-2.4,0.7S357.6,148.4,356.3,148z"/>
		</g>
		<g>
			<g>
				<path class="st4" d="M35.5,163.9c-0.4,0-0.7-0.1-0.9-0.2c-0.2-0.1-0.3-0.3-0.3-0.6s0-0.6,0.1-1l0.5-2.9h-1.3l0.1-0.5h1.9L35,162
					c-0.1,0.5-0.1,0.9-0.1,1c0,0.2,0.3,0.3,0.6,0.3c0.2,0,0.4,0,0.7-0.1l0.1,0.5L35.5,163.9z M35,157.3c0.1,0.1,0.2,0.1,0.3,0.1
					c0.3,0,0.5-0.2,0.5-0.5c0-0.2,0-0.3-0.1-0.4c-0.1-0.1-0.2-0.1-0.3-0.1c-0.3,0-0.5,0.2-0.5,0.5C34.9,157.1,34.9,157.3,35,157.3z"
					/>
				<path class="st4" d="M40.4,158.5v0.4c0.7-0.3,1.3-0.5,1.7-0.5s0.8,0.2,1,0.5s0.3,0.8,0.2,1.3l-0.5,3.5h-0.6l0.6-3.5
					c0-0.4,0-0.7-0.1-0.9S42.3,159,42,159c-0.4,0-0.9,0.2-1.6,0.5l-0.7,4.2H39l0.9-5.2H40.4z"/>
				<path class="st4" d="M54.4,164l0.1-0.7c-0.5,0.3-0.9,0.4-1.3,0.4c-0.6,0-1.1-0.2-1.4-0.7c-0.3-0.5-0.4-1.1-0.3-1.9
					c0.1-0.8,0.4-1.5,0.8-2s1-0.7,1.7-0.7c0.4,0,0.8,0.1,1.2,0.4l0.1-0.3h0.6L55,164c-0.1,0.7-0.3,1.1-0.7,1.5
					c-0.4,0.3-0.9,0.5-1.5,0.5s-1.2-0.1-1.8-0.4l0.3-0.5c0.6,0.3,1.2,0.4,1.6,0.4s0.8-0.1,1.1-0.3C54.2,164.8,54.4,164.5,54.4,164z
					 M54.6,162.7l0.5-3.2c-0.4-0.3-0.8-0.4-1.2-0.4c-0.5,0-0.9,0.2-1.2,0.6c-0.3,0.4-0.5,0.9-0.6,1.5s0,1.1,0.2,1.5s0.5,0.5,0.9,0.5
					C53.7,163.2,54.2,163,54.6,162.7z"/>
				<path class="st4" d="M59,158.8c0.3-0.2,0.7-0.3,1.1-0.3c0.4,0,0.8,0.1,1.1,0.4s0.4,0.6,0.4,1s-0.2,0.8-0.5,1.1s-0.8,0.5-1.4,0.6
					l-1.4,0.2c0,0.5,0.1,1,0.3,1.2c0.2,0.3,0.5,0.4,0.9,0.4s0.9-0.1,1.5-0.3l0.1,0.5c-0.6,0.2-1.2,0.3-1.7,0.3s-1-0.2-1.3-0.5
					c-0.3-0.4-0.5-0.9-0.5-1.5c0-0.8,0.2-1.6,0.5-2.2C58.5,159.2,58.7,158.9,59,158.8z M58.4,161.2l1.3-0.2c0.4-0.1,0.8-0.2,1-0.4
					s0.3-0.5,0.3-0.7c0-0.5-0.3-0.8-1-0.8c-0.5,0-0.9,0.2-1.2,0.6C58.7,160,58.5,160.5,58.4,161.2z"/>
				<path class="st4" d="M66,159.7l-0.7,4h-0.6l0.8-4.7h-1l0.1-0.5h1.6l-0.1,0.6c0.2-0.2,0.6-0.3,1-0.4c0.4-0.1,0.8-0.2,1.1-0.3
					l-0.1,0.6c-0.3,0-0.6,0.1-1.1,0.2S66.2,159.6,66,159.7z"/>
				<path class="st4" d="M70.6,158.5v0.3c0.4-0.3,0.7-0.4,0.9-0.4c0.4,0,0.7,0.2,0.8,0.5c0.4-0.3,0.8-0.5,1.1-0.5
					c0.5,0,0.8,0.1,0.9,0.4c0.1,0.3,0.2,0.7,0.1,1.4l-0.6,3.5h-0.6l0.6-3.5c0.1-0.4,0.1-0.6,0-0.9c-0.1-0.2-0.2-0.4-0.5-0.4
					c-0.2,0-0.5,0.1-0.9,0.4c0,0.3,0,0.6,0,0.9l-0.3,1.8h-0.6l0.3-1.8c0.2-0.8,0-1.2-0.5-1.2c-0.3,0-0.5,0.1-0.9,0.4l-0.7,4.4h-0.6
					l0.9-5.2L70.6,158.5L70.6,158.5z"/>
				<path class="st4" d="M77.7,163.8c-0.6,0-1-0.2-1.3-0.5s-0.4-0.8-0.4-1.5c0-0.8,0.2-1.5,0.6-2.2c0.2-0.3,0.5-0.6,0.8-0.8
					s0.7-0.3,1.2-0.3c0.1,0,0.3,0,0.5,0.1s0.4,0.1,0.5,0.2l0.1-0.2h0.6l-0.7,4v1.2l-0.5,0.1l-0.1-1.1c-0.2,0.3-0.4,0.5-0.6,0.8
					C78.2,163.7,78,163.8,77.7,163.8z M77.7,163.3c0.2,0,0.5-0.2,0.8-0.6c0.4-0.4,0.6-0.7,0.7-0.9l0.4-2.4c-0.4-0.2-0.7-0.3-1-0.3
					c-0.6,0-1.1,0.3-1.5,0.8c-0.4,0.6-0.5,1.2-0.5,1.9c0,0.4,0.1,0.8,0.3,1.1C77.1,163.1,77.3,163.3,77.7,163.3z"/>
				<path class="st4" d="M83.5,158.5v0.4c0.7-0.3,1.3-0.5,1.7-0.5c0.4,0,0.8,0.2,1,0.5s0.3,0.8,0.2,1.3l-0.5,3.5h-0.6l0.6-3.5
					c0-0.4,0-0.7-0.1-0.9s-0.4-0.3-0.7-0.3c-0.4,0-0.9,0.2-1.6,0.5l-0.7,4.2h-0.6l0.9-5.2H83.5z"/>
				<path class="st4" d="M88.8,158.5h0.6l0.6,4.4h0.1l2-4.4h0.6l-2.8,6.1c-0.3,0.6-0.5,0.9-0.8,1.1c-0.3,0.2-0.7,0.3-1.4,0.3
					l0.1-0.6c0.4,0,0.7-0.1,0.9-0.2c0.2-0.1,0.4-0.3,0.5-0.7l0.3-0.8L88.8,158.5z"/>
			</g>
		</g>
		<g>
			<path class="st4" d="M94.2,101.6l1.2-7.3H96l-0.4,2.6c0.6-0.4,1-0.6,1.5-0.6c0.6,0,1.1,0.2,1.4,0.7s0.4,1.1,0.3,1.9
				s-0.4,1.5-0.8,2s-1,0.8-1.7,0.8c-0.2,0-0.4,0-0.7-0.1c-0.3-0.1-0.5-0.1-0.6-0.2l-0.1,0.2H94.2z M98,99c0.1-0.6,0-1.2-0.2-1.5
				c-0.2-0.4-0.5-0.5-1-0.5c-0.4,0-0.9,0.2-1.5,0.6l-0.5,3.3c0.1,0.1,0.3,0.1,0.6,0.2c0.3,0.1,0.5,0.1,0.7,0.1
				c0.5,0,0.9-0.2,1.2-0.6C97.8,100.1,98,99.6,98,99z"/>
			<path class="st4" d="M102.3,97.6l-0.7,4H101l0.8-4.7h-1l0.1-0.5h1.6l-0.1,0.6c0.2-0.2,0.6-0.3,1-0.4s0.8-0.2,1.1-0.3l-0.1,0.6
				c-0.3,0-0.6,0.1-1.1,0.2S102.5,97.5,102.3,97.6z"/>
			<path class="st4" d="M107.8,101.7c-0.6,0-1-0.2-1.3-0.5s-0.4-0.8-0.4-1.5c0-0.8,0.2-1.5,0.6-2.2c0.2-0.3,0.5-0.6,0.8-0.8
				c0.3-0.2,0.7-0.3,1.2-0.3c0.1,0,0.3,0,0.5,0.1s0.4,0.1,0.5,0.2l0.1-0.2h0.6l-0.7,4v1.2l-0.5,0.1l-0.1-1.1
				c-0.2,0.3-0.4,0.5-0.6,0.8C108.3,101.6,108.1,101.7,107.8,101.7z M107.8,101.1c0.2,0,0.5-0.2,0.8-0.6c0.4-0.4,0.6-0.7,0.7-0.9
				l0.4-2.4c-0.4-0.2-0.7-0.3-1-0.3c-0.6,0-1.1,0.3-1.5,0.8c-0.4,0.6-0.5,1.2-0.5,1.9c0,0.4,0.1,0.8,0.3,1.1
				C107.2,101,107.5,101.1,107.8,101.1z"/>
			<path class="st4" d="M113.7,96.4v0.4c0.7-0.3,1.3-0.5,1.7-0.5c0.4,0,0.8,0.2,1,0.5s0.3,0.8,0.2,1.3l-0.5,3.5h-0.6l0.6-3.5
				c0-0.4,0-0.7-0.1-0.9c-0.1-0.2-0.4-0.3-0.7-0.3c-0.4,0-0.9,0.2-1.6,0.5l-0.7,4.2h-0.6l0.9-5.2H113.7z"/>
			<path class="st4" d="M121.8,98.1L122,97c-0.3-0.1-0.6-0.1-0.8-0.1c-0.9,0-1.5,0.7-1.7,2.1c-0.1,0.6,0,1.2,0.2,1.6
				s0.6,0.6,1.1,0.6c0.3,0,0.7-0.1,1.3-0.3l0.1,0.5c-0.6,0.2-1.1,0.3-1.5,0.3c-0.7,0-1.2-0.2-1.5-0.7s-0.4-1.1-0.3-2
				c0.3-1.8,1.1-2.7,2.4-2.7c0.5,0,0.9,0.1,1.4,0.2l-0.3,1.5L121.8,98.1L121.8,98.1z"/>
			<path class="st4" d="M125.8,97.4l-0.7,4.3h-0.6l1.2-7.3h0.6l-0.4,2.5c0.7-0.3,1.3-0.5,1.7-0.5c0.5,0,0.8,0.2,1,0.5
				c0.2,0.3,0.3,0.8,0.2,1.3l-0.6,3.5h-0.5l0.6-3.5c0-0.4,0-0.7-0.1-0.9c-0.1-0.2-0.4-0.3-0.8-0.3C127,96.9,126.5,97.1,125.8,97.4z"
				/>
			<path class="st4" d="M132.2,96.6c0.3-0.2,0.7-0.3,1.1-0.3c0.4,0,0.8,0.1,1.1,0.4s0.4,0.6,0.4,1s-0.2,0.8-0.5,1.1
				c-0.3,0.3-0.8,0.5-1.4,0.6l-1.4,0.2c0,0.5,0.1,1,0.3,1.2c0.2,0.3,0.5,0.4,0.9,0.4s0.9-0.1,1.5-0.3l0.1,0.5
				c-0.6,0.2-1.2,0.3-1.7,0.3s-1-0.2-1.3-0.5c-0.3-0.4-0.5-0.9-0.5-1.5c0-0.8,0.2-1.6,0.5-2.2C131.7,97.1,131.9,96.8,132.2,96.6z
				 M131.7,99l1.3-0.2c0.4-0.1,0.8-0.2,1-0.4c0.2-0.2,0.3-0.5,0.3-0.7c0-0.5-0.3-0.8-1-0.8c-0.5,0-0.9,0.2-1.2,0.6
				C131.9,97.9,131.7,98.4,131.7,99z"/>
			<path class="st4" d="M137.3,101.4l0.2-0.6c0.7,0.2,1.2,0.4,1.6,0.4c0.4,0,0.7-0.1,0.9-0.3c0.2-0.2,0.4-0.5,0.4-0.8
				c0-0.2-0.1-0.4-0.2-0.5c-0.2-0.1-0.5-0.2-0.9-0.4c-0.5-0.1-0.8-0.3-1-0.5s-0.4-0.5-0.4-0.8c0-0.5,0.2-0.9,0.5-1.2
				c0.3-0.3,0.8-0.4,1.3-0.4s1.1,0.1,1.6,0.3l-0.2,0.6c-0.5-0.2-1-0.3-1.4-0.3s-0.7,0.1-0.9,0.3c-0.2,0.2-0.4,0.4-0.4,0.6
				s0.1,0.4,0.3,0.5s0.5,0.2,1,0.4s0.8,0.3,1,0.5s0.3,0.5,0.3,0.9s-0.2,0.8-0.5,1.1s-0.8,0.5-1.3,0.5S137.9,101.6,137.3,101.4z"/>
			<path class="st4" d="M151.2,101.7c-1.4,0-2-0.9-1.8-2.7c0.3-1.8,1-2.7,2.3-2.7c0.7,0,1.2,0.2,1.5,0.7c0.3,0.4,0.4,1.1,0.3,2
				C153.2,100.8,152.5,101.7,151.2,101.7z M152.7,97.5c-0.2-0.4-0.6-0.6-1-0.6s-0.9,0.2-1.1,0.5c-0.3,0.4-0.5,0.9-0.6,1.6
				s-0.1,1.2,0.1,1.6c0.2,0.4,0.6,0.6,1.1,0.5c0.9,0,1.5-0.7,1.7-2.1C153,98.4,153,97.8,152.7,97.5z"/>
			<path class="st4" d="M156.6,97h-1l0.1-0.5h1c0.2-1.5,0.8-2.2,1.8-2.2c0.3,0,0.7,0.1,1.1,0.2l-0.2,0.6c-0.4-0.1-0.7-0.2-0.9-0.2
				c-0.7,0-1,0.5-1.2,1.6h1.8L159,97h-1.8c-0.2,1.7-0.4,3.2-0.6,4.3c-0.2,1.1-0.3,1.8-0.4,2.1l-0.1,0.4h-0.6c0-0.1,0.1-0.2,0.2-0.4
				c0.1-0.2,0.2-0.9,0.4-2C156.2,100.1,156.4,98.7,156.6,97z"/>
			<path class="st4" d="M166.6,101.4l0.2-0.6c0.7,0.2,1.2,0.4,1.6,0.4c0.4,0,0.7-0.1,0.9-0.3c0.2-0.2,0.4-0.5,0.4-0.8
				c0-0.2-0.1-0.4-0.2-0.5c-0.2-0.1-0.5-0.2-0.9-0.4c-0.5-0.1-0.8-0.3-1-0.5s-0.4-0.5-0.4-0.8c0-0.5,0.2-0.9,0.5-1.2
				c0.3-0.3,0.8-0.4,1.3-0.4s1.1,0.1,1.6,0.3l-0.2,0.6c-0.5-0.2-1-0.3-1.4-0.3s-0.7,0.1-0.9,0.3c-0.2,0.2-0.4,0.4-0.4,0.6
				s0.1,0.4,0.3,0.5s0.5,0.2,1,0.4s0.8,0.3,1,0.5s0.3,0.5,0.3,0.9s-0.2,0.8-0.5,1.1s-0.8,0.5-1.3,0.5S167.2,101.6,166.6,101.4z"/>
			<path class="st4" d="M175.7,98.1l0.2-1.1c-0.3-0.1-0.6-0.1-0.8-0.1c-0.9,0-1.5,0.7-1.7,2.1c-0.1,0.6,0,1.2,0.2,1.6
				s0.6,0.6,1.1,0.6c0.3,0,0.7-0.1,1.3-0.3l0.1,0.5c-0.6,0.2-1.1,0.3-1.5,0.3c-0.7,0-1.2-0.2-1.5-0.7s-0.4-1.1-0.3-2
				c0.3-1.8,1.1-2.7,2.4-2.7c0.5,0,0.9,0.1,1.4,0.2l-0.3,1.5L175.7,98.1L175.7,98.1z"/>
			<path class="st4" d="M181.1,101.7c-0.4,0-0.7-0.1-0.9-0.2s-0.3-0.3-0.3-0.6c0-0.3,0-0.6,0.1-1l0.5-2.9h-1.3l0.1-0.5h1.9l-0.5,3.4
				c-0.1,0.5-0.1,0.9-0.1,1c0,0.2,0.3,0.3,0.6,0.3c0.2,0,0.4,0,0.7-0.1l0.1,0.5L181.1,101.7z M180.6,95.2c0.1,0.1,0.2,0.1,0.3,0.1
				c0.3,0,0.5-0.2,0.5-0.5c0-0.2,0-0.3-0.1-0.4s-0.2-0.1-0.3-0.1c-0.3,0-0.5,0.2-0.5,0.5C180.4,95,180.5,95.1,180.6,95.2z"/>
			<path class="st4" d="M186.1,96.6c0.3-0.2,0.7-0.3,1.1-0.3c0.4,0,0.8,0.1,1.1,0.4s0.4,0.6,0.4,1s-0.2,0.8-0.5,1.1
				c-0.3,0.3-0.8,0.5-1.4,0.6l-1.4,0.2c0,0.5,0.1,1,0.3,1.2c0.2,0.3,0.5,0.4,0.9,0.4s0.9-0.1,1.5-0.3l0.1,0.5
				c-0.6,0.2-1.2,0.3-1.7,0.3s-1-0.2-1.3-0.5c-0.3-0.4-0.5-0.9-0.5-1.5c0-0.8,0.2-1.6,0.5-2.2C185.6,97.1,185.8,96.8,186.1,96.6z
				 M185.5,99l1.3-0.2c0.4-0.1,0.8-0.2,1-0.4c0.2-0.2,0.3-0.5,0.3-0.7c0-0.5-0.3-0.8-1-0.8c-0.5,0-0.9,0.2-1.2,0.6
				C185.8,97.9,185.6,98.4,185.5,99z"/>
			<path class="st4" d="M192.2,96.4v0.4c0.7-0.3,1.3-0.5,1.7-0.5s0.8,0.2,1,0.5s0.3,0.8,0.2,1.3l-0.5,3.5H194l0.6-3.5
				c0-0.4,0-0.7-0.1-0.9c-0.1-0.2-0.4-0.3-0.7-0.3c-0.4,0-0.9,0.2-1.6,0.5l-0.7,4.2h-0.6l0.9-5.2H192.2z"/>
			<path class="st4" d="M200.3,98.1l0.2-1.1c-0.3-0.1-0.6-0.1-0.8-0.1c-0.9,0-1.5,0.7-1.7,2.1c-0.1,0.6,0,1.2,0.2,1.6
				s0.6,0.6,1.1,0.6c0.3,0,0.7-0.1,1.3-0.3l0.1,0.5c-0.6,0.2-1.1,0.3-1.5,0.3c-0.7,0-1.2-0.2-1.5-0.7s-0.4-1.1-0.3-2
				c0.3-1.8,1.1-2.7,2.4-2.7c0.5,0,0.9,0.1,1.4,0.2l-0.3,1.5L200.3,98.1L200.3,98.1z"/>
			<path class="st4" d="M204.6,96.6c0.3-0.2,0.7-0.3,1.1-0.3c0.4,0,0.8,0.1,1.1,0.4s0.4,0.6,0.4,1s-0.2,0.8-0.5,1.1
				c-0.3,0.3-0.8,0.5-1.4,0.6l-1.4,0.2c0,0.5,0.1,1,0.3,1.2c0.2,0.3,0.5,0.4,0.9,0.4s0.9-0.1,1.5-0.3l0.1,0.5
				c-0.6,0.2-1.2,0.3-1.7,0.3s-1-0.2-1.3-0.5c-0.3-0.4-0.5-0.9-0.5-1.5c0-0.8,0.2-1.6,0.5-2.2C204,97.1,204.3,96.8,204.6,96.6z
				 M204,99l1.3-0.2c0.4-0.1,0.8-0.2,1-0.4c0.2-0.2,0.3-0.5,0.3-0.7c0-0.5-0.3-0.8-1-0.8c-0.5,0-0.9,0.2-1.2,0.6
				C204.2,97.9,204.1,98.4,204,99z"/>
		</g>
		<g>
			<path class="st6" d="M94.6,84.8V63.1h1.7v13.2l2.8-0.3c1.3-1.7,2.7-3.5,3.9-5.7l0.6-1h2c-1.7,3-3.3,5.4-5,7.4
				c1.5,1.9,3,4.2,4.5,6.9l0.7,1.3h-2c-1.5-2.8-3-5.2-4.6-7.2l-3,0.3v6.9h-1.6V84.8z"/>
			<path class="st6" d="M111.9,69.3l0.1,1.3c2.1-1,3.9-1.5,5.3-1.5s2.5,0.5,3.3,1.4c0.8,1,1.2,2.3,1.2,3.9v10.3H120V74.5
				c0-1.1-0.3-1.9-0.8-2.6s-1.3-1-2.3-1s-2.7,0.5-4.9,1.4v12.6h-1.7V69.3H111.9z"/>
			<path class="st6" d="M132.5,70.8c-2.9,0-4.4,2.1-4.4,6.3c0,4.2,1.5,6.3,4.4,6.3s4.4-2.1,4.4-6.3S135.4,70.8,132.5,70.8
				 M126.3,77.1c0-5.3,2.1-8,6.2-8c4.2,0,6.2,2.7,6.2,8s-2.1,8-6.2,8C128.4,85.1,126.3,82.5,126.3,77.1"/>
			<polygon class="st6" points="154.5,69.3 156.2,69.3 154.3,84.8 150.9,84.8 149.2,78.1 149.1,78.1 147.4,84.8 144,84.8 
				142.2,69.3 143.9,69.3 145.6,83.3 146.1,83.3 148.3,75.4 150,75.4 152.2,83.3 152.8,83.3 			"/>
			<polygon class="st6" points="159.5,84.8 159.5,83.2 164.5,83.2 164.5,64.7 159.6,64.8 159.6,63.2 166.2,63.1 166.2,83.2 
				171.4,83.2 171.4,84.8 			"/>
			<g>
				<path class="st6" d="M180.3,70.8c-2.7,0-4.2,1.8-4.3,5.5h8.2C184.2,72.6,182.9,70.8,180.3,70.8 M174.1,77.1
					c0-2.5,0.5-4.5,1.5-5.9s2.5-2.1,4.5-2.1s3.5,0.7,4.4,2c1,1.3,1.5,3,1.5,5.2l-0.1,1.6h-10c0.1,1.6,0.5,3,1.3,4s1.8,1.5,3.1,1.5
					s2.9-0.3,4.7-0.9l0.5,1.6c-1.8,0.7-3.4,1-5,1c-2.1,0-3.8-0.7-4.9-2.1C174.7,81.6,174.1,79.6,174.1,77.1"/>
				<path class="st6" d="M192.1,77.1c0,1.9,0.4,3.5,1.1,4.6c0.8,1.2,1.8,1.7,3.2,1.7s2.9-0.6,4.3-1.9v-9.8c-0.5-0.2-1.1-0.4-1.9-0.6
					c-0.8-0.2-1.4-0.3-1.9-0.3c-1.5,0-2.7,0.6-3.6,1.7C192.6,73.6,192.1,75.1,192.1,77.1 M202.6,63.2v19l0.3,2.8l-1.7,0.2l-0.3-1.7
					c-1.6,1.1-3.1,1.7-4.5,1.7c-1.9,0-3.4-0.7-4.5-2.2c-1.1-1.4-1.6-3.4-1.6-5.9s0.6-4.4,1.8-5.8s2.8-2.1,4.9-2.1
					c1.2,0,2.5,0.3,3.9,0.9v-6.9C200.9,63.2,202.6,63.2,202.6,63.2z"/>
				<path class="st6" d="M210.7,72.5c-0.9,1.1-1.3,2.7-1.3,4.6s0.4,3.4,1.1,4.5c0.8,1.1,1.8,1.6,3.2,1.6s2.8-0.7,4.4-2v-9.1
					c-1.4-0.9-2.7-1.3-3.8-1.3C212.8,70.8,211.6,71.3,210.7,72.5 M209.2,82.8c-1-1.3-1.6-3.3-1.6-5.7c0-2.5,0.6-4.4,1.7-5.8
					c1.2-1.4,2.8-2.1,4.9-2.1c1.2,0,2.4,0.4,3.9,1.1l0.1-0.9h1.7v11.7c0.3,2.6,0.5,4.1,0.5,4.5c0,1.9-0.6,3.4-1.9,4.3
					c-1.3,1-2.8,1.5-4.5,1.5s-3.7-0.4-5.9-1.3l0.6-1.6c2.2,0.8,3.9,1.2,5.2,1.2s2.4-0.3,3.4-1s1.5-1.7,1.5-3l-0.3-2.6
					c-1.7,1.2-3.3,1.8-4.6,1.8C211.7,84.8,210.2,84.2,209.2,82.8"/>
				<path class="st6" d="M231.3,70.8c-2.7,0-4.2,1.8-4.3,5.5h8.2C235.2,72.6,233.9,70.8,231.3,70.8 M225.1,77.1
					c0-2.5,0.5-4.5,1.5-5.9s2.5-2.1,4.5-2.1s3.5,0.7,4.4,2c1,1.3,1.5,3,1.5,5.2l-0.1,1.6h-10c0.1,1.6,0.5,3,1.3,4s1.8,1.5,3.1,1.5
					s2.9-0.3,4.7-0.9l0.5,1.6c-1.8,0.7-3.4,1-5,1c-2.1,0-3.8-0.7-4.9-2.1C225.6,81.6,225.1,79.6,225.1,77.1"/>
				<path class="st6" d="M96.4,42.2v12.7h-1.7V33.2h1.7v7.3c2-0.9,3.7-1.4,5.1-1.4c3.1,0,4.7,1.8,4.7,5.4v10.3h-1.7V44.5
					c0-1.1-0.2-2-0.7-2.7s-1.3-1-2.5-1C100,40.8,98.4,41.3,96.4,42.2"/>
				<path class="st6" d="M114.7,34.7c0-0.4,0.1-0.8,0.4-1c0.2-0.2,0.6-0.4,1-0.4c0.9,0,1.3,0.5,1.3,1.4c0,1-0.4,1.4-1.3,1.4
					C115.2,36.2,114.7,35.7,114.7,34.7 M110.6,54.8v-1.6h4.8V40.9h-4.8v-1.6h6.5v13.9h4.8v1.6C121.9,54.8,110.6,54.8,110.6,54.8z"/>
			</g>
		</g>
		<g>
			<rect x="32.7" y="198.6" class="st7" width="345.5" height="101.4"/>
			<path class="st5" d="M33.3,205.9v-7.2h0.6v3.3H37v-3.3h0.6v7.2H37v-3.3h-3.1v3.3H33.3z"/>
			<path class="st5" d="M39.4,203.3c0-0.8,0.2-1.5,0.5-2s0.9-0.7,1.5-0.7c0.7,0,1.2,0.2,1.5,0.7c0.3,0.4,0.5,1,0.5,1.8v0.5H40
				c0,0.5,0.2,1,0.4,1.3c0.3,0.3,0.6,0.5,1.1,0.5s1-0.1,1.6-0.3l0.2,0.5c-0.6,0.2-1.2,0.3-1.7,0.3c-0.7,0-1.3-0.2-1.6-0.7
				C39.6,204.8,39.4,204.1,39.4,203.3z M41.5,201.1c-0.9,0-1.4,0.6-1.5,1.9h2.8C42.8,201.8,42.4,201.1,41.5,201.1z"/>
			<path class="st5" d="M45.6,201.2v-0.5h1.6v0.6c0.2-0.1,0.6-0.3,1-0.4c0.4-0.1,0.8-0.2,1.1-0.3v0.6c-0.3,0-0.7,0.1-1.1,0.2
				c-0.4,0.1-0.8,0.3-1,0.4v3.5H49v0.5h-3.4v-0.5h1v-4.1H45.6z"/>
			<path class="st5" d="M51.3,203.3c0-0.8,0.2-1.5,0.5-2s0.9-0.7,1.5-0.7c0.7,0,1.2,0.2,1.5,0.7c0.3,0.4,0.5,1,0.5,1.8v0.5h-3.4
				c0,0.5,0.2,1,0.4,1.3c0.3,0.3,0.6,0.5,1.1,0.5s1-0.1,1.6-0.3l0.2,0.5c-0.6,0.2-1.2,0.3-1.7,0.3c-0.7,0-1.3-0.2-1.6-0.7
				C51.5,204.8,51.3,204.1,51.3,203.3z M53.4,201.1c-0.9,0-1.4,0.6-1.5,1.9h2.8C54.7,201.8,54.3,201.1,53.4,201.1z"/>
			<path class="st5" d="M67.2,204.6v1.5c0,0.7-0.2,1.1-0.6,1.5c-0.4,0.3-0.9,0.5-1.5,0.5s-1.2-0.1-2-0.4l0.2-0.5
				c0.7,0.3,1.3,0.4,1.7,0.4s0.8-0.1,1.1-0.3c0.3-0.2,0.4-0.6,0.4-1c0-0.1,0-0.2,0-0.4s0-0.3,0-0.4c-0.5,0.4-1,0.6-1.5,0.6
				c-0.7,0-1.2-0.2-1.5-0.7c-0.4-0.5-0.5-1.1-0.5-1.9s0.2-1.5,0.6-2c0.4-0.5,0.9-0.7,1.6-0.7c0.4,0,0.8,0.1,1.3,0.4v-0.3h0.6
				L67.2,204.6L67.2,204.6z M63.6,203.3c0,0.6,0.1,1.1,0.4,1.5c0.2,0.4,0.6,0.5,1.1,0.5s1-0.2,1.5-0.6v-3.1
				c-0.5-0.3-0.9-0.4-1.3-0.4c-0.5,0-0.9,0.2-1.2,0.6C63.8,202.1,63.6,202.6,63.6,203.3z"/>
			<path class="st5" d="M69,203.3c0-1.8,0.7-2.7,2.1-2.7s2.1,0.9,2.1,2.7s-0.7,2.7-2.1,2.7S69,205.1,69,203.3z M71.1,201.2
				c-1,0-1.5,0.7-1.5,2.1s0.5,2.1,1.5,2.1s1.5-0.7,1.5-2.1S72.1,201.2,71.1,201.2z"/>
			<path class="st5" d="M75.1,203.3c0-0.8,0.2-1.5,0.5-2s0.9-0.7,1.5-0.7c0.7,0,1.2,0.2,1.5,0.7c0.3,0.4,0.5,1,0.5,1.8v0.5h-3.4
				c0,0.5,0.2,1,0.4,1.3c0.3,0.3,0.6,0.5,1.1,0.5s1-0.1,1.6-0.3l0.2,0.5c-0.6,0.2-1.2,0.3-1.7,0.3c-0.7,0-1.3-0.2-1.6-0.7
				C75.3,204.8,75.1,204.1,75.1,203.3z M77.2,201.1c-0.9,0-1.4,0.6-1.5,1.9h2.8C78.5,201.8,78,201.1,77.2,201.1z"/>
			<path class="st5" d="M81.1,205.6l0.1-0.6c0.7,0.2,1.3,0.4,1.7,0.4s0.7-0.1,0.9-0.3c0.2-0.2,0.3-0.4,0.3-0.7s-0.1-0.5-0.3-0.6
				s-0.5-0.3-1.1-0.4c-0.5-0.1-1-0.3-1.2-0.5c-0.3-0.2-0.4-0.5-0.4-1s0.2-0.8,0.5-1s0.8-0.3,1.3-0.3s1.1,0.1,1.7,0.4l-0.2,0.5
				c-0.6-0.2-1.1-0.3-1.5-0.3s-0.7,0.1-0.9,0.2c-0.2,0.1-0.3,0.3-0.3,0.6s0.1,0.4,0.3,0.6s0.6,0.3,1.1,0.4s1,0.3,1.2,0.5
				s0.4,0.6,0.4,1s-0.2,0.8-0.5,1.1s-0.7,0.4-1.3,0.4S81.8,205.9,81.1,205.6z"/>
			<path class="st5" d="M94.5,206c-0.5,0-1-0.1-1.3-0.4s-0.5-0.7-0.5-1.2s0.2-0.9,0.5-1.2s0.8-0.4,1.3-0.4c0.6,0,1,0,1.5,0.1
				c0-0.7-0.1-1.1-0.2-1.3c-0.2-0.2-0.5-0.4-1-0.4s-1.1,0.1-1.7,0.4L93,201c0.7-0.2,1.3-0.4,1.8-0.4c0.7,0,1.2,0.2,1.5,0.5
				s0.4,0.9,0.4,1.7v2.3l0.1,0.8l-0.6,0.1l-0.1-0.7c-0.2,0.1-0.4,0.3-0.7,0.4C95.1,205.9,94.8,206,94.5,206z M94.5,205.4
				c0.3,0,0.6-0.1,0.9-0.3s0.6-0.3,0.7-0.5v-1.3c-0.5,0-0.9-0.1-1.4-0.1c-0.4,0-0.8,0.1-1,0.3s-0.3,0.4-0.3,0.8
				C93.4,205,93.8,205.4,94.5,205.4z"/>
			<path class="st5" d="M108.7,198.6v6.4l0.1,1l-0.6,0.1l-0.1-0.6c-0.5,0.4-1.1,0.6-1.5,0.6c-0.7,0-1.2-0.2-1.5-0.7s-0.5-1.1-0.5-2
				s0.2-1.5,0.6-2s1-0.7,1.6-0.7c0.4,0,0.8,0.1,1.3,0.3v-2.3h0.6V198.6z M105.2,203.3c0,0.6,0.1,1.2,0.4,1.6s0.6,0.6,1.1,0.6
				s1-0.2,1.5-0.6v-3.3c-0.2-0.1-0.4-0.1-0.6-0.2c-0.3-0.1-0.5-0.1-0.7-0.1c-0.5,0-0.9,0.2-1.2,0.6
				C105.4,202.1,105.2,202.6,105.2,203.3z"/>
			<path class="st5" d="M110.7,203.3c0-0.8,0.2-1.5,0.5-2s0.9-0.7,1.5-0.7c0.7,0,1.2,0.2,1.5,0.7c0.3,0.4,0.5,1,0.5,1.8v0.5h-3.4
				c0,0.5,0.2,1,0.4,1.3c0.3,0.3,0.6,0.5,1.1,0.5s1-0.1,1.6-0.3l0.2,0.5c-0.6,0.2-1.2,0.3-1.7,0.3c-0.7,0-1.3-0.2-1.6-0.7
				C110.9,204.8,110.7,204.1,110.7,203.3z M112.8,201.1c-0.9,0-1.4,0.6-1.5,1.9h2.8C114.1,201.8,113.7,201.1,112.8,201.1z"/>
			<path class="st5" d="M116.8,205.6l0.1-0.6c0.7,0.2,1.3,0.4,1.7,0.4s0.7-0.1,0.9-0.3c0.2-0.2,0.3-0.4,0.3-0.7s-0.1-0.5-0.3-0.6
				s-0.5-0.3-1.1-0.4c-0.5-0.1-1-0.3-1.2-0.5c-0.3-0.2-0.4-0.5-0.4-1s0.2-0.8,0.5-1s0.8-0.3,1.3-0.3s1.1,0.1,1.7,0.4l-0.2,0.5
				c-0.6-0.2-1.1-0.3-1.5-0.3s-0.7,0.1-0.9,0.2c-0.2,0.1-0.3,0.3-0.3,0.6s0.1,0.4,0.3,0.6s0.6,0.3,1.1,0.4s1,0.3,1.2,0.5
				s0.4,0.6,0.4,1s-0.2,0.8-0.5,1.1s-0.7,0.4-1.3,0.4S117.5,205.9,116.8,205.6z"/>
			<path class="st5" d="M125.8,202.4v-1.1c-0.4-0.1-0.6-0.1-0.9-0.1c-0.5,0-0.9,0.2-1.2,0.6c-0.3,0.4-0.4,0.9-0.4,1.6
				s0.1,1.2,0.4,1.6c0.3,0.4,0.7,0.6,1.2,0.6c0.3,0,0.8-0.1,1.4-0.3l0.2,0.5c-0.6,0.2-1.1,0.3-1.5,0.3c-0.7,0-1.3-0.2-1.6-0.7
				c-0.4-0.5-0.6-1.2-0.6-2c0-0.9,0.2-1.5,0.6-2s0.9-0.7,1.6-0.7c0.5,0,1,0.1,1.4,0.2v1.5L125.8,202.4L125.8,202.4z"/>
			<path class="st5" d="M128.8,201.2v-0.5h1.6v0.6c0.2-0.1,0.6-0.3,1-0.4c0.4-0.1,0.8-0.2,1.1-0.3v0.6c-0.3,0-0.7,0.1-1.1,0.2
				c-0.4,0.1-0.8,0.3-1,0.4v3.5h1.8v0.5h-3.4v-0.5h1v-4.1H128.8z"/>
			<path class="st5" d="M135.1,201.2v-0.5h1.9v4.7h1.3v0.5H135v-0.5h1.4v-4.1L135.1,201.2L135.1,201.2z M136.6,199.6
				c-0.1,0-0.2,0-0.3-0.1s-0.1-0.2-0.1-0.4s0-0.3,0.1-0.3c0.1-0.1,0.2-0.1,0.3-0.1s0.2,0,0.3,0.1s0.1,0.2,0.1,0.3s0,0.3-0.1,0.4
				C136.8,199.5,136.7,199.6,136.6,199.6z"/>
			<path class="st5" d="M140.5,208v-6.4l-0.1-1l0.5-0.1l0.1,0.6c0.5-0.4,1-0.6,1.5-0.6c0.7,0,1.2,0.2,1.5,0.7s0.5,1.1,0.5,2
				s-0.2,1.5-0.6,2s-0.9,0.7-1.7,0.7c-0.4,0-0.8-0.1-1.3-0.3v2.3h-0.4V208z M144,203.3c0-0.6-0.1-1.2-0.4-1.6s-0.6-0.6-1.1-0.6
				s-1,0.2-1.5,0.6v3.3c0.2,0.1,0.4,0.1,0.6,0.2c0.3,0.1,0.5,0.1,0.7,0.1c0.5,0,0.9-0.2,1.2-0.6C143.9,204.5,144,203.9,144,203.3z"
				/>
			<path class="st5" d="M147.4,201.3h-0.9v-0.6h0.9v-1.3l0.6-0.1v1.4h2.1v0.6H148v2.6c0,0.6,0.1,1,0.2,1.2c0.1,0.2,0.3,0.4,0.7,0.4
				s0.7-0.1,1.2-0.2l0.1,0.5c-0.4,0.2-0.8,0.2-1.2,0.2s-0.7,0-0.9-0.1s-0.4-0.2-0.5-0.5s-0.2-0.4-0.2-0.6c0-0.2,0-0.5,0-0.9
				L147.4,201.3L147.4,201.3z"/>
			<path class="st5" d="M152.9,201.2v-0.5h1.9v4.7h1.3v0.5h-3.2v-0.5h1.4v-4.1L152.9,201.2L152.9,201.2z M154.4,199.6
				c-0.1,0-0.2,0-0.3-0.1s-0.1-0.2-0.1-0.4s0-0.3,0.1-0.3c0.1-0.1,0.2-0.1,0.3-0.1s0.2,0,0.3,0.1s0.1,0.2,0.1,0.3s0,0.3-0.1,0.4
				C154.7,199.5,154.5,199.6,154.4,199.6z"/>
			<path class="st5" d="M158.1,203.3c0-1.8,0.7-2.7,2.1-2.7c1.4,0,2.1,0.9,2.1,2.7s-0.7,2.7-2.1,2.7S158.1,205.1,158.1,203.3z
				 M160.2,201.2c-1,0-1.5,0.7-1.5,2.1s0.5,2.1,1.5,2.1s1.5-0.7,1.5-2.1S161.2,201.2,160.2,201.2z"/>
			<path class="st5" d="M164.8,200.7v0.4c0.7-0.3,1.3-0.5,1.8-0.5s0.8,0.2,1.1,0.5s0.4,0.8,0.4,1.3v3.5h-0.6v-3.5
				c0-0.4-0.1-0.7-0.3-0.9s-0.4-0.3-0.8-0.3s-0.9,0.2-1.6,0.5v4.2h-0.6v-5.2H164.8z"/>
			<path class="st5" d="M176,203.3c0-1.8,0.7-2.7,2.1-2.7c1.4,0,2.1,0.9,2.1,2.7s-0.7,2.7-2.1,2.7S176,205.1,176,203.3z
				 M178.1,201.2c-1,0-1.5,0.7-1.5,2.1s0.5,2.1,1.5,2.1s1.5-0.7,1.5-2.1S179,201.2,178.1,201.2z"/>
			<path class="st5" d="M183.2,201.2h-1v-0.5h1c0-1.5,0.5-2.2,1.6-2.2c0.4,0,0.7,0.1,1.2,0.2l-0.1,0.6c-0.4-0.1-0.7-0.2-1-0.2
				c-0.4,0-0.7,0.1-0.8,0.4c-0.2,0.3-0.2,0.7-0.2,1.2h2v0.5h-2v4.1h2v0.5h-3.7v-0.5h1.1v-4.1H183.2z"/>
			<path class="st5" d="M194.9,201.3H194v-0.6h0.9v-1.3l0.6-0.1v1.4h2.1v0.6h-2.1v2.6c0,0.6,0.1,1,0.2,1.2c0.1,0.2,0.3,0.4,0.7,0.4
				s0.7-0.1,1.2-0.2l0.1,0.5c-0.4,0.2-0.8,0.2-1.2,0.2s-0.7,0-0.9-0.1s-0.4-0.2-0.5-0.5s-0.2-0.4-0.2-0.6c0-0.2,0-0.5,0-0.9
				L194.9,201.3L194.9,201.3z"/>
			<path class="st5" d="M200.5,201.6v4.3h-0.6v-7.3h0.6v2.5c0.7-0.3,1.3-0.5,1.7-0.5c1,0,1.6,0.6,1.6,1.8v3.5h-0.6v-3.5
				c0-0.4-0.1-0.7-0.2-0.9c-0.2-0.2-0.4-0.3-0.8-0.3S201.2,201.3,200.5,201.6z"/>
			<path class="st5" d="M205.7,203.3c0-0.8,0.2-1.5,0.5-2s0.9-0.7,1.5-0.7c0.7,0,1.2,0.2,1.5,0.7c0.3,0.4,0.5,1,0.5,1.8v0.5h-3.4
				c0,0.5,0.2,1,0.4,1.3c0.3,0.3,0.6,0.5,1.1,0.5s1-0.1,1.6-0.3l0.2,0.5c-0.6,0.2-1.2,0.3-1.7,0.3c-0.7,0-1.3-0.2-1.6-0.7
				C205.9,204.8,205.7,204.1,205.7,203.3z M207.8,201.1c-0.9,0-1.4,0.6-1.5,1.9h2.8C209.1,201.8,208.7,201.1,207.8,201.1z"/>
			<path class="st5" d="M217.7,208v-6.4l-0.1-1l0.5-0.1l0.1,0.6c0.5-0.4,1-0.6,1.5-0.6c0.7,0,1.2,0.2,1.5,0.7s0.5,1.1,0.5,2
				s-0.2,1.5-0.6,2s-0.9,0.7-1.7,0.7c-0.4,0-0.8-0.1-1.3-0.3v2.3h-0.4V208z M221.2,203.3c0-0.6-0.1-1.2-0.4-1.6s-0.6-0.6-1.1-0.6
				s-1,0.2-1.5,0.6v3.3c0.2,0.1,0.4,0.1,0.6,0.2c0.3,0.1,0.5,0.1,0.7,0.1c0.5,0,0.9-0.2,1.2-0.6
				C221.1,204.5,221.2,203.9,221.2,203.3z"/>
			<path class="st5" d="M223.8,201.2v-0.5h1.6v0.6c0.2-0.1,0.6-0.3,1-0.4c0.4-0.1,0.8-0.2,1.1-0.3v0.6c-0.3,0-0.7,0.1-1.1,0.2
				c-0.4,0.1-0.8,0.3-1,0.4v3.5h1.8v0.5h-3.4v-0.5h1v-4.1H223.8z"/>
			<path class="st5" d="M229.4,203.3c0-1.8,0.7-2.7,2.1-2.7c1.4,0,2.1,0.9,2.1,2.7s-0.7,2.7-2.1,2.7
				C230.1,206,229.4,205.1,229.4,203.3z M231.5,201.2c-1,0-1.5,0.7-1.5,2.1s0.5,2.1,1.5,2.1s1.5-0.7,1.5-2.1
				S232.5,201.2,231.5,201.2z"/>
			<path class="st5" d="M238.4,200.7v5.3c0,0.7-0.2,1.2-0.5,1.4s-1,0.4-1.8,0.6l-0.1-0.6c0.7-0.1,1.2-0.2,1.5-0.4s0.4-0.5,0.4-1
				v-4.8h-1.4v-0.5H238.4z M237.5,199.1c0-0.3,0.2-0.5,0.5-0.5s0.5,0.2,0.5,0.5s-0.2,0.5-0.5,0.5c-0.2,0-0.3,0-0.4-0.1
				S237.5,199.3,237.5,199.1z"/>
			<path class="st5" d="M241.4,203.3c0-0.8,0.2-1.5,0.5-2s0.9-0.7,1.5-0.7c0.7,0,1.2,0.2,1.5,0.7c0.3,0.4,0.5,1,0.5,1.8v0.5H242
				c0,0.5,0.2,1,0.4,1.3c0.3,0.3,0.6,0.5,1.1,0.5s1-0.1,1.6-0.3l0.2,0.5c-0.6,0.2-1.2,0.3-1.7,0.3c-0.7,0-1.3-0.2-1.6-0.7
				C241.6,204.8,241.4,204.1,241.4,203.3z M243.5,201.1c-0.9,0-1.4,0.6-1.5,1.9h2.8C244.8,201.8,244.3,201.1,243.5,201.1z"/>
			<path class="st5" d="M250.5,202.4v-1.1c-0.4-0.1-0.6-0.1-0.9-0.1c-0.5,0-0.9,0.2-1.2,0.6c-0.3,0.4-0.4,0.9-0.4,1.6
				s0.1,1.2,0.4,1.6c0.3,0.4,0.7,0.6,1.2,0.6c0.3,0,0.8-0.1,1.4-0.3l0.2,0.5c-0.6,0.2-1.1,0.3-1.5,0.3c-0.7,0-1.3-0.2-1.6-0.7
				c-0.4-0.5-0.6-1.2-0.6-2c0-0.9,0.2-1.5,0.6-2s0.9-0.7,1.6-0.7c0.5,0,1,0.1,1.4,0.2v1.5L250.5,202.4L250.5,202.4z"/>
			<path class="st5" d="M254.3,201.3h-0.9v-0.6h0.9v-1.3l0.6-0.1v1.4h2.1v0.6h-2.1v2.6c0,0.6,0.1,1,0.2,1.2c0.1,0.2,0.3,0.4,0.7,0.4
				s0.7-0.1,1.2-0.2l0.1,0.5c-0.4,0.2-0.8,0.2-1.2,0.2c-0.4,0-0.7,0-0.9-0.1s-0.4-0.2-0.5-0.5s-0.2-0.4-0.2-0.6c0-0.2,0-0.5,0-0.9
				L254.3,201.3L254.3,201.3z"/>
			<path class="st5" d="M260.4,205.9v-1.3h1.2v1.3H260.4z"/>
			<path class="st5" d="M34,220.9v-0.5h1.2v-6.1H34v-0.5h3v0.5h-1.2v6.1H37v0.5H34z"/>
			<path class="st5" d="M40.4,216.3h-0.9v-0.6h0.9v-1.3l0.6-0.1v1.4h2.1v0.6H41v2.6c0,0.6,0.1,1,0.2,1.2c0.1,0.2,0.3,0.4,0.7,0.4
				s0.7-0.1,1.2-0.2l0.1,0.5c-0.4,0.2-0.8,0.2-1.2,0.2s-0.7,0-0.9-0.1s-0.4-0.2-0.5-0.5s-0.2-0.4-0.2-0.6c0-0.2,0-0.5,0-0.9
				C40.4,218.9,40.4,216.3,40.4,216.3z"/>
			<path class="st5" d="M51.4,220.6l0.1-0.6c0.7,0.2,1.3,0.4,1.7,0.4s0.7-0.1,0.9-0.3s0.3-0.4,0.3-0.7s-0.1-0.5-0.3-0.6
				s-0.5-0.3-1.1-0.4c-0.5-0.1-1-0.3-1.2-0.5c-0.3-0.2-0.4-0.5-0.4-1s0.2-0.8,0.5-1s0.8-0.3,1.3-0.3s1.1,0.1,1.7,0.4l-0.2,0.5
				c-0.6-0.2-1.1-0.3-1.5-0.3s-0.7,0.1-0.9,0.2c-0.2,0.1-0.3,0.3-0.3,0.6s0.1,0.4,0.3,0.6s0.6,0.3,1.1,0.4s1,0.3,1.2,0.5
				s0.4,0.6,0.4,1s-0.2,0.8-0.5,1.1s-0.7,0.4-1.3,0.4S52.1,220.9,51.4,220.6z"/>
			<path class="st5" d="M57.9,216.6v4.3h-0.6v-7.3h0.6v2.5c0.7-0.3,1.3-0.5,1.7-0.5c1,0,1.6,0.6,1.6,1.8v3.5h-0.6v-3.5
				c0-0.4-0.1-0.7-0.2-0.9c-0.2-0.2-0.4-0.3-0.8-0.3S58.6,216.3,57.9,216.6z"/>
			<path class="st5" d="M63.1,218.3c0-1.8,0.7-2.7,2.1-2.7c1.4,0,2.1,0.9,2.1,2.7s-0.7,2.7-2.1,2.7C63.8,221,63.1,220.1,63.1,218.3z
				 M65.2,216.2c-1,0-1.5,0.7-1.5,2.1s0.5,2.1,1.5,2.1s1.5-0.7,1.5-2.1S66.2,216.2,65.2,216.2z"/>
			<path class="st5" d="M72.5,220.9v-0.5c-0.7,0.4-1.3,0.5-1.8,0.5s-0.8-0.2-1.1-0.5c-0.3-0.3-0.4-0.8-0.4-1.3v-3.5h0.6v3.5
				c0,0.4,0.1,0.7,0.3,0.9c0.2,0.2,0.4,0.3,0.8,0.3s0.9-0.2,1.6-0.6v-4.2h0.6v5.2h-0.6V220.9z"/>
			<path class="st5" d="M75.5,214.1v-0.5h1.9v6.8h1.3v0.5h-3.3v-0.5h1.4v-6.2L75.5,214.1z"/>
			<path class="st5" d="M85,213.6v6.4l0.1,1l-0.6,0.1l-0.1-0.6c-0.5,0.4-1.1,0.6-1.5,0.6c-0.7,0-1.2-0.2-1.5-0.7s-0.5-1.1-0.5-2
				s0.2-1.5,0.6-2s1-0.7,1.6-0.7c0.4,0,0.8,0.1,1.3,0.3v-2.3H85V213.6z M81.5,218.3c0,0.6,0.1,1.2,0.4,1.6s0.6,0.6,1.1,0.6
				s1-0.2,1.5-0.6v-3.3c-0.2-0.1-0.4-0.1-0.6-0.2c-0.3-0.1-0.5-0.1-0.7-0.1c-0.5,0-0.9,0.2-1.2,0.6
				C81.6,217.1,81.5,217.6,81.5,218.3z"/>
			<path class="st5" d="M93,220.9v-7.3h0.6v2.6c0.5-0.4,1-0.6,1.5-0.6c0.7,0,1.2,0.2,1.5,0.7s0.5,1.1,0.5,1.9s-0.2,1.5-0.6,2
				s-1,0.8-1.7,0.8c-0.4,0-0.9-0.1-1.3-0.3v0.2L93,220.9L93,220.9z M96.5,218.2c0-0.6-0.1-1.1-0.4-1.5s-0.6-0.5-1.1-0.5
				s-1,0.2-1.5,0.6v3.3c0.2,0.1,0.4,0.1,0.6,0.2c0.3,0.1,0.5,0.1,0.7,0.1c0.5,0,0.9-0.2,1.2-0.6C96.4,219.4,96.5,218.8,96.5,218.2z"
				/>
			<path class="st5" d="M98.8,218.3c0-0.8,0.2-1.5,0.5-2s0.9-0.7,1.5-0.7c0.7,0,1.2,0.2,1.5,0.7c0.3,0.4,0.5,1,0.5,1.8v0.5h-3.4
				c0,0.5,0.2,1,0.4,1.3c0.3,0.3,0.6,0.5,1.1,0.5s1-0.1,1.6-0.3l0.2,0.5c-0.6,0.2-1.2,0.3-1.7,0.3c-0.7,0-1.3-0.2-1.6-0.7
				C99,219.8,98.8,219.1,98.8,218.3z M100.9,216.1c-0.9,0-1.4,0.6-1.5,1.9h2.8C102.2,216.8,101.8,216.1,100.9,216.1z"/>
			<path class="st5" d="M111,216.2v-0.5h1.6v0.6c0.2-0.1,0.6-0.3,1-0.4c0.4-0.1,0.8-0.2,1.1-0.3v0.6c-0.3,0-0.7,0.1-1.1,0.2
				c-0.4,0.1-0.8,0.3-1,0.4v3.5h1.8v0.5H111v-0.5h1v-4.1H111z"/>
			<path class="st5" d="M120,220.9v-0.5c-0.7,0.4-1.3,0.5-1.8,0.5s-0.8-0.2-1.1-0.5c-0.3-0.3-0.4-0.8-0.4-1.3v-3.5h0.6v3.5
				c0,0.4,0.1,0.7,0.3,0.9c0.2,0.2,0.4,0.3,0.8,0.3s0.9-0.2,1.6-0.6v-4.2h0.6v5.2H120V220.9z"/>
			<path class="st5" d="M123.2,215.7v0.4c0.7-0.3,1.3-0.5,1.8-0.5s0.8,0.2,1.1,0.5c0.3,0.3,0.4,0.8,0.4,1.3v3.5H126v-3.5
				c0-0.4-0.1-0.7-0.3-0.9c-0.2-0.2-0.4-0.3-0.8-0.3s-0.9,0.2-1.6,0.5v4.2h-0.6v-5.2H123.2z"/>
			<path class="st5" d="M129.2,215.7v0.4c0.7-0.3,1.3-0.5,1.8-0.5s0.8,0.2,1.1,0.5s0.4,0.8,0.4,1.3v3.5h-0.6v-3.5
				c0-0.4-0.1-0.7-0.3-0.9s-0.4-0.3-0.8-0.3s-0.9,0.2-1.6,0.5v4.2h-0.6v-5.2H129.2z"/>
			<path class="st5" d="M135.1,216.2v-0.5h1.9v4.7h1.3v0.5H135v-0.5h1.4v-4.1L135.1,216.2L135.1,216.2z M136.6,214.6
				c-0.1,0-0.2,0-0.3-0.1s-0.1-0.2-0.1-0.4s0-0.3,0.1-0.3c0.1-0.1,0.2-0.1,0.3-0.1s0.2,0,0.3,0.1s0.1,0.2,0.1,0.3s0,0.3-0.1,0.4
				C136.8,214.5,136.7,214.6,136.6,214.6z"/>
			<path class="st5" d="M141.1,215.7v0.4c0.7-0.3,1.3-0.5,1.8-0.5s0.8,0.2,1.1,0.5s0.4,0.8,0.4,1.3v3.5h-0.6v-3.5
				c0-0.4-0.1-0.7-0.3-0.9s-0.4-0.3-0.8-0.3s-0.9,0.2-1.6,0.5v4.2h-0.6v-5.2H141.1z"/>
			<path class="st5" d="M150.3,219.6v1.5c0,0.7-0.2,1.1-0.6,1.5c-0.4,0.3-0.9,0.5-1.5,0.5s-1.2-0.1-2-0.4l0.2-0.5
				c0.7,0.3,1.3,0.4,1.7,0.4s0.8-0.1,1.1-0.3s0.4-0.6,0.4-1c0-0.1,0-0.2,0-0.4s0-0.3,0-0.4c-0.5,0.4-1,0.6-1.5,0.6
				c-0.7,0-1.2-0.2-1.5-0.7c-0.4-0.5-0.5-1.1-0.5-1.9s0.2-1.5,0.6-2s0.9-0.7,1.6-0.7c0.4,0,0.8,0.1,1.3,0.4v-0.3h0.6L150.3,219.6
				L150.3,219.6z M146.8,218.3c0,0.6,0.1,1.1,0.4,1.5c0.2,0.4,0.6,0.5,1.1,0.5s1-0.2,1.5-0.6v-3.1c-0.5-0.3-0.9-0.4-1.3-0.4
				c-0.5,0-0.9,0.2-1.2,0.6S146.8,217.6,146.8,218.3z"/>
			<path class="st5" d="M158.1,218.3c0-1.8,0.7-2.7,2.1-2.7c1.4,0,2.1,0.9,2.1,2.7s-0.7,2.7-2.1,2.7S158.1,220.1,158.1,218.3z
				 M160.2,216.2c-1,0-1.5,0.7-1.5,2.1s0.5,2.1,1.5,2.1s1.5-0.7,1.5-2.1S161.2,216.2,160.2,216.2z"/>
			<path class="st5" d="M164.8,215.7v0.4c0.7-0.3,1.3-0.5,1.8-0.5s0.8,0.2,1.1,0.5s0.4,0.8,0.4,1.3v3.5h-0.6v-3.5
				c0-0.4-0.1-0.7-0.3-0.9s-0.4-0.3-0.8-0.3s-0.9,0.2-1.6,0.5v4.2h-0.6v-5.2H164.8z"/>
			<path class="st5" d="M180.4,218.9v0.6h-1v1.5h-0.6v-1.5h-3V219l1.8-5.1h0.6l-1.7,5h2.3v-2.3h0.6v2.3H180.4z"/>
			<path class="st5" d="M182.5,218.5v-0.6h3.2v0.6H182.5z"/>
			<path class="st5" d="M191.5,217c0.4,0.4,0.5,0.9,0.5,1.6c0,0.7-0.2,1.3-0.6,1.7c-0.4,0.4-1,0.6-1.7,0.6c-0.6,0-1.2-0.2-2-0.5
				l0.2-0.6c0.7,0.3,1.3,0.5,1.8,0.5s0.9-0.2,1.2-0.5s0.4-0.8,0.4-1.3s-0.1-0.9-0.4-1.2s-0.6-0.4-1.1-0.4s-1,0.2-1.5,0.6l-0.4-0.1
				l0.1-3.6h3.7v0.6h-3.1l-0.1,2.4c0.4-0.3,0.9-0.5,1.4-0.5C190.7,216.4,191.2,216.6,191.5,217z"/>
			<path class="st5" d="M200.3,214.1v-0.5h1.9v6.8h1.3v0.5h-3.3v-0.5h1.4v-6.2L200.3,214.1z"/>
			<path class="st5" d="M206.4,216.2v-0.5h1.9v4.7h1.3v0.5h-3.2v-0.5h1.4v-4.1L206.4,216.2L206.4,216.2z M207.9,214.6
				c-0.1,0-0.2,0-0.3-0.1s-0.1-0.2-0.1-0.4s0-0.3,0.1-0.3c0.1-0.1,0.2-0.1,0.3-0.1s0.2,0,0.3,0.1s0.1,0.2,0.1,0.3s0,0.3-0.1,0.4
				C208.1,214.5,208,214.6,207.9,214.6z"/>
			<path class="st5" d="M212.3,215.7v0.4c0.7-0.3,1.3-0.5,1.8-0.5s0.8,0.2,1.1,0.5s0.4,0.8,0.4,1.3v3.5H215v-3.5
				c0-0.4-0.1-0.7-0.3-0.9s-0.4-0.3-0.8-0.3s-0.9,0.2-1.6,0.5v4.2h-0.6v-5.2H212.3z"/>
			<path class="st5" d="M217.6,218.3c0-0.8,0.2-1.5,0.5-2s0.9-0.7,1.5-0.7c0.7,0,1.2,0.2,1.5,0.7c0.3,0.4,0.5,1,0.5,1.8v0.5h-3.4
				c0,0.5,0.2,1,0.4,1.3c0.3,0.3,0.6,0.5,1.1,0.5s1-0.1,1.6-0.3l0.2,0.5c-0.6,0.2-1.2,0.3-1.7,0.3c-0.7,0-1.3-0.2-1.6-0.7
				C217.8,219.8,217.6,219.1,217.6,218.3z M219.7,216.1c-0.9,0-1.4,0.6-1.5,1.9h2.8C221,216.8,220.6,216.1,219.7,216.1z"/>
			<path class="st5" d="M223.7,220.6l0.1-0.6c0.7,0.2,1.3,0.4,1.7,0.4s0.7-0.1,0.9-0.3s0.3-0.4,0.3-0.7s-0.1-0.5-0.3-0.6
				s-0.5-0.3-1.1-0.4c-0.5-0.1-1-0.3-1.2-0.5c-0.3-0.2-0.4-0.5-0.4-1s0.2-0.8,0.5-1s0.8-0.3,1.3-0.3s1.1,0.1,1.7,0.4l-0.2,0.5
				c-0.6-0.2-1.1-0.3-1.5-0.3s-0.7,0.1-0.9,0.2c-0.2,0.1-0.3,0.3-0.3,0.6s0.1,0.4,0.3,0.6s0.6,0.3,1.1,0.4s1,0.3,1.2,0.5
				s0.4,0.6,0.4,1s-0.2,0.8-0.5,1.1s-0.7,0.4-1.3,0.4S224.4,220.9,223.7,220.6z"/>
			<path class="st5" d="M235.4,218.3c0-1.8,0.7-2.7,2.1-2.7c1.4,0,2.1,0.9,2.1,2.7s-0.7,2.7-2.1,2.7
				C236.1,221,235.4,220.1,235.4,218.3z M237.5,216.2c-1,0-1.5,0.7-1.5,2.1s0.5,2.1,1.5,2.1s1.5-0.7,1.5-2.1
				S238.4,216.2,237.5,216.2z"/>
			<path class="st5" d="M242.6,216.2h-1v-0.5h1c0-1.5,0.5-2.2,1.6-2.2c0.4,0,0.7,0.1,1.2,0.2l-0.1,0.6c-0.4-0.1-0.7-0.2-1-0.2
				c-0.4,0-0.7,0.1-0.8,0.4c-0.2,0.3-0.2,0.7-0.2,1.2h2v0.5h-2v4.1h2v0.5h-3.7v-0.5h1.1v-4.1H242.6z"/>
			<path class="st5" d="M254.3,216.3h-0.9v-0.6h0.9v-1.3l0.6-0.1v1.4h2.1v0.6h-2.1v2.6c0,0.6,0.1,1,0.2,1.2c0.1,0.2,0.3,0.4,0.7,0.4
				s0.7-0.1,1.2-0.2l0.1,0.5c-0.4,0.2-0.8,0.2-1.2,0.2c-0.4,0-0.7,0-0.9-0.1s-0.4-0.2-0.5-0.5s-0.2-0.4-0.2-0.6c0-0.2,0-0.5,0-0.9
				L254.3,216.3L254.3,216.3z"/>
			<path class="st5" d="M259.2,218.3c0-0.8,0.2-1.5,0.5-2s0.9-0.7,1.5-0.7c0.7,0,1.2,0.2,1.5,0.7c0.3,0.4,0.5,1,0.5,1.8v0.5h-3.4
				c0,0.5,0.2,1,0.4,1.3c0.3,0.3,0.6,0.5,1.1,0.5s1-0.1,1.6-0.3l0.2,0.5c-0.6,0.2-1.2,0.3-1.7,0.3c-0.7,0-1.3-0.2-1.6-0.7
				C259.4,219.8,259.2,219.1,259.2,218.3z M261.3,216.1c-0.9,0-1.4,0.6-1.5,1.9h2.8C262.6,216.8,262.2,216.1,261.3,216.1z"/>
			<path class="st5" d="M265.1,215.7h0.8l1.3,2.2l1.3-2.2h0.7l-1.6,2.6l1.7,2.7h-0.7l-1.4-2.2l-1.4,2.2H265l1.8-2.7L265.1,215.7z"/>
			<path class="st5" d="M272.1,216.3h-0.9v-0.6h0.9v-1.3l0.6-0.1v1.4h2.1v0.6h-2.1v2.6c0,0.6,0.1,1,0.2,1.2s0.3,0.4,0.7,0.4
				s0.7-0.1,1.2-0.2l0.1,0.5c-0.4,0.2-0.8,0.2-1.2,0.2s-0.7,0-0.9-0.1c-0.2-0.1-0.4-0.2-0.5-0.5s-0.2-0.4-0.2-0.6c0-0.2,0-0.5,0-0.9
				L272.1,216.3L272.1,216.3z"/>
			<path class="st5" d="M278.2,220.9v-1.2h1v0.9c0,0.7-0.3,1.3-0.8,1.9l-0.3-0.3c0.3-0.5,0.5-0.9,0.5-1.3L278.2,220.9L278.2,220.9z"
				/>
			<path class="st5" d="M290.6,221c-0.5,0-1-0.1-1.3-0.4s-0.5-0.7-0.5-1.2s0.2-0.9,0.5-1.2s0.8-0.4,1.3-0.4c0.6,0,1,0,1.5,0.1
				c0-0.7-0.1-1.1-0.2-1.3c-0.2-0.2-0.5-0.4-1-0.4s-1.1,0.1-1.7,0.4L289,216c0.7-0.2,1.3-0.4,1.8-0.4c0.7,0,1.2,0.2,1.5,0.5
				s0.4,0.9,0.4,1.7v2.3l0.1,0.8l-0.6,0.1l-0.1-0.7c-0.2,0.1-0.4,0.3-0.7,0.4C291.1,220.9,290.8,221,290.6,221z M290.6,220.4
				c0.3,0,0.6-0.1,0.9-0.3s0.6-0.3,0.7-0.5v-1.3c-0.5,0-0.9-0.1-1.4-0.1c-0.4,0-0.8,0.1-1,0.3s-0.3,0.4-0.3,0.8
				C289.4,220,289.8,220.4,290.6,220.4z"/>
			<path class="st5" d="M295.5,215.7v0.4c0.7-0.3,1.3-0.5,1.8-0.5s0.8,0.2,1.1,0.5c0.3,0.3,0.4,0.8,0.4,1.3v3.5h-0.6v-3.5
				c0-0.4-0.1-0.7-0.3-0.9c-0.2-0.2-0.4-0.3-0.8-0.3s-0.9,0.2-1.6,0.5v4.2h-0.6v-5.2H295.5z"/>
			<path class="st5" d="M304.8,213.6v6.4l0.1,1l-0.6,0.1l-0.1-0.6c-0.5,0.4-1.1,0.6-1.5,0.6c-0.7,0-1.2-0.2-1.5-0.7s-0.5-1.1-0.5-2
				s0.2-1.5,0.6-2s1-0.7,1.6-0.7c0.4,0,0.8,0.1,1.3,0.3v-2.3h0.6V213.6z M301.2,218.3c0,0.6,0.1,1.2,0.4,1.6s0.6,0.6,1.1,0.6
				s1-0.2,1.5-0.6v-3.3c-0.2-0.1-0.4-0.1-0.6-0.2c-0.3-0.1-0.5-0.1-0.7-0.1c-0.5,0-0.9,0.2-1.2,0.6
				C301.4,217.1,301.2,217.6,301.2,218.3z"/>
			<path class="st5" d="M312.8,220.9v-7.3h0.6v2.6c0.5-0.4,1-0.6,1.5-0.6c0.7,0,1.2,0.2,1.5,0.7s0.5,1.1,0.5,1.9s-0.2,1.5-0.6,2
				s-1,0.8-1.7,0.8c-0.4,0-0.9-0.1-1.3-0.3v0.2L312.8,220.9L312.8,220.9z M316.3,218.2c0-0.6-0.1-1.1-0.4-1.5s-0.6-0.5-1.1-0.5
				s-1,0.2-1.5,0.6v3.3c0.2,0.1,0.4,0.1,0.6,0.2c0.3,0.1,0.5,0.1,0.7,0.1c0.5,0,0.9-0.2,1.2-0.6
				C316.1,219.4,316.3,218.8,316.3,218.2z"/>
			<path class="st5" d="M318.6,218.3c0-0.8,0.2-1.5,0.5-2s0.9-0.7,1.5-0.7c0.7,0,1.2,0.2,1.5,0.7c0.3,0.4,0.5,1,0.5,1.8v0.5h-3.4
				c0,0.5,0.2,1,0.4,1.3c0.3,0.3,0.6,0.5,1.1,0.5s1-0.1,1.6-0.3l0.2,0.5c-0.6,0.2-1.2,0.3-1.7,0.3c-0.7,0-1.3-0.2-1.6-0.7
				C318.8,219.8,318.6,219.1,318.6,218.3z M320.7,216.1c-0.9,0-1.4,0.6-1.5,1.9h2.8C322,216.8,321.6,216.1,320.7,216.1z"/>
			<path class="st5" d="M325,214.1v-0.5h1.9v6.8h1.3v0.5H325v-0.5h1.4v-6.2L325,214.1z"/>
			<path class="st5" d="M330.4,218.3c0-1.8,0.7-2.7,2.1-2.7s2.1,0.9,2.1,2.7s-0.7,2.7-2.1,2.7S330.4,220.1,330.4,218.3z
				 M332.5,216.2c-1,0-1.5,0.7-1.5,2.1s0.5,2.1,1.5,2.1s1.5-0.7,1.5-2.1S333.5,216.2,332.5,216.2z"/>
			<path class="st5" d="M340.2,215.7h0.6l-0.6,5.2H339l-0.6-2.3l0,0l-0.6,2.3h-1.2l-0.6-5.2h0.6l0.6,4.7h0.2l0.7-2.7h0.6l0.7,2.7
				h0.2L340.2,215.7z"/>
			<path class="st5" d="M349,216.6v4.3h-0.6v-7.3h0.6v2.5c0.7-0.3,1.3-0.5,1.7-0.5c1,0,1.6,0.6,1.6,1.8v3.5h-0.6v-3.5
				c0-0.4-0.1-0.7-0.2-0.9c-0.2-0.2-0.4-0.3-0.8-0.3S349.7,216.3,349,216.6z"/>
			<path class="st5" d="M354.2,218.3c0-0.8,0.2-1.5,0.5-2s0.9-0.7,1.5-0.7c0.7,0,1.2,0.2,1.5,0.7c0.3,0.4,0.5,1,0.5,1.8v0.5h-3.4
				c0,0.5,0.2,1,0.4,1.3c0.3,0.3,0.6,0.5,1.1,0.5s1-0.1,1.6-0.3l0.2,0.5c-0.6,0.2-1.2,0.3-1.7,0.3c-0.7,0-1.3-0.2-1.6-0.7
				C354.4,219.8,354.2,219.1,354.2,218.3z M356.3,216.1c-0.9,0-1.4,0.6-1.5,1.9h2.8C357.6,216.8,357.2,216.1,356.3,216.1z"/>
			<path class="st5" d="M360.4,216.2v-0.5h1.6v0.6c0.2-0.1,0.6-0.3,1-0.4c0.4-0.1,0.8-0.2,1.1-0.3v0.6c-0.3,0-0.7,0.1-1.1,0.2
				c-0.4,0.1-0.8,0.3-1,0.4v3.5h1.8v0.5h-3.4v-0.5h1v-4.1H360.4z"/>
			<path class="st5" d="M366.1,218.3c0-0.8,0.2-1.5,0.5-2s0.9-0.7,1.5-0.7c0.7,0,1.2,0.2,1.5,0.7c0.3,0.4,0.5,1,0.5,1.8v0.5h-3.4
				c0,0.5,0.2,1,0.4,1.3c0.3,0.3,0.6,0.5,1.1,0.5s1-0.1,1.6-0.3l0.2,0.5c-0.6,0.2-1.2,0.3-1.7,0.3c-0.7,0-1.3-0.2-1.6-0.7
				C366.3,219.8,366.1,219.1,366.1,218.3z M368.2,216.1c-0.9,0-1.4,0.6-1.5,1.9h2.8C369.5,216.8,369.1,216.1,368.2,216.1z"/>
			<path class="st5" d="M37.5,234.6v1.5c0,0.7-0.2,1.1-0.6,1.5c-0.4,0.3-0.9,0.5-1.5,0.5s-1.2-0.1-2-0.4l0.2-0.5
				c0.7,0.3,1.3,0.4,1.7,0.4s0.8-0.1,1.1-0.3s0.4-0.6,0.4-1c0-0.1,0-0.2,0-0.4s0-0.3,0-0.4c-0.5,0.4-1,0.6-1.5,0.6
				c-0.7,0-1.2-0.2-1.5-0.7c-0.4-0.5-0.5-1.1-0.5-1.9s0.2-1.5,0.6-2s0.9-0.7,1.6-0.7c0.4,0,0.8,0.1,1.3,0.4v-0.3h0.6v3.7H37.5z
				 M33.9,233.3c0,0.6,0.1,1.1,0.4,1.5c0.2,0.4,0.6,0.5,1.1,0.5s1-0.2,1.5-0.6v-3.1c-0.5-0.3-0.9-0.4-1.3-0.4
				c-0.5,0-0.9,0.2-1.2,0.6S33.9,232.6,33.9,233.3z"/>
			<path class="st5" d="M39.3,233.3c0-1.8,0.7-2.7,2.1-2.7c1.4,0,2.1,0.9,2.1,2.7s-0.7,2.7-2.1,2.7S39.3,235.1,39.3,233.3z
				 M41.4,231.2c-1,0-1.5,0.7-1.5,2.1s0.5,2.1,1.5,2.1s1.5-0.7,1.5-2.1S42.4,231.2,41.4,231.2z"/>
			<path class="st5" d="M45.4,233.3c0-0.8,0.2-1.5,0.5-2s0.9-0.7,1.5-0.7c0.7,0,1.2,0.2,1.5,0.7c0.3,0.4,0.5,1,0.5,1.8v0.5H46
				c0,0.5,0.2,1,0.4,1.3c0.3,0.3,0.6,0.5,1.1,0.5s1-0.1,1.6-0.3l0.2,0.5c-0.6,0.2-1.2,0.3-1.7,0.3c-0.7,0-1.3-0.2-1.6-0.7
				C45.6,234.8,45.4,234.1,45.4,233.3z M47.5,231.1c-0.9,0-1.4,0.6-1.5,1.9h2.8C48.8,231.8,48.3,231.1,47.5,231.1z"/>
			<path class="st5" d="M51.4,235.6l0.1-0.6c0.7,0.2,1.3,0.4,1.7,0.4s0.7-0.1,0.9-0.3s0.3-0.4,0.3-0.7s-0.1-0.5-0.3-0.6
				s-0.5-0.3-1.1-0.4c-0.5-0.1-1-0.3-1.2-0.5c-0.3-0.2-0.4-0.5-0.4-1s0.2-0.8,0.5-1s0.8-0.3,1.3-0.3s1.1,0.1,1.7,0.4l-0.2,0.5
				c-0.6-0.2-1.1-0.3-1.5-0.3s-0.7,0.1-0.9,0.2c-0.2,0.1-0.3,0.3-0.3,0.6s0.1,0.4,0.3,0.6s0.6,0.3,1.1,0.4s1,0.3,1.2,0.5
				s0.4,0.6,0.4,1s-0.2,0.8-0.5,1.1s-0.7,0.4-1.3,0.4S52.1,235.9,51.4,235.6z"/>
			<path class="st5" d="M64.8,236c-0.5,0-1-0.1-1.3-0.4s-0.5-0.7-0.5-1.2s0.2-0.9,0.5-1.2s0.8-0.4,1.3-0.4c0.6,0,1,0,1.5,0.1
				c0-0.7-0.1-1.1-0.2-1.3c-0.2-0.2-0.5-0.4-1-0.4s-1.1,0.1-1.7,0.4l-0.2-0.5c0.7-0.2,1.3-0.4,1.8-0.4c0.7,0,1.2,0.2,1.5,0.5
				s0.4,0.9,0.4,1.7v2.3L67,236l-0.6,0.1l-0.1-0.7c-0.2,0.1-0.4,0.3-0.7,0.4C65.4,235.9,65.1,236,64.8,236z M64.8,235.4
				c0.3,0,0.6-0.1,0.9-0.3s0.6-0.3,0.7-0.5v-1.3c-0.5,0-0.9-0.1-1.4-0.1c-0.4,0-0.8,0.1-1,0.3c-0.2,0.2-0.3,0.4-0.3,0.8
				C63.7,235,64.1,235.4,64.8,235.4z"/>
			<path class="st5" d="M75.2,235.9l-0.8-7.2H75l0.7,6.7h0.1l1-3.5h0.6l0.9,3.5h0.1l0.7-6.7h0.6l-0.8,7.2h-1.1l-0.8-3.1l0,0
				l-0.8,3.1H75.2z"/>
			<path class="st5" d="M81.6,231.2v-0.5h1.9v4.7h1.3v0.5h-3.2v-0.5H83v-4.1L81.6,231.2L81.6,231.2z M83.1,229.6
				c-0.1,0-0.2,0-0.3-0.1c-0.1-0.1-0.1-0.2-0.1-0.4s0-0.3,0.1-0.3c0.1-0.1,0.2-0.1,0.3-0.1c0.1,0,0.2,0,0.3,0.1
				c0.1,0.1,0.1,0.2,0.1,0.3s0,0.3-0.1,0.4C83.4,229.5,83.3,229.6,83.1,229.6z"/>
			<path class="st5" d="M90.2,230.7h0.7c-0.5,0.8-1.1,1.6-1.8,2.4c0.5,0.6,1.1,1.6,1.8,2.8h-0.7c-0.6-1-1.1-1.8-1.6-2.4l-0.8,0.1
				v2.3h-0.6v-7.3h0.6v4.4l0.7-0.1C89.1,232.2,89.6,231.5,90.2,230.7z"/>
			<path class="st5" d="M93.5,231.2v-0.5h1.9v4.7h1.3v0.5h-3.2v-0.5h1.4v-4.1L93.5,231.2L93.5,231.2z M95,229.6
				c-0.1,0-0.2,0-0.3-0.1c-0.1-0.1-0.1-0.2-0.1-0.4s0-0.3,0.1-0.3c0.1-0.1,0.2-0.1,0.3-0.1c0.1,0,0.2,0,0.3,0.1
				c0.1,0.1,0.1,0.2,0.1,0.3s0,0.3-0.1,0.4C95.3,229.5,95.1,229.6,95,229.6z"/>
			<path class="st5" d="M98.9,238v-6.4l-0.1-1l0.5-0.1l0.1,0.6c0.5-0.4,1-0.6,1.5-0.6c0.7,0,1.2,0.2,1.5,0.7s0.5,1.1,0.5,2
				s-0.2,1.5-0.6,2s-0.9,0.7-1.7,0.7c-0.4,0-0.8-0.1-1.3-0.3v2.3h-0.4V238z M102.4,233.3c0-0.6-0.1-1.2-0.4-1.6s-0.6-0.6-1.1-0.6
				s-1,0.2-1.5,0.6v3.3c0.2,0.1,0.4,0.1,0.6,0.2c0.3,0.1,0.5,0.1,0.7,0.1c0.5,0,0.9-0.2,1.2-0.6
				C102.3,234.5,102.4,233.9,102.4,233.3z"/>
			<path class="st5" d="M104.8,233.3c0-0.8,0.2-1.5,0.5-2s0.9-0.7,1.5-0.7c0.7,0,1.2,0.2,1.5,0.7c0.3,0.4,0.5,1,0.5,1.8v0.5h-3.4
				c0,0.5,0.2,1,0.4,1.3c0.3,0.3,0.6,0.5,1.1,0.5s1-0.1,1.6-0.3l0.2,0.5c-0.6,0.2-1.2,0.3-1.7,0.3c-0.7,0-1.3-0.2-1.6-0.7
				C105,234.8,104.8,234.1,104.8,233.3z M106.9,231.1c-0.9,0-1.4,0.6-1.5,1.9h2.8C108.2,231.8,107.7,231.1,106.9,231.1z"/>
			<path class="st5" d="M114.7,228.6v6.4l0.1,1l-0.6,0.1l-0.1-0.6c-0.5,0.4-1.1,0.6-1.5,0.6c-0.7,0-1.2-0.2-1.5-0.7s-0.5-1.1-0.5-2
				s0.2-1.5,0.6-2s1-0.7,1.6-0.7c0.4,0,0.8,0.1,1.3,0.3v-2.3h0.6V228.6z M111.2,233.3c0,0.6,0.1,1.2,0.4,1.6s0.6,0.6,1.1,0.6
				s1-0.2,1.5-0.6v-3.3c-0.2-0.1-0.4-0.1-0.6-0.2c-0.3-0.1-0.5-0.1-0.7-0.1c-0.5,0-0.9,0.2-1.2,0.6
				C111.3,232.1,111.2,232.6,111.2,233.3z"/>
			<path class="st5" d="M117.3,231.2v-0.5h1.9v4.7h1.3v0.5h-3.2v-0.5h1.4v-4.1L117.3,231.2L117.3,231.2z M118.8,229.6
				c-0.1,0-0.2,0-0.3-0.1c-0.1-0.1-0.1-0.2-0.1-0.4s0-0.3,0.1-0.3c0.1-0.1,0.2-0.1,0.3-0.1c0.1,0,0.2,0,0.3,0.1
				c0.1,0.1,0.1,0.2,0.1,0.3s0,0.3-0.1,0.4C119,229.5,118.9,229.6,118.8,229.6z"/>
			<path class="st5" d="M124.2,236c-0.5,0-1-0.1-1.3-0.4s-0.5-0.7-0.5-1.2s0.2-0.9,0.5-1.2s0.8-0.4,1.3-0.4c0.6,0,1,0,1.5,0.1
				c0-0.7-0.1-1.1-0.2-1.3c-0.2-0.2-0.5-0.4-1-0.4s-1.1,0.1-1.7,0.4l-0.2-0.5c0.7-0.2,1.3-0.4,1.8-0.4c0.7,0,1.2,0.2,1.5,0.5
				s0.4,0.9,0.4,1.7v2.3l0.1,0.8l-0.6,0.1l-0.1-0.7c-0.2,0.1-0.4,0.3-0.7,0.4C124.8,235.9,124.5,236,124.2,236z M124.2,235.4
				c0.3,0,0.6-0.1,0.9-0.3s0.6-0.3,0.7-0.5v-1.3c-0.5,0-0.9-0.1-1.4-0.1c-0.4,0-0.8,0.1-1,0.3s-0.3,0.4-0.3,0.8
				C123.1,235,123.5,235.4,124.2,235.4z"/>
			<path class="st5" d="M134.6,235.9v-7.3h0.6v2.6c0.5-0.4,1-0.6,1.5-0.6c0.7,0,1.2,0.2,1.5,0.7s0.5,1.1,0.5,1.9s-0.2,1.5-0.6,2
				c-0.4,0.5-1,0.8-1.7,0.8c-0.4,0-0.9-0.1-1.3-0.3v0.2L134.6,235.9L134.6,235.9z M138.1,233.2c0-0.6-0.1-1.1-0.4-1.5
				c-0.3-0.4-0.6-0.5-1.1-0.5s-1,0.2-1.5,0.6v3.3c0.2,0.1,0.4,0.1,0.6,0.2c0.3,0.1,0.5,0.1,0.7,0.1c0.5,0,0.9-0.2,1.2-0.6
				C137.9,234.4,138.1,233.8,138.1,233.2z"/>
			<path class="st5" d="M140.3,233.3c0-1.8,0.7-2.7,2.1-2.7c1.4,0,2.1,0.9,2.1,2.7s-0.7,2.7-2.1,2.7S140.3,235.1,140.3,233.3z
				 M142.4,231.2c-1,0-1.5,0.7-1.5,2.1s0.5,2.1,1.5,2.1s1.5-0.7,1.5-2.1S143.4,231.2,142.4,231.2z"/>
			<path class="st5" d="M146.3,230.7h0.8l1.3,2.2l1.3-2.2h0.7l-1.6,2.6l1.7,2.7h-0.7l-1.4-2.2L147,236h-0.7l1.8-2.7L146.3,230.7z"/>
			<path class="st5" d="M153.4,235.9v-1.2h1v0.9c0,0.7-0.3,1.3-0.8,1.9l-0.3-0.3c0.3-0.5,0.5-0.9,0.5-1.3L153.4,235.9L153.4,235.9z"
				/>
			<path class="st5" d="M168,230.7h0.6l-0.6,5.2h-1.2l-0.6-2.3l0,0l-0.6,2.3h-1.2l-0.6-5.2h0.6l0.6,4.7h0.2l0.7-2.7h0.6l0.7,2.7h0.2
				L168,230.7z"/>
			<path class="st5" d="M170.8,231.6v4.3h-0.6v-7.3h0.6v2.5c0.7-0.3,1.3-0.5,1.7-0.5c1,0,1.6,0.6,1.6,1.8v3.5h-0.6v-3.5
				c0-0.4-0.1-0.7-0.2-0.9c-0.2-0.2-0.4-0.3-0.8-0.3S171.5,231.3,170.8,231.6z"/>
			<path class="st5" d="M176,233.3c0-0.8,0.2-1.5,0.5-2s0.9-0.7,1.5-0.7c0.7,0,1.2,0.2,1.5,0.7c0.3,0.4,0.5,1,0.5,1.8v0.5h-3.4
				c0,0.5,0.2,1,0.4,1.3c0.3,0.3,0.6,0.5,1.1,0.5s1-0.1,1.6-0.3l0.2,0.5c-0.6,0.2-1.2,0.3-1.7,0.3c-0.7,0-1.3-0.2-1.6-0.7
				C176.2,234.8,176,234.1,176,233.3z M178.1,231.1c-0.9,0-1.4,0.6-1.5,1.9h2.8C179.4,231.8,179,231.1,178.1,231.1z"/>
			<path class="st5" d="M182.2,231.2v-0.5h1.6v0.6c0.2-0.1,0.6-0.3,1-0.4c0.4-0.1,0.8-0.2,1.1-0.3v0.6c-0.3,0-0.7,0.1-1.1,0.2
				c-0.4,0.1-0.8,0.3-1,0.4v3.5h1.8v0.5h-3.4v-0.5h1v-4.1H182.2z"/>
			<path class="st5" d="M187.9,233.3c0-0.8,0.2-1.5,0.5-2s0.9-0.7,1.5-0.7c0.7,0,1.2,0.2,1.5,0.7c0.3,0.4,0.5,1,0.5,1.8v0.5h-3.4
				c0,0.5,0.2,1,0.4,1.3c0.3,0.3,0.6,0.5,1.1,0.5s1-0.1,1.6-0.3l0.2,0.5c-0.6,0.2-1.2,0.3-1.7,0.3c-0.7,0-1.3-0.2-1.6-0.7
				C188.1,234.8,187.9,234.1,187.9,233.3z M190,231.1c-0.9,0-1.4,0.6-1.5,1.9h2.8C191.3,231.8,190.9,231.1,190,231.1z"/>
			<path class="st5" d="M203,232.4v-1.1c-0.4-0.1-0.6-0.1-0.9-0.1c-0.5,0-0.9,0.2-1.2,0.6c-0.3,0.4-0.4,0.9-0.4,1.6s0.1,1.2,0.4,1.6
				c0.3,0.4,0.7,0.6,1.2,0.6c0.3,0,0.8-0.1,1.4-0.3l0.2,0.5c-0.6,0.2-1.1,0.3-1.5,0.3c-0.7,0-1.3-0.2-1.6-0.7
				c-0.4-0.5-0.6-1.2-0.6-2c0-0.9,0.2-1.5,0.6-2s0.9-0.7,1.6-0.7c0.5,0,1,0.1,1.4,0.2v1.5L203,232.4L203,232.4z"/>
			<path class="st5" d="M205.7,233.3c0-1.8,0.7-2.7,2.1-2.7c1.4,0,2.1,0.9,2.1,2.7s-0.7,2.7-2.1,2.7S205.7,235.1,205.7,233.3z
				 M207.8,231.2c-1,0-1.5,0.7-1.5,2.1s0.5,2.1,1.5,2.1s1.5-0.7,1.5-2.1S208.7,231.2,207.8,231.2z"/>
			<path class="st5" d="M212.3,230.7v0.4c0.7-0.3,1.3-0.5,1.8-0.5s0.8,0.2,1.1,0.5s0.4,0.8,0.4,1.3v3.5H215v-3.5
				c0-0.4-0.1-0.7-0.3-0.9s-0.4-0.3-0.8-0.3s-0.9,0.2-1.6,0.5v4.2h-0.6v-5.2H212.3z"/>
			<path class="st5" d="M218.6,231.3h-0.9v-0.6h0.9v-1.3l0.6-0.1v1.4h2.1v0.6h-2.1v2.6c0,0.6,0.1,1,0.2,1.2c0.1,0.2,0.3,0.4,0.7,0.4
				s0.7-0.1,1.2-0.2l0.1,0.5c-0.4,0.2-0.8,0.2-1.2,0.2s-0.7,0-0.9-0.1s-0.4-0.2-0.5-0.5s-0.2-0.4-0.2-0.6c0-0.2,0-0.5,0-0.9
				L218.6,231.3L218.6,231.3z"/>
			<path class="st5" d="M223.6,233.3c0-0.8,0.2-1.5,0.5-2s0.9-0.7,1.5-0.7c0.7,0,1.2,0.2,1.5,0.7c0.3,0.4,0.5,1,0.5,1.8v0.5h-3.4
				c0,0.5,0.2,1,0.4,1.3c0.3,0.3,0.6,0.5,1.1,0.5s1-0.1,1.6-0.3l0.2,0.5c-0.6,0.2-1.2,0.3-1.7,0.3c-0.7,0-1.3-0.2-1.6-0.7
				C223.8,234.8,223.6,234.1,223.6,233.3z M225.7,231.1c-0.9,0-1.4,0.6-1.5,1.9h2.8C227,231.8,226.5,231.1,225.7,231.1z"/>
			<path class="st5" d="M230.2,230.7v0.4c0.7-0.3,1.3-0.5,1.8-0.5s0.8,0.2,1.1,0.5s0.4,0.8,0.4,1.3v3.5h-0.6v-3.5
				c0-0.4-0.1-0.7-0.3-0.9s-0.4-0.3-0.8-0.3s-0.9,0.2-1.6,0.5v4.2h-0.6v-5.2H230.2z"/>
			<path class="st5" d="M236.5,231.3h-0.9v-0.6h0.9v-1.3l0.6-0.1v1.4h2.1v0.6H237v2.6c0,0.6,0.1,1,0.2,1.2c0.1,0.2,0.3,0.4,0.7,0.4
				s0.7-0.1,1.2-0.2l0.1,0.5c-0.4,0.2-0.8,0.2-1.2,0.2s-0.7,0-0.9-0.1s-0.4-0.2-0.5-0.5s-0.2-0.4-0.2-0.6c0-0.2,0-0.5,0-0.9
				L236.5,231.3L236.5,231.3z"/>
			<path class="st5" d="M247.9,231.2v-0.5h1.9v4.7h1.3v0.5h-3.2v-0.5h1.4v-4.1L247.9,231.2L247.9,231.2z M249.5,229.6
				c-0.1,0-0.2,0-0.3-0.1s-0.1-0.2-0.1-0.4s0-0.3,0.1-0.3c0.1-0.1,0.2-0.1,0.3-0.1s0.2,0,0.3,0.1s0.1,0.2,0.1,0.3s0,0.3-0.1,0.4
				C249.7,229.5,249.6,229.6,249.5,229.6z"/>
			<path class="st5" d="M253.4,235.6l0.1-0.6c0.7,0.2,1.3,0.4,1.7,0.4s0.7-0.1,0.9-0.3s0.3-0.4,0.3-0.7s-0.1-0.5-0.3-0.6
				s-0.5-0.3-1.1-0.4c-0.5-0.1-1-0.3-1.2-0.5c-0.3-0.2-0.4-0.5-0.4-1s0.2-0.8,0.5-1s0.8-0.3,1.3-0.3s1.1,0.1,1.7,0.4l-0.2,0.5
				c-0.6-0.2-1.1-0.3-1.5-0.3s-0.7,0.1-0.9,0.2c-0.2,0.1-0.3,0.3-0.3,0.6s0.1,0.4,0.3,0.6s0.6,0.3,1.1,0.4c0.6,0.1,1,0.3,1.2,0.5
				s0.4,0.6,0.4,1s-0.2,0.8-0.5,1.1s-0.7,0.4-1.3,0.4S254.1,235.9,253.4,235.6z"/>
			<path class="st5" d="M265.6,229.1v-0.5h1.9v6.8h1.3v0.5h-3.3v-0.5h1.4v-6.2L265.6,229.1z"/>
			<path class="st5" d="M271,233.3c0-1.8,0.7-2.7,2.1-2.7s2.1,0.9,2.1,2.7s-0.7,2.7-2.1,2.7S271,235.1,271,233.3z M273.1,231.2
				c-1,0-1.5,0.7-1.5,2.1s0.5,2.1,1.5,2.1s1.5-0.7,1.5-2.1S274.1,231.2,273.1,231.2z"/>
			<path class="st5" d="M278.7,236c-0.5,0-1-0.1-1.3-0.4s-0.5-0.7-0.5-1.2s0.2-0.9,0.5-1.2s0.8-0.4,1.3-0.4c0.6,0,1,0,1.5,0.1
				c0-0.7-0.1-1.1-0.2-1.3c-0.2-0.2-0.5-0.4-1-0.4s-1.1,0.1-1.7,0.4l-0.2-0.5c0.7-0.2,1.3-0.4,1.8-0.4c0.7,0,1.2,0.2,1.5,0.5
				s0.4,0.9,0.4,1.7v2.3l0.1,0.8l-0.6,0.1l-0.1-0.7c-0.2,0.1-0.4,0.3-0.7,0.4C279.2,235.9,279,236,278.7,236z M278.7,235.4
				c0.3,0,0.6-0.1,0.9-0.3s0.6-0.3,0.7-0.5v-1.3c-0.5,0-0.9-0.1-1.4-0.1c-0.4,0-0.8,0.1-1,0.3s-0.3,0.4-0.3,0.8
				C277.6,235,277.9,235.4,278.7,235.4z"/>
			<path class="st5" d="M286.9,228.6v6.4l0.1,1l-0.6,0.1l-0.1-0.6c-0.5,0.4-1.1,0.6-1.5,0.6c-0.7,0-1.2-0.2-1.5-0.7s-0.5-1.1-0.5-2
				s0.2-1.5,0.6-2s1-0.7,1.6-0.7c0.4,0,0.8,0.1,1.3,0.3v-2.3h0.6V228.6z M283.4,233.3c0,0.6,0.1,1.2,0.4,1.6s0.6,0.6,1.1,0.6
				s1-0.2,1.5-0.6v-3.3c-0.2-0.1-0.4-0.1-0.6-0.2c-0.3-0.1-0.5-0.1-0.7-0.1c-0.5,0-0.9,0.2-1.2,0.6
				C283.6,232.1,283.4,232.6,283.4,233.3z"/>
			<path class="st5" d="M288.9,233.3c0-0.8,0.2-1.5,0.5-2s0.9-0.7,1.5-0.7c0.7,0,1.2,0.2,1.5,0.7c0.3,0.4,0.5,1,0.5,1.8v0.5h-3.4
				c0,0.5,0.2,1,0.4,1.3c0.3,0.3,0.6,0.5,1.1,0.5s1-0.1,1.6-0.3l0.2,0.5c-0.6,0.2-1.2,0.3-1.7,0.3c-0.7,0-1.3-0.2-1.6-0.7
				C289.1,234.8,288.9,234.1,288.9,233.3z M291,231.1c-0.9,0-1.4,0.6-1.5,1.9h2.8C292.3,231.8,291.9,231.1,291,231.1z"/>
			<path class="st5" d="M298.8,228.6v6.4l0.1,1l-0.6,0.1l-0.1-0.6c-0.5,0.4-1.1,0.6-1.5,0.6c-0.7,0-1.2-0.2-1.5-0.7s-0.5-1.1-0.5-2
				s0.2-1.5,0.6-2s1-0.7,1.6-0.7c0.4,0,0.8,0.1,1.3,0.3v-2.3h0.6V228.6z M295.3,233.3c0,0.6,0.1,1.2,0.4,1.6s0.6,0.6,1.1,0.6
				s1-0.2,1.5-0.6v-3.3c-0.2-0.1-0.4-0.1-0.6-0.2c-0.3-0.1-0.5-0.1-0.7-0.1c-0.5,0-0.9,0.2-1.2,0.6
				C295.4,232.1,295.3,232.6,295.3,233.3z"/>
			<path class="st5" d="M310.7,228.6v6.4l0.1,1l-0.6,0.1l-0.1-0.6c-0.5,0.4-1.1,0.6-1.5,0.6c-0.7,0-1.2-0.2-1.5-0.7s-0.5-1.1-0.5-2
				s0.2-1.5,0.6-2s1-0.7,1.6-0.7c0.4,0,0.8,0.1,1.3,0.3v-2.3h0.6V228.6z M307.2,233.3c0,0.6,0.1,1.2,0.4,1.6s0.6,0.6,1.1,0.6
				s1-0.2,1.5-0.6v-3.3c-0.2-0.1-0.4-0.1-0.6-0.2c-0.3-0.1-0.5-0.1-0.7-0.1c-0.5,0-0.9,0.2-1.2,0.6
				C307.3,232.1,307.2,232.6,307.2,233.3z"/>
			<path class="st5" d="M312.5,230.7h0.7l1.6,4.4h0.1l1.4-4.4h0.7l-2,6.1c-0.2,0.6-0.4,1-0.6,1.1s-0.6,0.2-1.3,0.3v-0.6
				c0.4,0,0.7-0.1,0.8-0.2c0.1-0.1,0.3-0.3,0.4-0.7l0.3-0.8L312.5,230.7z"/>
			<path class="st5" d="M319.3,230.7v0.4c0.7-0.3,1.3-0.5,1.8-0.5s0.8,0.2,1.1,0.5c0.3,0.3,0.4,0.8,0.4,1.3v3.5H322v-3.5
				c0-0.4-0.1-0.7-0.3-0.9c-0.2-0.2-0.4-0.3-0.8-0.3s-0.9,0.2-1.6,0.5v4.2h-0.6v-5.2H319.3z"/>
			<path class="st5" d="M326.2,236c-0.5,0-1-0.1-1.3-0.4s-0.5-0.7-0.5-1.2s0.2-0.9,0.5-1.2s0.8-0.4,1.3-0.4c0.6,0,1,0,1.5,0.1
				c0-0.7-0.1-1.1-0.2-1.3c-0.2-0.2-0.5-0.4-1-0.4s-1.1,0.1-1.7,0.4l-0.2-0.5c0.7-0.2,1.3-0.4,1.8-0.4c0.7,0,1.2,0.2,1.5,0.5
				s0.4,0.9,0.4,1.7v2.3l0.1,0.8l-0.6,0.1l-0.1-0.7c-0.2,0.1-0.4,0.3-0.7,0.4C326.8,235.9,326.5,236,326.2,236z M326.2,235.4
				c0.3,0,0.6-0.1,0.9-0.3s0.6-0.3,0.7-0.5v-1.3c-0.5,0-0.9-0.1-1.4-0.1c-0.4,0-0.8,0.1-1,0.3s-0.3,0.4-0.3,0.8
				C325.1,235,325.5,235.4,326.2,235.4z"/>
			<path class="st5" d="M330.7,230.7v0.3c0.4-0.3,0.6-0.4,0.8-0.4c0.5,0,0.8,0.2,1,0.5c0.4-0.3,0.8-0.5,1.1-0.5c0.5,0,0.8,0.1,1,0.4
				c0.2,0.3,0.3,0.7,0.3,1.4v3.5h-0.6v-3.5c0-0.4,0-0.7-0.1-0.9s-0.3-0.3-0.5-0.3s-0.6,0.1-0.9,0.4c0,0.2,0.1,0.5,0.1,0.9v1.8h-0.6
				v-1.8c0-0.4,0-0.7-0.1-0.9s-0.3-0.3-0.5-0.3s-0.5,0.1-0.9,0.4v4.4h-0.6v-5.2h0.5V230.7z"/>
			<path class="st5" d="M337,231.2v-0.5h1.9v4.7h1.3v0.5H337v-0.5h1.4v-4.1L337,231.2L337,231.2z M338.6,229.6c-0.1,0-0.2,0-0.3-0.1
				c-0.1-0.1-0.1-0.2-0.1-0.4s0-0.3,0.1-0.3c0.1-0.1,0.2-0.1,0.3-0.1c0.1,0,0.2,0,0.3,0.1c0.1,0.1,0.1,0.2,0.1,0.3s0,0.3-0.1,0.4
				C338.8,229.5,338.7,229.6,338.6,229.6z"/>
			<path class="st5" d="M345.6,232.4v-1.1c-0.4-0.1-0.6-0.1-0.9-0.1c-0.5,0-0.9,0.2-1.2,0.6c-0.3,0.4-0.4,0.9-0.4,1.6
				s0.1,1.2,0.4,1.6c0.3,0.4,0.7,0.6,1.2,0.6c0.3,0,0.8-0.1,1.4-0.3l0.2,0.5c-0.6,0.2-1.1,0.3-1.5,0.3c-0.7,0-1.3-0.2-1.6-0.7
				c-0.4-0.5-0.6-1.2-0.6-2c0-0.9,0.2-1.5,0.6-2s0.9-0.7,1.6-0.7c0.5,0,1,0.1,1.4,0.2v1.5L345.6,232.4L345.6,232.4z"/>
			<path class="st5" d="M350,236c-0.5,0-1-0.1-1.3-0.4s-0.5-0.7-0.5-1.2s0.2-0.9,0.5-1.2s0.8-0.4,1.3-0.4c0.6,0,1,0,1.5,0.1
				c0-0.7-0.1-1.1-0.2-1.3c-0.2-0.2-0.5-0.4-1-0.4s-1.1,0.1-1.7,0.4l-0.2-0.5c0.7-0.2,1.3-0.4,1.8-0.4c0.7,0,1.2,0.2,1.5,0.5
				s0.4,0.9,0.4,1.7v2.3l0.1,0.8l-0.6,0.1l-0.1-0.7c-0.2,0.1-0.4,0.3-0.7,0.4C350.5,235.9,350.2,236,350,236z M350,235.4
				c0.3,0,0.6-0.1,0.9-0.3s0.6-0.3,0.7-0.5v-1.3c-0.5,0-0.9-0.1-1.4-0.1c-0.4,0-0.8,0.1-1,0.3s-0.3,0.4-0.3,0.8
				C348.8,235,349.2,235.4,350,235.4z"/>
			<path class="st5" d="M354.7,229.1v-0.5h1.9v6.8h1.3v0.5h-3.3v-0.5h1.4v-6.2L354.7,229.1z"/>
			<path class="st5" d="M360.6,229.1v-0.5h1.9v6.8h1.3v0.5h-3.3v-0.5h1.4v-6.2L360.6,229.1z"/>
			<path class="st5" d="M366,230.7h0.7l1.6,4.4h0.1l1.4-4.4h0.7l-2,6.1c-0.2,0.6-0.4,1-0.6,1.1s-0.6,0.2-1.3,0.3v-0.6
				c0.4,0,0.7-0.1,0.8-0.2c0.1-0.1,0.3-0.3,0.4-0.7l0.3-0.8L366,230.7z"/>
			<path class="st5" d="M373.3,235.9v-1.3h1.2v1.3H373.3z"/>
			<path class="st5" d="M33.2,247.2c0-0.6,0-1.1,0.1-1.5s0.2-0.8,0.4-1.1c0.3-0.7,0.9-1,1.8-1c1,0,1.7,0.5,2,1.4
				c0.2,0.5,0.3,1.2,0.3,1.9s0,1.3-0.1,1.8c-0.1,0.4-0.2,0.8-0.4,1.2c-0.3,0.7-1,1.1-1.8,1.1c-0.9,0-1.5-0.4-1.8-1.1
				C33.3,249.3,33.2,248.4,33.2,247.2z M37.2,247.3c0-0.4,0-0.7,0-1c0-0.2-0.1-0.5-0.1-0.8c-0.1-0.3-0.2-0.5-0.3-0.7
				s-0.3-0.3-0.5-0.5c-0.2-0.1-0.5-0.2-0.8-0.2s-0.5,0.1-0.8,0.2c-0.2,0.1-0.4,0.3-0.5,0.5s-0.2,0.4-0.3,0.7c-0.1,0.5-0.2,1-0.2,1.5
				c0,0.6,0,1,0.1,1.3s0.1,0.7,0.2,1c0.2,0.7,0.7,1,1.4,1s1.2-0.3,1.4-1C37.1,248.8,37.2,248.1,37.2,247.3z"/>
			<path class="st5" d="M40.1,245.7v0.4c0.7-0.3,1.3-0.5,1.8-0.5s0.8,0.2,1.1,0.5s0.4,0.8,0.4,1.3v3.5h-0.6v-3.5
				c0-0.4-0.1-0.7-0.3-0.9s-0.4-0.3-0.8-0.3s-0.9,0.2-1.6,0.5v4.2h-0.6v-5.2H40.1z"/>
			<path class="st5" d="M52.3,246.3h-0.9v-0.6h0.9v-1.3l0.6-0.1v1.4H55v0.6h-2.1v2.6c0,0.6,0.1,1,0.2,1.2c0.1,0.2,0.3,0.4,0.7,0.4
				s0.7-0.1,1.2-0.2l0.1,0.5c-0.4,0.2-0.8,0.2-1.2,0.2s-0.7,0-0.9-0.1s-0.4-0.2-0.5-0.5s-0.2-0.4-0.2-0.6c0-0.2,0-0.5,0-0.9V246.3z"
				/>
			<path class="st5" d="M57.9,246.6v4.3h-0.6v-7.3h0.6v2.5c0.7-0.3,1.3-0.5,1.7-0.5c1,0,1.6,0.6,1.6,1.8v3.5h-0.6v-3.5
				c0-0.4-0.1-0.7-0.2-0.9c-0.2-0.2-0.4-0.3-0.8-0.3S58.6,246.3,57.9,246.6z"/>
			<path class="st5" d="M63.2,248.3c0-0.8,0.2-1.5,0.5-2s0.9-0.7,1.5-0.7c0.7,0,1.2,0.2,1.5,0.7c0.3,0.4,0.5,1,0.5,1.8v0.5h-3.4
				c0,0.5,0.2,1,0.4,1.3c0.3,0.3,0.6,0.5,1.1,0.5s1-0.1,1.6-0.3l0.2,0.5c-0.6,0.2-1.2,0.3-1.7,0.3c-0.7,0-1.3-0.2-1.6-0.7
				C63.4,249.8,63.2,249.1,63.2,248.3z M65.3,246.1c-0.9,0-1.4,0.6-1.5,1.9h2.8C66.6,246.8,66.1,246.1,65.3,246.1z"/>
			<path class="st5" d="M75.3,246.2v-0.5h1.6v0.6c0.2-0.1,0.6-0.3,1-0.4c0.4-0.1,0.8-0.2,1.1-0.3v0.6c-0.3,0-0.7,0.1-1.1,0.2
				c-0.4,0.1-0.8,0.3-1,0.4v3.5h1.8v0.5h-3.4v-0.5h1v-4.1H75.3z"/>
			<path class="st5" d="M81.6,246.2v-0.5h1.9v4.7h1.3v0.5h-3.2v-0.5H83v-4.1L81.6,246.2L81.6,246.2z M83.1,244.6
				c-0.1,0-0.2,0-0.3-0.1c-0.1-0.1-0.1-0.2-0.1-0.4s0-0.3,0.1-0.3c0.1-0.1,0.2-0.1,0.3-0.1c0.1,0,0.2,0,0.3,0.1
				c0.1,0.1,0.1,0.2,0.1,0.3s0,0.3-0.1,0.4C83.4,244.5,83.3,244.6,83.1,244.6z"/>
			<path class="st5" d="M90.9,249.6v1.5c0,0.7-0.2,1.1-0.6,1.5c-0.4,0.3-0.9,0.5-1.5,0.5s-1.2-0.1-2-0.4l0.2-0.5
				c0.7,0.3,1.3,0.4,1.7,0.4s0.8-0.1,1.1-0.3c0.3-0.2,0.4-0.6,0.4-1c0-0.1,0-0.2,0-0.4s0-0.3,0-0.4c-0.5,0.4-1,0.6-1.5,0.6
				c-0.7,0-1.2-0.2-1.5-0.7c-0.4-0.5-0.5-1.1-0.5-1.9s0.2-1.5,0.6-2s0.9-0.7,1.6-0.7c0.4,0,0.8,0.1,1.3,0.4v-0.3h0.6v3.7H90.9z
				 M87.4,248.3c0,0.6,0.1,1.1,0.4,1.5c0.2,0.4,0.6,0.5,1.1,0.5s1-0.2,1.5-0.6v-3.1c-0.5-0.3-0.9-0.4-1.3-0.4
				c-0.5,0-0.9,0.2-1.2,0.6S87.4,247.6,87.4,248.3z"/>
			<path class="st5" d="M93.6,246.6v4.3H93v-7.3h0.6v2.5c0.7-0.3,1.3-0.5,1.7-0.5c1,0,1.6,0.6,1.6,1.8v3.5h-0.6v-3.5
				c0-0.4-0.1-0.7-0.2-0.9c-0.2-0.2-0.4-0.3-0.8-0.3S94.3,246.3,93.6,246.6z"/>
			<path class="st5" d="M99.8,246.3h-0.9v-0.6h0.9v-1.3l0.6-0.1v1.4h2.1v0.6h-2.1v2.6c0,0.6,0.1,1,0.2,1.2s0.3,0.4,0.7,0.4
				s0.7-0.1,1.2-0.2l0.1,0.5c-0.4,0.2-0.8,0.2-1.2,0.2s-0.7,0-0.9-0.1c-0.2-0.1-0.4-0.2-0.5-0.5s-0.2-0.4-0.2-0.6c0-0.2,0-0.5,0-0.9
				C99.8,248.9,99.8,246.3,99.8,246.3z"/>
			<path class="st5" d="M110.8,250.6l0.1-0.6c0.7,0.2,1.3,0.4,1.7,0.4s0.7-0.1,0.9-0.3c0.2-0.2,0.3-0.4,0.3-0.7s-0.1-0.5-0.3-0.6
				s-0.5-0.3-1.1-0.4c-0.5-0.1-1-0.3-1.2-0.5c-0.3-0.2-0.4-0.5-0.4-1s0.2-0.8,0.5-1s0.8-0.3,1.3-0.3s1.1,0.1,1.7,0.4l-0.2,0.5
				c-0.6-0.2-1.1-0.3-1.5-0.3s-0.7,0.1-0.9,0.2c-0.2,0.1-0.3,0.3-0.3,0.6s0.1,0.4,0.3,0.6s0.6,0.3,1.1,0.4s1,0.3,1.2,0.5
				s0.4,0.6,0.4,1s-0.2,0.8-0.5,1.1s-0.7,0.4-1.3,0.4S111.5,250.9,110.8,250.6z"/>
			<path class="st5" d="M117.3,246.2v-0.5h1.9v4.7h1.3v0.5h-3.2v-0.5h1.4v-4.1L117.3,246.2L117.3,246.2z M118.8,244.6
				c-0.1,0-0.2,0-0.3-0.1c-0.1-0.1-0.1-0.2-0.1-0.4s0-0.3,0.1-0.3c0.1-0.1,0.2-0.1,0.3-0.1c0.1,0,0.2,0,0.3,0.1
				c0.1,0.1,0.1,0.2,0.1,0.3s0,0.3-0.1,0.4C119,244.5,118.9,244.6,118.8,244.6z"/>
			<path class="st5" d="M123.6,246.3h-0.9v-0.6h0.9v-1.3l0.6-0.1v1.4h2.1v0.6h-2.1v2.6c0,0.6,0.1,1,0.2,1.2s0.3,0.4,0.7,0.4
				s0.7-0.1,1.2-0.2l0.1,0.5c-0.4,0.2-0.8,0.2-1.2,0.2s-0.7,0-0.9-0.1c-0.2-0.1-0.4-0.2-0.5-0.5s-0.2-0.4-0.2-0.6c0-0.2,0-0.5,0-0.9
				C123.6,248.9,123.6,246.3,123.6,246.3z"/>
			<path class="st5" d="M132.5,243.6v6.4l0.1,1H132l-0.1-0.6c-0.5,0.4-1.1,0.6-1.5,0.6c-0.7,0-1.2-0.2-1.5-0.7s-0.5-1.1-0.5-2
				s0.2-1.5,0.6-2s1-0.7,1.6-0.7c0.4,0,0.8,0.1,1.3,0.3v-2.3H132.5z M129,248.3c0,0.6,0.1,1.2,0.4,1.6s0.6,0.6,1.1,0.6
				s1-0.2,1.5-0.6v-3.3c-0.2-0.1-0.4-0.1-0.6-0.2c-0.3-0.1-0.5-0.1-0.7-0.1c-0.5,0-0.9,0.2-1.2,0.6C129.1,247.1,129,247.6,129,248.3
				z"/>
			<path class="st5" d="M134.5,248.3c0-0.8,0.2-1.5,0.5-2s0.9-0.7,1.5-0.7c0.7,0,1.2,0.2,1.5,0.7c0.3,0.4,0.5,1,0.5,1.8v0.5h-3.4
				c0,0.5,0.2,1,0.4,1.3c0.3,0.3,0.6,0.5,1.1,0.5s1-0.1,1.6-0.3l0.2,0.5c-0.6,0.2-1.2,0.3-1.7,0.3c-0.7,0-1.3-0.2-1.6-0.7
				C134.7,249.8,134.5,249.1,134.5,248.3z M136.6,246.1c-0.9,0-1.4,0.6-1.5,1.9h2.8C137.9,246.8,137.4,246.1,136.6,246.1z"/>
			<path class="st5" d="M146.3,248.3c0-1.8,0.7-2.7,2.1-2.7c1.4,0,2.1,0.9,2.1,2.7s-0.7,2.7-2.1,2.7S146.3,250.1,146.3,248.3z
				 M148.4,246.2c-1,0-1.5,0.7-1.5,2.1s0.5,2.1,1.5,2.1s1.5-0.7,1.5-2.1S149.3,246.2,148.4,246.2z"/>
			<path class="st5" d="M153.5,246.2h-1v-0.5h1c0-1.5,0.5-2.2,1.6-2.2c0.4,0,0.7,0.1,1.2,0.2l-0.1,0.6c-0.4-0.1-0.7-0.2-1-0.2
				c-0.4,0-0.7,0.1-0.8,0.4c-0.2,0.3-0.2,0.7-0.2,1.2h2v0.5h-2v4.1h2v0.5h-3.7v-0.5h1.1v-4.1H153.5z"/>
			<path class="st5" d="M165.2,246.3h-0.9v-0.6h0.9v-1.3l0.6-0.1v1.4h2.1v0.6h-2.1v2.6c0,0.6,0.1,1,0.2,1.2c0.1,0.2,0.3,0.4,0.7,0.4
				s0.7-0.1,1.2-0.2l0.1,0.5c-0.4,0.2-0.8,0.2-1.2,0.2s-0.7,0-0.9-0.1s-0.4-0.2-0.5-0.5s-0.2-0.4-0.2-0.6c0-0.2,0-0.5,0-0.9
				L165.2,246.3L165.2,246.3z"/>
			<path class="st5" d="M170.8,246.6v4.3h-0.6v-7.3h0.6v2.5c0.7-0.3,1.3-0.5,1.7-0.5c1,0,1.6,0.6,1.6,1.8v3.5h-0.6v-3.5
				c0-0.4-0.1-0.7-0.2-0.9c-0.2-0.2-0.4-0.3-0.8-0.3S171.5,246.3,170.8,246.6z"/>
			<path class="st5" d="M176,248.3c0-0.8,0.2-1.5,0.5-2s0.9-0.7,1.5-0.7c0.7,0,1.2,0.2,1.5,0.7c0.3,0.4,0.5,1,0.5,1.8v0.5h-3.4
				c0,0.5,0.2,1,0.4,1.3c0.3,0.3,0.6,0.5,1.1,0.5s1-0.1,1.6-0.3l0.2,0.5c-0.6,0.2-1.2,0.3-1.7,0.3c-0.7,0-1.3-0.2-1.6-0.7
				C176.2,249.8,176,249.1,176,248.3z M178.1,246.1c-0.9,0-1.4,0.6-1.5,1.9h2.8C179.4,246.8,179,246.1,178.1,246.1z"/>
			<path class="st5" d="M188,253v-6.4l-0.1-1l0.5-0.1l0.1,0.6c0.5-0.4,1-0.6,1.5-0.6c0.7,0,1.2,0.2,1.5,0.7s0.5,1.1,0.5,2
				s-0.2,1.5-0.6,2s-0.9,0.7-1.7,0.7c-0.4,0-0.8-0.1-1.3-0.3v2.3H188V253z M191.5,248.3c0-0.6-0.1-1.2-0.4-1.6s-0.6-0.6-1.1-0.6
				s-1,0.2-1.5,0.6v3.3c0.2,0.1,0.4,0.1,0.6,0.2c0.3,0.1,0.5,0.1,0.7,0.1c0.5,0,0.9-0.2,1.2-0.6
				C191.4,249.5,191.5,248.9,191.5,248.3z"/>
			<path class="st5" d="M195.5,251c-0.5,0-1-0.1-1.3-0.4s-0.5-0.7-0.5-1.2s0.2-0.9,0.5-1.2s0.8-0.4,1.3-0.4c0.6,0,1,0,1.5,0.1
				c0-0.7-0.1-1.1-0.2-1.3c-0.2-0.2-0.5-0.4-1-0.4s-1.1,0.1-1.7,0.4L194,246c0.7-0.2,1.3-0.4,1.8-0.4c0.7,0,1.2,0.2,1.5,0.5
				s0.4,0.9,0.4,1.7v2.3l0.1,0.8l-0.6,0.1l-0.1-0.7c-0.2,0.1-0.4,0.3-0.7,0.4C196.1,250.9,195.8,251,195.5,251z M195.5,250.4
				c0.3,0,0.6-0.1,0.9-0.3c0.3-0.2,0.6-0.3,0.7-0.5v-1.3c-0.5,0-0.9-0.1-1.4-0.1c-0.4,0-0.8,0.1-1,0.3s-0.3,0.4-0.3,0.8
				C194.4,250,194.8,250.4,195.5,250.4z"/>
			<path class="st5" d="M203.8,249.6v1.5c0,0.7-0.2,1.1-0.6,1.5c-0.4,0.3-0.9,0.5-1.5,0.5s-1.2-0.1-2-0.4l0.2-0.5
				c0.7,0.3,1.3,0.4,1.7,0.4s0.8-0.1,1.1-0.3s0.4-0.6,0.4-1c0-0.1,0-0.2,0-0.4s0-0.3,0-0.4c-0.5,0.4-1,0.6-1.5,0.6
				c-0.7,0-1.2-0.2-1.5-0.7c-0.4-0.5-0.5-1.1-0.5-1.9s0.2-1.5,0.6-2s0.9-0.7,1.6-0.7c0.4,0,0.8,0.1,1.3,0.4v-0.3h0.6L203.8,249.6
				L203.8,249.6z M200.3,248.3c0,0.6,0.1,1.1,0.4,1.5c0.2,0.4,0.6,0.5,1.1,0.5s1-0.2,1.5-0.6v-3.1c-0.5-0.3-0.9-0.4-1.3-0.4
				c-0.5,0-0.9,0.2-1.2,0.6S200.3,247.6,200.3,248.3z"/>
			<path class="st5" d="M205.7,248.3c0-0.8,0.2-1.5,0.5-2s0.9-0.7,1.5-0.7c0.7,0,1.2,0.2,1.5,0.7c0.3,0.4,0.5,1,0.5,1.8v0.5h-3.4
				c0,0.5,0.2,1,0.4,1.3c0.3,0.3,0.6,0.5,1.1,0.5s1-0.1,1.6-0.3l0.2,0.5c-0.6,0.2-1.2,0.3-1.7,0.3c-0.7,0-1.3-0.2-1.6-0.7
				C205.9,249.8,205.7,249.1,205.7,248.3z M207.8,246.1c-0.9,0-1.4,0.6-1.5,1.9h2.8C209.1,246.8,208.7,246.1,207.8,246.1z"/>
			<path class="st5" d="M212.8,250.9v-1.2h1v0.9c0,0.7-0.3,1.3-0.8,1.9l-0.3-0.3c0.3-0.5,0.5-0.9,0.5-1.3L212.8,250.9L212.8,250.9z"
				/>
			<path class="st5" d="M224.2,246.2v-0.5h1.9v4.7h1.3v0.5h-3.2v-0.5h1.4v-4.1L224.2,246.2L224.2,246.2z M225.7,244.6
				c-0.1,0-0.2,0-0.3-0.1s-0.1-0.2-0.1-0.4s0-0.3,0.1-0.3c0.1-0.1,0.2-0.1,0.3-0.1s0.2,0,0.3,0.1s0.1,0.2,0.1,0.3s0,0.3-0.1,0.4
				C225.9,244.5,225.8,244.6,225.7,244.6z"/>
			<path class="st5" d="M229.6,250.6l0.1-0.6c0.7,0.2,1.3,0.4,1.7,0.4s0.7-0.1,0.9-0.3s0.3-0.4,0.3-0.7s-0.1-0.5-0.3-0.6
				s-0.5-0.3-1.1-0.4c-0.5-0.1-1-0.3-1.2-0.5c-0.3-0.2-0.4-0.5-0.4-1s0.2-0.8,0.5-1s0.8-0.3,1.3-0.3s1.1,0.1,1.7,0.4l-0.2,0.5
				c-0.6-0.2-1.1-0.3-1.5-0.3s-0.7,0.1-0.9,0.2c-0.2,0.1-0.3,0.3-0.3,0.6s0.1,0.4,0.3,0.6s0.6,0.3,1.1,0.4s1,0.3,1.2,0.5
				s0.4,0.6,0.4,1s-0.2,0.8-0.5,1.1s-0.7,0.4-1.3,0.4S230.3,250.9,229.6,250.6z"/>
			<path class="st5" d="M242.4,246.3h-0.9v-0.6h0.9v-1.3l0.6-0.1v1.4h2.1v0.6H243v2.6c0,0.6,0.1,1,0.2,1.2c0.1,0.2,0.3,0.4,0.7,0.4
				s0.7-0.1,1.2-0.2l0.1,0.5c-0.4,0.2-0.8,0.2-1.2,0.2s-0.7,0-0.9-0.1s-0.4-0.2-0.5-0.5s-0.2-0.4-0.2-0.6c0-0.2,0-0.5,0-0.9
				L242.4,246.3L242.4,246.3z"/>
			<path class="st5" d="M248,246.6v4.3h-0.6v-7.3h0.6v2.5c0.7-0.3,1.3-0.5,1.7-0.5c1,0,1.6,0.6,1.6,1.8v3.5h-0.6v-3.5
				c0-0.4-0.1-0.7-0.2-0.9c-0.2-0.2-0.4-0.3-0.8-0.3S248.7,246.3,248,246.6z"/>
			<path class="st5" d="M253.3,248.3c0-0.8,0.2-1.5,0.5-2s0.9-0.7,1.5-0.7c0.7,0,1.2,0.2,1.5,0.7c0.3,0.4,0.5,1,0.5,1.8v0.5h-3.4
				c0,0.5,0.2,1,0.4,1.3c0.3,0.3,0.6,0.5,1.1,0.5s1-0.1,1.6-0.3l0.2,0.5c-0.6,0.2-1.2,0.3-1.7,0.3c-0.7,0-1.3-0.2-1.6-0.7
				C253.5,249.8,253.3,249.1,253.3,248.3z M255.4,246.1c-0.9,0-1.4,0.6-1.5,1.9h2.8C256.7,246.8,256.2,246.1,255.4,246.1z"/>
			<path class="st5" d="M265.3,245.7v0.3c0.4-0.3,0.6-0.4,0.8-0.4c0.5,0,0.8,0.2,1,0.5c0.4-0.3,0.8-0.5,1.1-0.5c0.5,0,0.8,0.1,1,0.4
				c0.2,0.3,0.3,0.7,0.3,1.4v3.5H269v-3.5c0-0.4,0-0.7-0.1-0.9s-0.3-0.3-0.5-0.3s-0.6,0.1-0.9,0.4c0,0.2,0.1,0.5,0.1,0.9v1.8H267
				v-1.8c0-0.4,0-0.7-0.1-0.9s-0.3-0.3-0.5-0.3s-0.5,0.1-0.9,0.4v4.4h-0.6v-5.2h0.4V245.7z"/>
			<path class="st5" d="M272.7,251c-0.5,0-1-0.1-1.3-0.4s-0.5-0.7-0.5-1.2s0.2-0.9,0.5-1.2s0.8-0.4,1.3-0.4c0.6,0,1,0,1.5,0.1
				c0-0.7-0.1-1.1-0.2-1.3c-0.2-0.2-0.5-0.4-1-0.4s-1.1,0.1-1.7,0.4l-0.2-0.5c0.7-0.2,1.3-0.4,1.8-0.4c0.7,0,1.2,0.2,1.5,0.5
				s0.4,0.9,0.4,1.7v2.3l0.1,0.8l-0.6,0.1l-0.1-0.7c-0.2,0.1-0.4,0.3-0.7,0.4C273.3,250.9,273,251,272.7,251z M272.7,250.4
				c0.3,0,0.6-0.1,0.9-0.3s0.6-0.3,0.7-0.5v-1.3c-0.5,0-0.9-0.1-1.4-0.1c-0.4,0-0.8,0.1-1,0.3s-0.3,0.4-0.3,0.8
				C271.6,250,272,250.4,272.7,250.4z"/>
			<path class="st5" d="M277.6,246.2v-0.5h1.9v4.7h1.3v0.5h-3.2v-0.5h1.4v-4.1L277.6,246.2L277.6,246.2z M279.2,244.6
				c-0.1,0-0.2,0-0.3-0.1c-0.1-0.1-0.1-0.2-0.1-0.4s0-0.3,0.1-0.3c0.1-0.1,0.2-0.1,0.3-0.1c0.1,0,0.2,0,0.3,0.1
				c0.1,0.1,0.1,0.2,0.1,0.3s0,0.3-0.1,0.4C279.4,244.5,279.3,244.6,279.2,244.6z"/>
			<path class="st5" d="M283.6,245.7v0.4c0.7-0.3,1.3-0.5,1.8-0.5s0.8,0.2,1.1,0.5c0.3,0.3,0.4,0.8,0.4,1.3v3.5h-0.6v-3.5
				c0-0.4-0.1-0.7-0.3-0.9c-0.2-0.2-0.4-0.3-0.8-0.3s-0.9,0.2-1.6,0.5v4.2H283v-5.2H283.6z"/>
			<path class="st5" d="M298.8,243.6v6.4l0.1,1l-0.6,0.1l-0.1-0.6c-0.5,0.4-1.1,0.6-1.5,0.6c-0.7,0-1.2-0.2-1.5-0.7s-0.5-1.1-0.5-2
				s0.2-1.5,0.6-2s1-0.7,1.6-0.7c0.4,0,0.8,0.1,1.3,0.3v-2.3h0.6V243.6z M295.3,248.3c0,0.6,0.1,1.2,0.4,1.6s0.6,0.6,1.1,0.6
				s1-0.2,1.5-0.6v-3.3c-0.2-0.1-0.4-0.1-0.6-0.2c-0.3-0.1-0.5-0.1-0.7-0.1c-0.5,0-0.9,0.2-1.2,0.6
				C295.4,247.1,295.3,247.6,295.3,248.3z"/>
			<path class="st5" d="M301,246.2v-0.5h1.6v0.6c0.2-0.1,0.6-0.3,1-0.4c0.4-0.1,0.8-0.2,1.1-0.3v0.6c-0.3,0-0.7,0.1-1.1,0.2
				c-0.4,0.1-0.8,0.3-1,0.4v3.5h1.8v0.5H301v-0.5h1v-4.1H301z"/>
			<path class="st5" d="M306.6,248.3c0-1.8,0.7-2.7,2.1-2.7s2.1,0.9,2.1,2.7s-0.7,2.7-2.1,2.7C307.3,251,306.6,250.1,306.6,248.3z
				 M308.7,246.2c-1,0-1.5,0.7-1.5,2.1s0.5,2.1,1.5,2.1s1.5-0.7,1.5-2.1S309.7,246.2,308.7,246.2z"/>
			<path class="st5" d="M312.8,253v-6.4l-0.1-1l0.5-0.1l0.1,0.6c0.5-0.4,1-0.6,1.5-0.6c0.7,0,1.2,0.2,1.5,0.7s0.5,1.1,0.5,2
				s-0.2,1.5-0.6,2s-0.9,0.7-1.7,0.7c-0.4,0-0.8-0.1-1.3-0.3v2.3h-0.4V253z M316.3,248.3c0-0.6-0.1-1.2-0.4-1.6s-0.6-0.6-1.1-0.6
				s-1,0.2-1.5,0.6v3.3c0.2,0.1,0.4,0.1,0.6,0.2c0.3,0.1,0.5,0.1,0.7,0.1c0.5,0,0.9-0.2,1.2-0.6
				C316.1,249.5,316.3,248.9,316.3,248.3z"/>
			<path class="st5" d="M322.6,243.6v6.4l0.1,1l-0.6,0.1l-0.1-0.6c-0.5,0.4-1.1,0.6-1.5,0.6c-0.7,0-1.2-0.2-1.5-0.7s-0.5-1.1-0.5-2
				s0.2-1.5,0.6-2s1-0.7,1.6-0.7c0.4,0,0.8,0.1,1.3,0.3v-2.3h0.6V243.6z M319.1,248.3c0,0.6,0.1,1.2,0.4,1.6s0.6,0.6,1.1,0.6
				s1-0.2,1.5-0.6v-3.3c-0.2-0.1-0.4-0.1-0.6-0.2c-0.3-0.1-0.5-0.1-0.7-0.1c-0.5,0-0.9,0.2-1.2,0.6
				C319.2,247.1,319.1,247.6,319.1,248.3z"/>
			<path class="st5" d="M324.5,248.3c0-1.8,0.7-2.7,2.1-2.7s2.1,0.9,2.1,2.7s-0.7,2.7-2.1,2.7S324.5,250.1,324.5,248.3z
				 M326.6,246.2c-1,0-1.5,0.7-1.5,2.1s0.5,2.1,1.5,2.1s1.5-0.7,1.5-2.1S327.5,246.2,326.6,246.2z"/>
			<path class="st5" d="M334.3,245.7h0.6l-0.6,5.2h-1.2l-0.6-2.3l0,0l-0.6,2.3h-1.2l-0.6-5.2h0.6l0.6,4.7h0.2l0.7-2.7h0.6l0.7,2.7
				h0.2L334.3,245.7z"/>
			<path class="st5" d="M337.1,245.7v0.4c0.7-0.3,1.3-0.5,1.8-0.5s0.8,0.2,1.1,0.5c0.3,0.3,0.4,0.8,0.4,1.3v3.5h-0.6v-3.5
				c0-0.4-0.1-0.7-0.3-0.9c-0.2-0.2-0.4-0.3-0.8-0.3s-0.9,0.2-1.6,0.5v4.2h-0.6v-5.2H337.1z"/>
			<path class="st5" d="M348.5,245.7v0.3c0.4-0.3,0.6-0.4,0.8-0.4c0.5,0,0.8,0.2,1,0.5c0.4-0.3,0.8-0.5,1.1-0.5c0.5,0,0.8,0.1,1,0.4
				c0.2,0.3,0.3,0.7,0.3,1.4v3.5h-0.6v-3.5c0-0.4,0-0.7-0.1-0.9s-0.3-0.3-0.5-0.3s-0.6,0.1-0.9,0.4c0,0.2,0.1,0.5,0.1,0.9v1.8H350
				v-1.8c0-0.4,0-0.7-0.1-0.9s-0.3-0.3-0.5-0.3s-0.5,0.1-0.9,0.4v4.4h-0.6v-5.2h0.6V245.7z"/>
			<path class="st5" d="M354.2,248.3c0-0.8,0.2-1.5,0.5-2s0.9-0.7,1.5-0.7c0.7,0,1.2,0.2,1.5,0.7c0.3,0.4,0.5,1,0.5,1.8v0.5h-3.4
				c0,0.5,0.2,1,0.4,1.3c0.3,0.3,0.6,0.5,1.1,0.5s1-0.1,1.6-0.3l0.2,0.5c-0.6,0.2-1.2,0.3-1.7,0.3c-0.7,0-1.3-0.2-1.6-0.7
				C354.4,249.8,354.2,249.1,354.2,248.3z M356.3,246.1c-0.9,0-1.4,0.6-1.5,1.9h2.8C357.6,246.8,357.2,246.1,356.3,246.1z"/>
			<path class="st5" d="M360.8,245.7v0.4c0.7-0.3,1.3-0.5,1.8-0.5s0.8,0.2,1.1,0.5c0.3,0.3,0.4,0.8,0.4,1.3v3.5h-0.6v-3.5
				c0-0.4-0.1-0.7-0.3-0.9c-0.2-0.2-0.4-0.3-0.8-0.3s-0.9,0.2-1.6,0.5v4.2h-0.6v-5.2H360.8z"/>
			<path class="st5" d="M369.5,250.9v-0.5c-0.7,0.4-1.3,0.5-1.8,0.5s-0.8-0.2-1.1-0.5c-0.3-0.3-0.4-0.8-0.4-1.3v-3.5h0.6v3.5
				c0,0.4,0.1,0.7,0.3,0.9c0.2,0.2,0.4,0.3,0.8,0.3s0.9-0.2,1.6-0.6v-4.2h0.6v5.2h-0.6V250.9z"/>
			<path class="st5" d="M373.2,250.9v-1.2h1v0.9c0,0.7-0.3,1.3-0.8,1.9l-0.3-0.3c0.3-0.5,0.5-0.9,0.5-1.3L373.2,250.9L373.2,250.9z"
				/>
			<path class="st5" d="M35.1,266c-0.5,0-1-0.1-1.3-0.4s-0.5-0.7-0.5-1.2s0.2-0.9,0.5-1.2c0.3-0.3,0.8-0.4,1.3-0.4
				c0.6,0,1,0,1.5,0.1c0-0.7-0.1-1.1-0.2-1.3c-0.2-0.2-0.5-0.4-1-0.4s-1.1,0.1-1.7,0.4l-0.2-0.5c0.7-0.2,1.3-0.4,1.8-0.4
				c0.7,0,1.2,0.2,1.5,0.5s0.4,0.9,0.4,1.7v2.3l0.1,0.8l-0.6,0.1l-0.1-0.7c-0.2,0.1-0.4,0.3-0.7,0.4C35.7,265.9,35.4,266,35.1,266z
				 M35.1,265.4c0.3,0,0.6-0.1,0.9-0.3c0.3-0.2,0.6-0.3,0.7-0.5v-1.3c-0.5,0-0.9-0.1-1.4-0.1c-0.4,0-0.8,0.1-1,0.3
				c-0.2,0.2-0.3,0.4-0.3,0.8C34,265,34.4,265.4,35.1,265.4z"/>
			<path class="st5" d="M39.5,265.6l0.1-0.6c0.7,0.2,1.3,0.4,1.7,0.4s0.7-0.1,0.9-0.3c0.2-0.2,0.3-0.4,0.3-0.7s-0.1-0.5-0.3-0.6
				s-0.5-0.3-1.1-0.4c-0.5-0.1-1-0.3-1.2-0.5c-0.3-0.2-0.4-0.5-0.4-1s0.2-0.8,0.5-1s0.8-0.3,1.3-0.3s1.1,0.1,1.7,0.4l-0.2,0.5
				c-0.6-0.2-1.1-0.3-1.5-0.3s-0.7,0.1-0.9,0.2s-0.3,0.3-0.3,0.6s0.1,0.4,0.3,0.6s0.6,0.3,1.1,0.4s1,0.3,1.2,0.5s0.4,0.6,0.4,1
				s-0.2,0.8-0.5,1.1c-0.3,0.3-0.7,0.4-1.3,0.4S40.2,265.9,39.5,265.6z"/>
			<path class="st5" d="M55.1,260.7h0.6l-0.6,5.2h-1.2l-0.6-2.3l0,0l-0.6,2.3h-1.2l-0.6-5.2h0.6l0.6,4.7h0.2l0.7-2.7h0.6l0.7,2.7
				h0.2L55.1,260.7z"/>
			<path class="st5" d="M57.2,263.3c0-0.8,0.2-1.5,0.5-2s0.9-0.7,1.5-0.7c0.7,0,1.2,0.2,1.5,0.7c0.3,0.4,0.5,1,0.5,1.8v0.5h-3.4
				c0,0.5,0.2,1,0.4,1.3c0.3,0.3,0.6,0.5,1.1,0.5s1-0.1,1.6-0.3l0.2,0.5c-0.6,0.2-1.2,0.3-1.7,0.3c-0.7,0-1.3-0.2-1.6-0.7
				C57.4,264.8,57.2,264.1,57.2,263.3z M59.3,261.1c-0.9,0-1.4,0.6-1.5,1.9h2.8C60.6,261.8,60.2,261.1,59.3,261.1z"/>
			<path class="st5" d="M63.6,259.1v-0.5h1.9v6.8h1.3v0.5h-3.3v-0.5H65v-6.2L63.6,259.1z"/>
			<path class="st5" d="M69.6,259.1v-0.5h1.9v6.8h1.3v0.5h-3.3v-0.5h1.4v-6.2L69.6,259.1z"/>
			<path class="st5" d="M82.7,266c-0.5,0-1-0.1-1.3-0.4s-0.5-0.7-0.5-1.2s0.2-0.9,0.5-1.2c0.3-0.3,0.8-0.4,1.3-0.4
				c0.6,0,1,0,1.5,0.1c0-0.7-0.1-1.1-0.2-1.3c-0.2-0.2-0.5-0.4-1-0.4s-1.1,0.1-1.7,0.4l-0.2-0.5c0.7-0.2,1.3-0.4,1.8-0.4
				c0.7,0,1.2,0.2,1.5,0.5s0.4,0.9,0.4,1.7v2.3l0.1,0.8l-0.6,0.1l-0.1-0.7c-0.2,0.1-0.4,0.3-0.7,0.4C83.2,265.9,82.9,266,82.7,266z
				 M82.7,265.4c0.3,0,0.6-0.1,0.9-0.3c0.3-0.2,0.6-0.3,0.7-0.5v-1.3c-0.5,0-0.9-0.1-1.4-0.1c-0.4,0-0.8,0.1-1,0.3
				c-0.2,0.2-0.3,0.4-0.3,0.8C81.5,265,81.9,265.4,82.7,265.4z"/>
			<path class="st5" d="M87.1,265.6l0.1-0.6c0.7,0.2,1.3,0.4,1.7,0.4s0.7-0.1,0.9-0.3c0.2-0.2,0.3-0.4,0.3-0.7s-0.1-0.5-0.3-0.6
				s-0.5-0.3-1.1-0.4c-0.5-0.1-1-0.3-1.2-0.5c-0.3-0.2-0.4-0.5-0.4-1s0.2-0.8,0.5-1s0.8-0.3,1.3-0.3s1.1,0.1,1.7,0.4l-0.2,0.5
				c-0.6-0.2-1.1-0.3-1.5-0.3s-0.7,0.1-0.9,0.2c-0.2,0.1-0.3,0.3-0.3,0.6s0.1,0.4,0.3,0.6s0.6,0.3,1.1,0.4s1,0.3,1.2,0.5
				s0.4,0.6,0.4,1s-0.2,0.8-0.5,1.1c-0.3,0.3-0.7,0.4-1.3,0.4S87.8,265.9,87.1,265.6z"/>
			<path class="st5" d="M99.8,261.3h-0.9v-0.6h0.9v-1.3l0.6-0.1v1.4h2.1v0.6h-2.1v2.6c0,0.6,0.1,1,0.2,1.2s0.3,0.4,0.7,0.4
				s0.7-0.1,1.2-0.2l0.1,0.5c-0.4,0.2-0.8,0.2-1.2,0.2s-0.7,0-0.9-0.1c-0.2-0.1-0.4-0.2-0.5-0.5s-0.2-0.4-0.2-0.6s0-0.5,0-0.9
				C99.8,263.9,99.8,261.3,99.8,261.3z"/>
			<path class="st5" d="M105.5,261.6v4.3h-0.6v-7.3h0.6v2.5c0.7-0.3,1.3-0.5,1.7-0.5c1,0,1.6,0.6,1.6,1.8v3.5h-0.6v-3.5
				c0-0.4-0.1-0.7-0.2-0.9c-0.2-0.2-0.4-0.3-0.8-0.3S106.1,261.3,105.5,261.6z"/>
			<path class="st5" d="M110.7,263.3c0-0.8,0.2-1.5,0.5-2s0.9-0.7,1.5-0.7c0.7,0,1.2,0.2,1.5,0.7c0.3,0.4,0.5,1,0.5,1.8v0.5h-3.4
				c0,0.5,0.2,1,0.4,1.3c0.3,0.3,0.6,0.5,1.1,0.5s1-0.1,1.6-0.3l0.2,0.5c-0.6,0.2-1.2,0.3-1.7,0.3c-0.7,0-1.3-0.2-1.6-0.7
				C110.9,264.8,110.7,264.1,110.7,263.3z M112.8,261.1c-0.9,0-1.4,0.6-1.5,1.9h2.8C114.1,261.8,113.7,261.1,112.8,261.1z"/>
			<path class="st5" d="M122.8,260.7v0.3c0.4-0.3,0.6-0.4,0.8-0.4c0.5,0,0.8,0.2,1,0.5c0.4-0.3,0.8-0.5,1.1-0.5c0.5,0,0.8,0.1,1,0.4
				s0.3,0.7,0.3,1.4v3.5h-0.6v-3.5c0-0.4,0-0.7-0.1-0.9c-0.1-0.2-0.3-0.3-0.5-0.3s-0.6,0.1-0.9,0.4c0,0.2,0.1,0.5,0.1,0.9v1.8h-0.6
				v-1.8c0-0.4,0-0.7-0.1-0.9c-0.1-0.2-0.3-0.3-0.5-0.3s-0.5,0.1-0.9,0.4v4.4h-0.6v-5.2h0.5V260.7z"/>
			<path class="st5" d="M130.2,266c-0.5,0-1-0.1-1.3-0.4s-0.5-0.7-0.5-1.2s0.2-0.9,0.5-1.2c0.3-0.3,0.8-0.4,1.3-0.4
				c0.6,0,1,0,1.5,0.1c0-0.7-0.1-1.1-0.2-1.3c-0.2-0.2-0.5-0.4-1-0.4s-1.1,0.1-1.7,0.4l-0.2-0.5c0.7-0.2,1.3-0.4,1.8-0.4
				c0.7,0,1.2,0.2,1.5,0.5s0.4,0.9,0.4,1.7v2.3l0.1,0.8l-0.6,0.1l-0.1-0.7c-0.2,0.1-0.4,0.3-0.7,0.4S130.5,266,130.2,266z
				 M130.2,265.4c0.3,0,0.6-0.1,0.9-0.3c0.3-0.2,0.6-0.3,0.7-0.5v-1.3c-0.5,0-0.9-0.1-1.4-0.1c-0.4,0-0.8,0.1-1,0.3
				c-0.2,0.2-0.3,0.4-0.3,0.8C129.1,265,129.4,265.4,130.2,265.4z"/>
			<path class="st5" d="M134.6,268v-6.4l-0.1-1l0.5-0.1l0.1,0.6c0.5-0.4,1-0.6,1.5-0.6c0.7,0,1.2,0.2,1.5,0.7s0.5,1.1,0.5,2
				s-0.2,1.5-0.6,2s-0.9,0.7-1.7,0.7c-0.4,0-0.8-0.1-1.3-0.3v2.3L134.6,268L134.6,268z M138.1,263.3c0-0.6-0.1-1.2-0.4-1.6
				s-0.6-0.6-1.1-0.6s-1,0.2-1.5,0.6v3.3c0.2,0.1,0.4,0.1,0.6,0.2c0.3,0.1,0.5,0.1,0.7,0.1c0.5,0,0.9-0.2,1.2-0.6
				C137.9,264.5,138.1,263.9,138.1,263.3z"/>
			<path class="st5" d="M146.3,263.3c0-1.8,0.7-2.7,2.1-2.7c1.4,0,2.1,0.9,2.1,2.7s-0.7,2.7-2.1,2.7S146.3,265.1,146.3,263.3z
				 M148.4,261.2c-1,0-1.5,0.7-1.5,2.1s0.5,2.1,1.5,2.1s1.5-0.7,1.5-2.1S149.3,261.2,148.4,261.2z"/>
			<path class="st5" d="M153.5,261.2h-1v-0.5h1c0-1.5,0.5-2.2,1.6-2.2c0.4,0,0.7,0.1,1.2,0.2l-0.1,0.6c-0.4-0.1-0.7-0.2-1-0.2
				c-0.4,0-0.7,0.1-0.8,0.4c-0.2,0.3-0.2,0.7-0.2,1.2h2v0.5h-2v4.1h2v0.5h-3.7v-0.5h1.1v-4.1H153.5z"/>
			<path class="st5" d="M164.5,265.1c-0.4-0.6-0.6-1.5-0.6-2.8s0.2-2.2,0.6-2.8c0.4-0.6,1.1-0.9,2-0.9c0.6,0,1.2,0.1,1.9,0.4
				l-0.2,0.6c-0.7-0.2-1.2-0.3-1.7-0.3c-0.7,0-1.2,0.2-1.5,0.7s-0.4,1.3-0.4,2.4s0.2,1.9,0.5,2.4s0.8,0.8,1.4,0.8
				c0.4,0,0.8-0.1,1.4-0.3V263h-1.2v-0.5h1.8v3.2c-0.8,0.3-1.4,0.4-2,0.4C165.5,266,164.9,265.7,164.5,265.1z"/>
			<path class="st5" d="M170.1,263.3c0-0.8,0.2-1.5,0.5-2s0.9-0.7,1.5-0.7c0.7,0,1.2,0.2,1.5,0.7c0.3,0.4,0.5,1,0.5,1.8v0.5h-3.4
				c0,0.5,0.2,1,0.4,1.3c0.3,0.3,0.6,0.5,1.1,0.5s1-0.1,1.6-0.3l0.2,0.5c-0.6,0.2-1.2,0.3-1.7,0.3c-0.7,0-1.3-0.2-1.6-0.7
				C170.3,264.8,170.1,264.1,170.1,263.3z M172.2,261.1c-0.9,0-1.4,0.6-1.5,1.9h2.8C173.5,261.8,173.1,261.1,172.2,261.1z"/>
			<path class="st5" d="M176.3,261.2v-0.5h1.6v0.6c0.2-0.1,0.6-0.3,1-0.4s0.8-0.2,1.1-0.3v0.6c-0.3,0-0.7,0.1-1.1,0.2
				c-0.4,0.1-0.8,0.3-1,0.4v3.5h1.8v0.5h-3.4v-0.5h1v-4.1L176.3,261.2L176.3,261.2z"/>
			<path class="st5" d="M182.2,260.7v0.3c0.4-0.3,0.6-0.4,0.8-0.4c0.5,0,0.8,0.2,1,0.5c0.4-0.3,0.8-0.5,1.1-0.5c0.5,0,0.8,0.1,1,0.4
				s0.3,0.7,0.3,1.4v3.5h-0.6v-3.5c0-0.4,0-0.7-0.1-0.9c-0.1-0.2-0.3-0.3-0.5-0.3s-0.6,0.1-0.9,0.4c0,0.2,0.1,0.5,0.1,0.9v1.8h-0.6
				v-1.8c0-0.4,0-0.7-0.1-0.9c-0.1-0.2-0.3-0.3-0.5-0.3s-0.5,0.1-0.9,0.4v4.4h-0.6v-5.2h0.5V260.7z"/>
			<path class="st5" d="M189.6,266c-0.5,0-1-0.1-1.3-0.4s-0.5-0.7-0.5-1.2s0.2-0.9,0.5-1.2c0.3-0.3,0.8-0.4,1.3-0.4
				c0.6,0,1,0,1.5,0.1c0-0.7-0.1-1.1-0.2-1.3c-0.2-0.2-0.5-0.4-1-0.4s-1.1,0.1-1.7,0.4L188,261c0.7-0.2,1.3-0.4,1.8-0.4
				c0.7,0,1.2,0.2,1.5,0.5s0.4,0.9,0.4,1.7v2.3l0.1,0.8l-0.6,0.1l-0.1-0.7c-0.2,0.1-0.4,0.3-0.7,0.4
				C190.1,265.9,189.9,266,189.6,266z M189.6,265.4c0.3,0,0.6-0.1,0.9-0.3c0.3-0.2,0.6-0.3,0.7-0.5v-1.3c-0.5,0-0.9-0.1-1.4-0.1
				c-0.4,0-0.8,0.1-1,0.3c-0.2,0.2-0.3,0.4-0.3,0.8C188.5,265,188.8,265.4,189.6,265.4z"/>
			<path class="st5" d="M194.5,260.7v0.4c0.7-0.3,1.3-0.5,1.8-0.5s0.8,0.2,1.1,0.5s0.4,0.8,0.4,1.3v3.5h-0.6v-3.5
				c0-0.4-0.1-0.7-0.3-0.9c-0.2-0.2-0.4-0.3-0.8-0.3s-0.9,0.2-1.6,0.5v4.2H194v-5.2H194.5z"/>
			<path class="st5" d="M199.6,260.7h0.7l1.6,4.4h0.1l1.4-4.4h0.7l-2,6.1c-0.2,0.6-0.4,1-0.6,1.1s-0.6,0.2-1.3,0.3v-0.6
				c0.4,0,0.7-0.1,0.8-0.2s0.3-0.3,0.4-0.7l0.3-0.8L199.6,260.7z"/>
			<path class="st5" d="M206.9,265.9v-1.3h1.2v1.3H206.9z"/>
			<path class="st4" d="M36.7,288.6l0.2-1.1c-0.3-0.1-0.6-0.1-0.8-0.1c-0.9,0-1.5,0.7-1.7,2.1c-0.1,0.6,0,1.2,0.2,1.6
				s0.6,0.6,1.1,0.6c0.3,0,0.7-0.1,1.3-0.3l0.1,0.5c-0.6,0.2-1.1,0.3-1.5,0.3c-0.7,0-1.2-0.2-1.5-0.7s-0.4-1.1-0.3-2
				c0.3-1.8,1.1-2.7,2.4-2.7c0.5,0,0.9,0.1,1.4,0.2l-0.3,1.5h-0.6V288.6z"/>
			<path class="st4" d="M41.4,292.2c-1.4,0-2-0.9-1.8-2.7c0.3-1.8,1-2.7,2.3-2.7c0.7,0,1.2,0.2,1.5,0.7c0.3,0.4,0.4,1.1,0.3,2
				C43.5,291.3,42.7,292.2,41.4,292.2z M43,287.9c-0.2-0.4-0.6-0.6-1-0.6s-0.9,0.2-1.1,0.5c-0.3,0.4-0.5,0.9-0.6,1.6
				s-0.1,1.2,0.1,1.6c0.2,0.4,0.6,0.6,1.1,0.5c0.9,0,1.5-0.7,1.7-2.1C43.2,288.8,43.2,288.3,43,287.9z"/>
			<path class="st4" d="M47,286.8v0.4c0.7-0.3,1.3-0.5,1.7-0.5s0.8,0.2,1,0.5s0.3,0.8,0.2,1.3l-0.5,3.5h-0.6l0.6-3.5
				c0-0.4,0-0.7-0.1-0.9c-0.1-0.2-0.4-0.3-0.7-0.3c-0.4,0-0.9,0.2-1.6,0.5l-0.7,4.2h-0.6l0.9-5.2H47z"/>
			<path class="st4" d="M52.8,290.3l0.5-2.8h-1l0.1-0.5h1l0.2-1.3l0.6-0.1L54,287h1.8l-0.1,0.5h-1.8l-0.5,2.8c0,0.1,0,0.2,0,0.3
				c0,0.1,0,0.2,0,0.3c0,0.1,0,0.1,0,0.2s0,0.2,0,0.2l0.1,0.1c0.1,0.1,0.2,0.2,0.6,0.2s0.7-0.1,1.1-0.2l0.1,0.5
				c-0.4,0.2-0.8,0.2-1.2,0.2s-0.7-0.1-0.9-0.2s-0.3-0.3-0.3-0.6C52.7,291.1,52.8,290.7,52.8,290.3z"/>
			<path class="st4" d="M59.6,292.2c-0.6,0-1-0.2-1.3-0.5s-0.4-0.8-0.4-1.5c0-0.8,0.2-1.5,0.6-2.2c0.2-0.3,0.5-0.6,0.8-0.8
				c0.3-0.2,0.7-0.3,1.2-0.3c0.1,0,0.3,0,0.5,0.1s0.4,0.1,0.5,0.2l0.1-0.2h0.6l-0.7,4v1.2l-0.5,0.1l0-1.3c-0.2,0.3-0.4,0.5-0.6,0.8
				C60.1,292.1,59.9,292.2,59.6,292.2z M59.6,291.6c0.2,0,0.5-0.2,0.8-0.6c0.4-0.4,0.6-0.7,0.7-0.9l0.4-2.4c-0.4-0.2-0.7-0.3-1-0.3
				c-0.6,0-1.1,0.3-1.5,0.8c-0.4,0.6-0.5,1.2-0.5,1.9c0,0.4,0.1,0.8,0.3,1.1C59,291.4,59.3,291.6,59.6,291.6z"/>
			<path class="st4" d="M67.5,288.6l0.2-1.1c-0.3-0.1-0.6-0.1-0.8-0.1c-0.9,0-1.5,0.7-1.7,2.1c-0.1,0.6,0,1.2,0.2,1.6
				s0.6,0.6,1.1,0.6c0.3,0,0.7-0.1,1.3-0.3l0.1,0.5c-0.6,0.2-1.1,0.3-1.5,0.3c-0.7,0-1.2-0.2-1.5-0.7s-0.4-1.1-0.3-2
				c0.3-1.8,1.1-2.7,2.4-2.7c0.5,0,0.9,0.1,1.4,0.2l-0.3,1.5h-0.6V288.6z"/>
			<path class="st4" d="M71.3,290.3l0.5-2.8h-1l0.1-0.5h1l0.2-1.3l0.6-0.1l-0.2,1.4h1.8l-0.1,0.5h-1.8l-0.5,2.8c0,0.1,0,0.2,0,0.3
				c0,0.1,0,0.2,0,0.3c0,0.1,0,0.1,0,0.2s0,0.2,0,0.2l0.1,0.1c0.1,0.1,0.2,0.2,0.6,0.2s0.7-0.1,1.1-0.2l0.1,0.5
				c-0.4,0.2-0.8,0.2-1.2,0.2s-0.7-0.1-0.9-0.2c-0.2-0.1-0.3-0.3-0.3-0.6C71.2,291.1,71.2,290.7,71.3,290.3z"/>
		</g>
	</g>
</g>
<g id="Layer_12">
</g>
</svg>
