<?xml version="1.0" encoding="utf-8"?>
<!-- Generator: Adobe Illustrator 19.2.1, SVG Export Plug-In . SVG Version: 6.00 Build 0)  -->
<svg version="1.1" id="Layer_1" xmlns="http://www.w3.org/2000/svg" xmlns:xlink="http://www.w3.org/1999/xlink" x="0px" y="0px"
	 viewBox="0 0 30 40" style="enable-background:new 0 0 30 40;" xml:space="preserve">
<style type="text/css">
	.st0{display:none;}
	.st1{opacity:0.7;}
	.st2{display:inline;}
	.st3{fill:#00D2A0;stroke:#00D2A0;stroke-width:0.1151;stroke-miterlimit:10;}
	.st4{display:inline;fill:#00D2A0;stroke:#00D2A0;stroke-width:0.1151;stroke-miterlimit:10;}
	.st5{fill:none;stroke:#FFFFFF;stroke-width:1.3;stroke-linejoin:round;stroke-miterlimit:10;}
</style>
<g id="Layer_9" class="st0">
</g>
<g id="box">
</g>
<g id="btns">
</g>
<g id="title">
</g>
<g id="descr">
</g>
<g id="legenda">
</g>
<g id="lines">
</g>
<g id="svg">
</g>
<g id="numbers_copy" class="st1">
</g>
<g id="Layer_16">
</g>
<g id="numbers">
</g>
<g id="numbers_white">
</g>
<g id="text">
	<g id="New_Symbol">
	</g>
	<g class="st0">
		<g class="st2">
			<path class="st3" d="M14.6,23.4L10,19.8l-1.8-4l10.2,2.5L14.6,23.4z M6.7,27.2L3,14.6l6.8,5.3L6.7,27.2z M6.8,6.6L8,7.8v5.3L4,14
				l-1,0.2L6.8,6.6z M8,15.5l-4.8-1.2h0.2l4.7-1l0,0l6-1.3L8,15.5z M8,15.7l1.7,3.8l-6.5-5L8,15.7z M18.6,18.2L18.6,18.2L8.3,15.6
				l6.4-3.8c0,0,0.1-0.1,0-0.1l-0.1-0.1L8.1,13V7.8c0,0,0,0,0-0.1L6.8,6.4H6.7c0,0-0.1,0-0.1,0.1l-3.9,7.9l0,0l0,0l0,0l0,0l0,0l0,0
				l0,0l0,0l0,0l0,0l0,0l0,0l0,0l0,0l0,0l0,0l0,0l0,0l0,0l0,0l3.9,13.1c0,0,0,0.1,0.1,0.1l0,0c0,0,0.1,0,0.1-0.1L10,20l4.6,3.6
				c0,0,0,0,0.1,0l0,0c0,0,0,0,0.1,0L18.6,18.2C18.6,18.3,18.6,18.3,18.6,18.2"/>
		</g>
	</g>
	<g class="st0">
		<path class="st4" d="M2.1,27.8L2.1,27.8C2.1,27.7,2.1,27.7,2.1,27.8V15c0,0,0,0,0-0.1c0,0,0,0,0.1,0l5.5,1.2l0,0L9.5,19
			c0,0,0,0,0,0.1l-3.6,6.7l0,0L2.1,27.8C2.2,27.8,2.1,27.8,2.1,27.8 M2.2,15.1v12.5l3.5-1.8l3.6-6.7l-1.8-2.9L2.2,15.1z"/>
		<path class="st4" d="M2.1,15L2.1,15L2.1,15l3.6-9.2c0,0,0,0,0.1,0h0.1l1.8,6.7v0.1L2.1,15C2.2,15,2.1,15,2.1,15 M5.8,6.1l-3.5,8.7
			l5.2-2.2L5.8,6.1z"/>
		<path class="st4" d="M7.6,16.3L7.6,16.3L2.1,15c0,0,0,0-0.1-0.1v-0.1l12.7-5.5h0.1v0.1L7.6,16.3L7.6,16.3 M2.4,15l5.2,1.2l7-6.4
			L2.4,15z"/>
		<path class="st4" d="M14.9,22.3C14.8,22.3,14.8,22.3,14.9,22.3L2.1,15v-0.1c0,0,0,0,0.1,0l16.3,3.6l0,0c0,0,0,0,0,0.1L14.9,22.3
			L14.9,22.3 M2.6,15.1l12.3,7l3.5-3.5L2.6,15.1z"/>
	</g>
	<g>
		<path class="st5" d="M10.9,36.5c-0.1,0-0.1,0-0.2-0.1l-8.2-19c0-0.1,0-0.1,0-0.2l0.1-0.1L16.2,19c0.1,0,0.1,0.1,0.1,0.2v5.6
			c0,0,0,0,0,0.1L10.9,36.5C11,36.5,11,36.5,10.9,36.5L10.9,36.5z M10.9,36l5.3-11.1v-5.4L3,17.6L10.9,36z"/>
		<path class="st5" d="M2.7,17.5L2.7,17.5c-0.1,0-0.2-0.1-0.2-0.2L5.3,6.4c0,0,0-0.1,0.1-0.1l5.4-2.7c0,0,0,0,0.1,0H11
			c0.1,0,0.1,0.1,0.1,0.1v10.1c0,0.1,0,0.1-0.1,0.2L2.7,17.5C2.8,17.5,2.8,17.5,2.7,17.5z M3,17.1l7.7-3.3V4L5.6,6.6L3,17.1z"/>
		<path class="st5" d="M2.7,17.5c-0.1,0-0.1-0.1-0.1-0.1c0-0.1,0-0.1,0.1-0.2l19-8.2c0,0,0,0,0.1,0c0,0,0.1,0,0.1,0.1s0.1,0.1,0,0.2
			l-5.4,10.1c0,0.1-0.1,0.1-0.1,0.1L2.7,17.5z M16.2,19.1l5.2-9.6l-18,7.7L16.2,19.1z"/>
		<path class="st5" d="M27.2,31.1L27.2,31.1L2.7,17.5c-0.1,0-0.1-0.1-0.1-0.2s0.1-0.1,0.2-0.1l19.1,2.7c0.1,0,0.1,0,0.1,0.1
			l5.4,10.9c0,0.1,0,0.1,0,0.2C27.3,31.1,27.3,31.1,27.2,31.1z M26.8,30.5l-5.2-10.3l-18-2.6L26.8,30.5z"/>
	</g>
</g>
<g id="Layer_12">
</g>
<g id="Layer_11">
</g>
</svg>
