<?xml version="1.0" encoding="utf-8"?>
<!-- Generator: Adobe Illustrator 19.2.1, SVG Export Plug-In . SVG Version: 6.00 Build 0)  -->
<svg version="1.1" xmlns="http://www.w3.org/2000/svg" xmlns:xlink="http://www.w3.org/1999/xlink" x="0px" y="0px"
	 viewBox="0 0 400 180" style="enable-background:new 0 0 400 180;" xml:space="preserve">
<style type="text/css">
	.st0{display:none;}
	.st1{display:inline;fill:#FF3C36;stroke:#FFFFFF;stroke-width:1.2346;stroke-miterlimit:10;}
	.st2{display:inline;fill:#FFFBF8;}
	.st3{fill:#FFFFFF;}
	.st4{fill:none;stroke:#25596B;stroke-miterlimit:10;}
	.st5{fill:#25596B;}
	.st6{fill:#FF3C36;}
	.st7{fill:#FFF5EB;stroke:#FFF5EB;stroke-width:0.5;stroke-linecap:round;stroke-linejoin:round;stroke-miterlimit:10;}
	.st8{fill:none;}
	.st9{fill:#86AAB6;}
	.st10{opacity:0.7;}
	.st11{fill:#FF3D36;}
	.st12{fill:#26596B;}
	.st13{fill:#FF3D36;stroke:#FF3D36;stroke-width:0.2;stroke-miterlimit:10;}
	.st14{fill:#26596B;stroke:#26596B;stroke-width:0.2166;stroke-miterlimit:10;}
	.st15{fill:#26596B;stroke:#26596B;stroke-width:0.5;stroke-miterlimit:10;}
	.st16{fill:#61F0BD;stroke:#61F0BD;stroke-width:0.5;stroke-miterlimit:10;}
	.st17{fill:#26596B;stroke:#25596B;stroke-width:0.5;stroke-miterlimit:10;}
	.st18{fill:#FF3D36;stroke:#FF3D36;stroke-width:0.5;stroke-miterlimit:10;}
	.st19{fill:#61F0BD;}
	.st20{fill:#C95466;stroke:#C95466;stroke-width:0.5;stroke-miterlimit:10;}
	.st21{fill:#C95466;}
	.st22{fill:#D8D3CE;stroke:#D8D3CE;stroke-width:0.5;stroke-miterlimit:10;}
	.st23{fill:#D8D3CE;}
	.st24{fill:#86AAB6;stroke:#86AAB6;stroke-width:0.5;stroke-miterlimit:10;}
	.st25{fill:#26596B;stroke:#25596B;stroke-width:0.5;stroke-linecap:round;stroke-linejoin:round;stroke-miterlimit:10;}
	.st26{fill:#FF3D36;stroke:#FF3C36;stroke-width:0.5;stroke-linecap:round;stroke-linejoin:round;stroke-miterlimit:10;}
	.st27{fill:#FF3D36;stroke:#FF3D36;stroke-width:0.1962;stroke-miterlimit:10;}
	.st28{fill:#26596B;stroke:#26596B;stroke-width:0.2985;stroke-miterlimit:10;}
	.st29{fill:#61F0BD;stroke:#61F0BD;stroke-width:0.5055;stroke-miterlimit:10;}
	.st30{fill:#C95466;stroke:#C95466;stroke-width:0.5055;stroke-miterlimit:10;}
	.st31{fill:#D8D3CE;stroke:#D8D3CE;stroke-width:0.5055;stroke-miterlimit:10;}
	.st32{opacity:0.2;}
	.st33{fill:#25596B;stroke:#FF3D36;stroke-width:9.741769e-02;stroke-miterlimit:10;}
	.st34{opacity:0.3;}
	.st35{fill:none;stroke:#231F20;stroke-miterlimit:10;}
	.st36{fill:#61F0BD;stroke:#26596B;stroke-width:9.501817e-02;stroke-miterlimit:10;}
	.st37{fill:#61F0BD;stroke:#26596B;stroke-width:8.140191e-02;stroke-miterlimit:10;}
	.st38{fill:none;stroke:#26596B;stroke-width:0.5;stroke-miterlimit:10;}
</style>
<g id="Layer_9" class="st0">
	<rect x="-18.3" y="-11.4" class="st2" width="1542.5" height="931.2"/>
</g>
<g id="box">
</g>
<g id="btns">
</g>
<g id="title">
</g>
<g id="descr">
</g>
<g id="legenda">
</g>
<g id="lines">
</g>
<g id="svg">
</g>
<g id="numbers_copy" class="st10">
</g>
<g id="Layer_16">
</g>
<g id="numbers">
</g>
<g id="numbers_white">
</g>
<g id="text">
	<g id="New_Symbol">
	</g>
	<g>
		<g>
			<g>
				<path class="st16" d="M66.1,83.8L46.2,68.3l-7.8-17.5l44.1,11L66.1,83.8z M32.1,100.2L15.7,45.6l29.7,23.1L32.1,100.2z M32.1,11
					l5.2,5.2v22.9L19.9,43l-4.2,0.9L32.1,11z M37.6,49.7l-20.9-5.2l0.8-0.2l20.2-4.5c0,0,0,0,0,0l26-5.8L37.6,49.7z M37.4,50.5
					l7.4,16.7L16.7,45.4L37.4,50.5z M83.6,61.4c0-0.1-0.2-0.2-0.3-0.3L38.8,50l27.6-16.6c0.2-0.1,0.2-0.3,0.2-0.5
					c-0.1-0.2-0.3-0.3-0.5-0.3l-28,6.2V16c0-0.1,0-0.2-0.1-0.3L32.3,10c-0.1-0.1-0.2-0.1-0.4-0.1c-0.1,0-0.2,0.1-0.3,0.2L14.5,44.3
					c0,0,0,0,0,0l0,0l0,0l0,0c0,0,0,0,0,0c0,0,0,0,0,0l0,0c0,0,0,0,0,0c0,0,0,0,0,0c0,0,0,0,0,0c0,0,0,0,0,0v0c0,0,0,0,0,0l0,0
					c0,0,0,0,0,0c0,0,0,0,0,0c0,0,0,0,0,0c0,0,0,0,0,0l0,0l0,0l17.1,56.9c0.1,0.2,0.2,0.3,0.4,0.3h0c0.2,0,0.3-0.1,0.4-0.3L46,69.2
					l19.9,15.4c0.1,0.1,0.2,0.1,0.3,0.1c0,0,0,0,0.1,0c0.1,0,0.2-0.1,0.3-0.2l17.1-22.8C83.7,61.7,83.7,61.6,83.6,61.4"/>
			</g>
		</g>
		<g>
			<path class="st15" d="M34.1,138.9l0.1,0.6c0.7-0.5,1.2-0.7,1.5-0.7c0.9,0,1.5,0.3,1.8,0.9c0.7-0.6,1.4-0.9,2-0.9
				c0.9,0,1.5,0.3,1.8,0.8c0.3,0.5,0.5,1.4,0.5,2.5v6.4h-1.1v-6.4c0-0.8-0.1-1.3-0.2-1.7c-0.2-0.4-0.5-0.5-0.9-0.5
				c-0.5,0-1,0.2-1.7,0.6c0.1,0.5,0.1,1,0.1,1.6v3.3h-1.1v-3.3c0-0.8-0.1-1.3-0.2-1.7c-0.2-0.4-0.5-0.6-0.9-0.6s-1,0.2-1.6,0.6v8
				h-1.1v-9.5H34.1z"/>
			<path class="st15" d="M47.1,148.6c-1,0-1.7-0.2-2.3-0.8s-0.8-1.2-0.8-2.1s0.3-1.6,0.9-2.1c0.6-0.5,1.4-0.8,2.4-0.8
				c1,0,1.9,0,2.7,0.1c0-1.2-0.1-2-0.4-2.4s-0.9-0.7-1.8-0.7c-0.9,0-1.9,0.2-3.2,0.6l-0.3-1c1.2-0.5,2.4-0.7,3.4-0.7
				c1.3,0,2.2,0.3,2.7,0.9c0.5,0.6,0.7,1.6,0.7,3.1v4.2l0.2,1.5l-1,0.1l-0.2-1.2c-0.3,0.3-0.7,0.5-1.3,0.8
				C48.1,148.5,47.6,148.6,47.1,148.6z M47.1,147.6c0.5,0,1-0.2,1.6-0.5c0.6-0.3,1-0.6,1.3-0.9v-2.4c-0.9-0.1-1.7-0.1-2.5-0.1
				c-0.8,0-1.4,0.2-1.8,0.5s-0.6,0.8-0.6,1.4C45.1,146.9,45.8,147.6,47.1,147.6z"/>
			<path class="st15" d="M54.7,152.3v-11.6l-0.2-1.7l1-0.1l0.2,1.1c1-0.7,1.9-1.1,2.8-1.1c1.2,0,2.1,0.4,2.8,1.3
				c0.7,0.9,1,2.1,1,3.6c0,1.5-0.4,2.7-1.1,3.6s-1.7,1.3-3,1.3c-0.7,0-1.5-0.2-2.4-0.5v4.2H54.7z M61.1,143.7c0-1.2-0.2-2.1-0.7-2.8
				c-0.5-0.7-1.1-1-2-1s-1.7,0.4-2.7,1.1v6c0.3,0.1,0.7,0.3,1.1,0.4c0.5,0.1,0.9,0.2,1.2,0.2c0.9,0,1.7-0.3,2.2-1
				C60.8,145.8,61.1,144.9,61.1,143.7z"/>
			<path class="st15" d="M65.1,152.3v-11.6l-0.2-1.7l1-0.1l0.2,1.1c1-0.7,1.9-1.1,2.8-1.1c1.2,0,2.1,0.4,2.8,1.3
				c0.7,0.9,1,2.1,1,3.6c0,1.5-0.4,2.7-1.1,3.6s-1.7,1.3-3,1.3c-0.7,0-1.5-0.2-2.4-0.5v4.2H65.1z M71.5,143.7c0-1.2-0.2-2.1-0.7-2.8
				c-0.5-0.7-1.1-1-2-1s-1.7,0.4-2.7,1.1v6c0.3,0.1,0.7,0.3,1.1,0.4c0.5,0.1,0.9,0.2,1.2,0.2c0.9,0,1.7-0.3,2.2-1
				C71.2,145.8,71.5,144.9,71.5,143.7z"/>
			<path class="st15" d="M76.4,139.9v-1h3.4v8.5h2.3v1h-5.9v-1h2.5v-7.5H76.4z M79.2,137c-0.2,0-0.4-0.1-0.6-0.2s-0.2-0.4-0.2-0.6
				c0-0.3,0.1-0.5,0.2-0.6s0.4-0.2,0.6-0.2c0.2,0,0.4,0.1,0.6,0.2c0.2,0.1,0.2,0.4,0.2,0.6c0,0.3-0.1,0.5-0.2,0.7
				C79.6,136.9,79.4,137,79.2,137z"/>
			<path class="st15" d="M86.9,138.9l0,0.8c1.3-0.6,2.4-0.9,3.2-0.9c0.9,0,1.5,0.3,2,0.9c0.5,0.6,0.7,1.4,0.7,2.4v6.3h-1.1v-6.3
				c0-0.7-0.2-1.2-0.5-1.6c-0.3-0.4-0.8-0.6-1.4-0.6s-1.6,0.3-3,0.9v7.7h-1.1v-9.5H86.9z"/>
			<path class="st15" d="M103.3,146.1l0.1,2.8c0,1.2-0.4,2.1-1.1,2.7s-1.6,0.9-2.6,0.9s-2.3-0.3-3.6-0.8l0.4-1
				c1.3,0.5,2.4,0.8,3.1,0.8c0.8,0,1.4-0.2,2-0.6c0.5-0.4,0.8-1,0.8-1.9c0-0.1,0-0.3,0-0.7c0-0.4,0-0.6,0-0.8c-1,0.7-1.9,1-2.7,1
				c-1.2,0-2.1-0.4-2.8-1.2c-0.6-0.8-1-2-1-3.5c0-1.5,0.4-2.7,1.1-3.6c0.7-0.9,1.7-1.3,3-1.3c0.7,0,1.5,0.2,2.4,0.7l0-0.6h1V146.1z
				 M96.9,143.6c0,1.2,0.2,2.1,0.7,2.7s1.1,1,2,1s1.8-0.4,2.7-1.1v-5.6c-0.8-0.5-1.6-0.8-2.3-0.8c-0.9,0-1.7,0.3-2.2,1
				S96.9,142.5,96.9,143.6z"/>
			<path class="st15" d="M122.7,142v-2c-0.7-0.1-1.2-0.2-1.6-0.2c-1,0-1.7,0.3-2.1,1c-0.5,0.7-0.7,1.6-0.7,2.8s0.2,2.1,0.7,2.8
				s1.2,1,2.1,1c0.6,0,1.4-0.2,2.5-0.6l0.3,1c-1.1,0.4-2,0.6-2.8,0.6c-1.3,0-2.3-0.4-3-1.3c-0.7-0.9-1-2.1-1-3.7
				c0-1.6,0.3-2.8,1-3.6c0.7-0.8,1.7-1.2,3-1.2c0.9,0,1.8,0.1,2.6,0.4v2.8H122.7z"/>
			<path class="st15" d="M127.1,143.7c0-3.3,1.3-4.9,3.8-4.9c2.5,0,3.8,1.6,3.8,4.9s-1.3,4.9-3.8,4.9
				C128.4,148.6,127.1,147,127.1,143.7z M131,139.8c-1.8,0-2.7,1.3-2.7,3.9s0.9,3.9,2.7,3.9c1.8,0,2.7-1.3,2.7-3.9
				S132.7,139.8,131,139.8z"/>
			<path class="st15" d="M143.8,148.4l0-0.8c-1.3,0.7-2.3,1-3.2,1c-0.9,0-1.5-0.3-2-0.9c-0.5-0.6-0.7-1.4-0.7-2.4v-6.4h1.1v6.4
				c0,0.7,0.2,1.2,0.5,1.6c0.3,0.4,0.8,0.6,1.4,0.6s1.6-0.3,3-1v-7.6h1.1v9.5H143.8z"/>
			<path class="st15" d="M148.6,139.9v-1h2.9l0,1.2c0.4-0.3,1-0.5,1.8-0.8c0.8-0.3,1.5-0.4,2-0.5v1.2c-0.5,0-1.2,0.2-2,0.4
				s-1.4,0.5-1.8,0.7v6.3h3.2v1h-6.2v-1h1.9v-7.5H148.6z"/>
			<path class="st15" d="M158.7,148l0.3-1c1.3,0.4,2.3,0.7,3.1,0.7c0.7,0,1.3-0.2,1.7-0.5c0.4-0.3,0.6-0.7,0.6-1.2
				c0-0.5-0.2-0.9-0.5-1.2c-0.3-0.2-1-0.5-1.9-0.7c-1-0.2-1.7-0.6-2.2-1c-0.5-0.4-0.7-1-0.7-1.8s0.3-1.4,0.9-1.8
				c0.6-0.4,1.4-0.6,2.4-0.6s2,0.2,3.1,0.6l-0.3,0.9c-1.1-0.4-2-0.6-2.7-0.6c-0.7,0-1.2,0.1-1.6,0.4c-0.4,0.3-0.6,0.6-0.6,1.1
				c0,0.5,0.2,0.8,0.5,1.1c0.4,0.3,1,0.5,2,0.8s1.7,0.6,2.2,1c0.4,0.4,0.6,1,0.6,1.9c0,0.8-0.3,1.5-0.9,2c-0.6,0.5-1.4,0.7-2.4,0.7
				S160,148.4,158.7,148z"/>
			<path class="st15" d="M168.9,143.7c0-1.5,0.3-2.7,1-3.6s1.6-1.3,2.8-1.3c1.2,0,2.1,0.4,2.7,1.2s0.9,1.9,0.9,3.2l-0.1,1H170
				c0.1,1,0.3,1.8,0.8,2.4s1.1,0.9,1.9,0.9s1.8-0.2,2.9-0.6l0.3,1c-1.1,0.4-2.1,0.6-3,0.6c-1.3,0-2.3-0.4-3-1.3
				C169.2,146.4,168.9,145.2,168.9,143.7z M172.7,139.8c-1.7,0-2.6,1.1-2.7,3.4h5C175.1,140.9,174.3,139.8,172.7,139.8z"/>
			<path class="st15" d="M179.5,148l0.3-1c1.3,0.4,2.3,0.7,3.1,0.7c0.7,0,1.3-0.2,1.7-0.5c0.4-0.3,0.6-0.7,0.6-1.2
				c0-0.5-0.2-0.9-0.5-1.2c-0.3-0.2-1-0.5-1.9-0.7c-1-0.2-1.7-0.6-2.2-1c-0.5-0.4-0.7-1-0.7-1.8s0.3-1.4,0.9-1.8
				c0.6-0.4,1.4-0.6,2.4-0.6s2,0.2,3.1,0.6l-0.3,0.9c-1.1-0.4-2-0.6-2.7-0.6c-0.7,0-1.2,0.1-1.6,0.4c-0.4,0.3-0.6,0.6-0.6,1.1
				c0,0.5,0.2,0.8,0.5,1.1c0.4,0.3,1,0.5,2,0.8s1.7,0.6,2.2,1c0.4,0.4,0.6,1,0.6,1.9c0,0.8-0.3,1.5-0.9,2c-0.6,0.5-1.4,0.7-2.4,0.7
				S180.8,148.4,179.5,148z"/>
			<path class="st15" d="M203.1,148.6c-1,0-1.7-0.2-2.3-0.8s-0.8-1.2-0.8-2.1s0.3-1.6,0.9-2.1c0.6-0.5,1.4-0.8,2.4-0.8
				c1,0,1.9,0,2.7,0.1c0-1.2-0.1-2-0.4-2.4s-0.9-0.7-1.8-0.7c-0.9,0-1.9,0.2-3.2,0.6l-0.3-1c1.2-0.5,2.4-0.7,3.4-0.7
				c1.3,0,2.2,0.3,2.7,0.9c0.5,0.6,0.7,1.6,0.7,3.1v4.2l0.2,1.5l-1,0.1l-0.2-1.2c-0.3,0.3-0.7,0.5-1.3,0.8
				C204.1,148.5,203.6,148.6,203.1,148.6z M203.1,147.6c0.5,0,1-0.2,1.6-0.5c0.6-0.3,1-0.6,1.3-0.9v-2.4c-0.9-0.1-1.7-0.1-2.5-0.1
				c-0.8,0-1.4,0.2-1.8,0.5s-0.6,0.8-0.6,1.4C201.1,146.9,201.8,147.6,203.1,147.6z"/>
			<path class="st15" d="M211.7,138.9l0,0.8c1.3-0.6,2.4-0.9,3.2-0.9c0.9,0,1.5,0.3,2,0.9c0.5,0.6,0.7,1.4,0.7,2.4v6.3h-1.1v-6.3
				c0-0.7-0.2-1.2-0.5-1.6c-0.3-0.4-0.8-0.6-1.4-0.6s-1.6,0.3-3,0.9v7.7h-1.1v-9.5H211.7z"/>
			<path class="st15" d="M228.1,135.1v11.6l0.2,1.7l-1,0.1l-0.2-1.1c-1,0.7-1.9,1-2.8,1c-1.2,0-2.1-0.4-2.8-1.3
				c-0.7-0.9-1-2.1-1-3.6c0-1.5,0.4-2.7,1.1-3.6c0.7-0.9,1.7-1.3,3-1.3c0.7,0,1.5,0.2,2.4,0.5v-4.2H228.1z M221.7,143.7
				c0,1.2,0.2,2.1,0.7,2.8c0.5,0.7,1.1,1.1,2,1.1s1.8-0.4,2.7-1.1v-6c-0.3-0.1-0.7-0.3-1.1-0.4c-0.5-0.1-0.9-0.2-1.2-0.2
				c-0.9,0-1.7,0.3-2.2,1C222,141.6,221.7,142.5,221.7,143.7z"/>
			<path class="st15" d="M247.8,148.4l0-0.8c-1.3,0.7-2.3,1-3.2,1c-0.9,0-1.5-0.3-2-0.9c-0.5-0.6-0.7-1.4-0.7-2.4v-6.4h1.1v6.4
				c0,0.7,0.2,1.2,0.5,1.6c0.3,0.4,0.8,0.6,1.4,0.6s1.6-0.3,3-1v-7.6h1.1v9.5H247.8z"/>
			<path class="st15" d="M253.3,138.9l0,0.8c1.3-0.6,2.4-0.9,3.2-0.9c0.9,0,1.5,0.3,2,0.9c0.5,0.6,0.7,1.4,0.7,2.4v6.3h-1.1v-6.3
				c0-0.7-0.2-1.2-0.5-1.6c-0.3-0.4-0.8-0.6-1.4-0.6c-0.6,0-1.6,0.3-3,0.9v7.7h-1.1v-9.5H253.3z"/>
			<path class="st15" d="M263.6,139.9v-1h3.4v8.5h2.3v1h-5.9v-1h2.5v-7.5H263.6z M266.4,137c-0.2,0-0.4-0.1-0.6-0.2
				s-0.2-0.4-0.2-0.6c0-0.3,0.1-0.5,0.2-0.6s0.4-0.2,0.6-0.2c0.2,0,0.4,0.1,0.6,0.2c0.2,0.1,0.2,0.4,0.2,0.6c0,0.3-0.1,0.5-0.2,0.7
				C266.8,136.9,266.6,137,266.4,137z"/>
			<path class="st15" d="M272.6,138.9h1.2l2.6,8.5h0.4l2.5-8.5h1.2l-2.9,9.5h-2L272.6,138.9z"/>
			<path class="st15" d="M283.3,143.7c0-1.5,0.3-2.7,1-3.6s1.6-1.3,2.8-1.3c1.2,0,2.1,0.4,2.7,1.2s0.9,1.9,0.9,3.2l-0.1,1h-6.1
				c0.1,1,0.3,1.8,0.8,2.4s1.1,0.9,1.9,0.9s1.8-0.2,2.9-0.6l0.3,1c-1.1,0.4-2.1,0.6-3,0.6c-1.3,0-2.3-0.4-3-1.3
				C283.6,146.4,283.3,145.2,283.3,143.7z M287.1,139.8c-1.7,0-2.6,1.1-2.7,3.4h5C289.5,140.9,288.7,139.8,287.1,139.8z"/>
			<path class="st15" d="M294.2,139.9v-1h2.9l0,1.2c0.4-0.3,1-0.5,1.8-0.8c0.8-0.3,1.5-0.4,2-0.5v1.2c-0.5,0-1.2,0.2-2,0.4
				s-1.4,0.5-1.8,0.7v6.3h3.2v1h-6.2v-1h1.9v-7.5H294.2z"/>
			<path class="st15" d="M304.3,148l0.3-1c1.3,0.4,2.3,0.7,3.1,0.7c0.7,0,1.3-0.2,1.7-0.5c0.4-0.3,0.6-0.7,0.6-1.2
				c0-0.5-0.2-0.9-0.5-1.2c-0.3-0.2-1-0.5-1.9-0.7c-1-0.2-1.7-0.6-2.2-1c-0.5-0.4-0.7-1-0.7-1.8s0.3-1.4,0.9-1.8
				c0.6-0.4,1.4-0.6,2.4-0.6s2,0.2,3.1,0.6l-0.3,0.9c-1.1-0.4-2-0.6-2.7-0.6c-0.7,0-1.2,0.1-1.6,0.4c-0.4,0.3-0.6,0.6-0.6,1.1
				c0,0.5,0.2,0.8,0.5,1.1c0.4,0.3,1,0.5,2,0.8s1.7,0.6,2.2,1c0.4,0.4,0.6,1,0.6,1.9c0,0.8-0.3,1.5-0.9,2c-0.6,0.5-1.4,0.7-2.4,0.7
				S305.6,148.4,304.3,148z"/>
			<path class="st15" d="M315.6,139.9v-1h3.4v8.5h2.3v1h-5.9v-1h2.5v-7.5H315.6z M318.4,137c-0.2,0-0.4-0.1-0.6-0.2
				s-0.2-0.4-0.2-0.6c0-0.3,0.1-0.5,0.2-0.6s0.4-0.2,0.6-0.2c0.2,0,0.4,0.1,0.6,0.2c0.2,0.1,0.2,0.4,0.2,0.6c0,0.3-0.1,0.5-0.2,0.7
				C318.8,136.9,318.6,137,318.4,137z"/>
			<path class="st15" d="M326.8,140.1h-1.7v-1h1.7v-2.3l1.1-0.2v2.5h3.8v1h-3.8v4.7c0,1,0.1,1.8,0.3,2.2c0.2,0.4,0.6,0.6,1.3,0.6
				c0.6,0,1.3-0.1,2.1-0.4l0.2,1c-0.8,0.3-1.5,0.4-2.2,0.4c-0.7,0-1.2-0.1-1.6-0.3c-0.4-0.2-0.7-0.5-0.8-0.8
				c-0.2-0.4-0.3-0.8-0.4-1.2c-0.1-0.4-0.1-0.9-0.1-1.6V140.1z"/>
			<path class="st15" d="M336.4,139.9v-1h3.4v8.5h2.3v1h-5.9v-1h2.5v-7.5H336.4z M339.2,137c-0.2,0-0.4-0.1-0.6-0.2
				s-0.2-0.4-0.2-0.6c0-0.3,0.1-0.5,0.2-0.6s0.4-0.2,0.6-0.2c0.2,0,0.4,0.1,0.6,0.2c0.2,0.1,0.2,0.4,0.2,0.6c0,0.3-0.1,0.5-0.2,0.7
				C339.6,136.9,339.4,137,339.2,137z"/>
			<path class="st15" d="M345.7,143.7c0-1.5,0.3-2.7,1-3.6s1.6-1.3,2.8-1.3c1.2,0,2.1,0.4,2.7,1.2s0.9,1.9,0.9,3.2l-0.1,1h-6.1
				c0.1,1,0.3,1.8,0.8,2.4s1.1,0.9,1.9,0.9s1.8-0.2,2.9-0.6l0.3,1c-1.1,0.4-2.1,0.6-3,0.6c-1.3,0-2.3-0.4-3-1.3
				C346,146.4,345.7,145.2,345.7,143.7z M349.5,139.8c-1.7,0-2.6,1.1-2.7,3.4h5C351.9,140.9,351.1,139.8,349.5,139.8z"/>
			<path class="st15" d="M356.3,148l0.3-1c1.3,0.4,2.3,0.7,3.1,0.7c0.7,0,1.3-0.2,1.7-0.5c0.4-0.3,0.6-0.7,0.6-1.2
				c0-0.5-0.2-0.9-0.5-1.2c-0.3-0.2-1-0.5-1.9-0.7c-1-0.2-1.7-0.6-2.2-1c-0.5-0.4-0.7-1-0.7-1.8s0.3-1.4,0.9-1.8
				c0.6-0.4,1.4-0.6,2.4-0.6s2,0.2,3.1,0.6l-0.3,0.9c-1.1-0.4-2-0.6-2.7-0.6c-0.7,0-1.2,0.1-1.6,0.4c-0.4,0.3-0.6,0.6-0.6,1.1
				c0,0.5,0.2,0.8,0.5,1.1c0.4,0.3,1,0.5,2,0.8s1.7,0.6,2.2,1c0.4,0.4,0.6,1,0.6,1.9c0,0.8-0.3,1.5-0.9,2c-0.6,0.5-1.4,0.7-2.4,0.7
				S357.6,148.4,356.3,148z"/>
		</g>
		<g>
			<g>
				<path class="st16" d="M35.5,163.9c-0.4,0-0.7-0.1-0.9-0.2c-0.2-0.1-0.3-0.3-0.3-0.6c0-0.3,0-0.6,0.1-1l0.5-2.9h-1.3l0.1-0.5h1.9
					L35,162c-0.1,0.5-0.1,0.9-0.1,1c0,0.2,0.3,0.3,0.6,0.3c0.2,0,0.4,0,0.7-0.1l0.1,0.5L35.5,163.9z M35,157.3
					c0.1,0.1,0.2,0.1,0.3,0.1c0.3,0,0.5-0.2,0.5-0.5c0-0.2,0-0.3-0.1-0.4c-0.1-0.1-0.2-0.1-0.3-0.1c-0.3,0-0.5,0.2-0.5,0.5
					C34.9,157.1,34.9,157.3,35,157.3z"/>
				<path class="st16" d="M40.4,158.5l0,0.4c0.7-0.3,1.3-0.5,1.7-0.5c0.4,0,0.8,0.2,1,0.5c0.2,0.3,0.3,0.8,0.2,1.3l-0.5,3.5h-0.6
					l0.6-3.5c0-0.4,0-0.7-0.1-0.9c-0.1-0.2-0.4-0.3-0.7-0.3c-0.4,0-0.9,0.2-1.6,0.5l-0.7,4.2H39l0.9-5.2H40.4z"/>
				<path class="st16" d="M54.4,164l0.1-0.7c-0.5,0.3-0.9,0.4-1.3,0.4c-0.6,0-1.1-0.2-1.4-0.7c-0.3-0.5-0.4-1.1-0.3-1.9
					c0.1-0.8,0.4-1.5,0.8-2s1-0.7,1.7-0.7c0.4,0,0.8,0.1,1.2,0.4l0.1-0.3h0.6L55,164c-0.1,0.7-0.3,1.1-0.7,1.5
					c-0.4,0.3-0.9,0.5-1.5,0.5s-1.2-0.1-1.8-0.4l0.3-0.5c0.6,0.3,1.2,0.4,1.6,0.4s0.8-0.1,1.1-0.3C54.2,164.8,54.4,164.5,54.4,164z
					 M54.6,162.7l0.5-3.2c-0.4-0.3-0.8-0.4-1.2-0.4c-0.5,0-0.9,0.2-1.2,0.6c-0.3,0.4-0.5,0.9-0.6,1.5c-0.1,0.6,0,1.1,0.2,1.5
					s0.5,0.5,0.9,0.5C53.7,163.2,54.2,163,54.6,162.7z"/>
				<path class="st16" d="M59,158.8c0.3-0.2,0.7-0.3,1.1-0.3c0.4,0,0.8,0.1,1.1,0.4s0.4,0.6,0.4,1s-0.2,0.8-0.5,1.1
					c-0.3,0.3-0.8,0.5-1.4,0.6l-1.4,0.2c0,0.5,0.1,1,0.3,1.2c0.2,0.3,0.5,0.4,0.9,0.4s0.9-0.1,1.5-0.3l0.1,0.5
					c-0.6,0.2-1.2,0.3-1.7,0.3c-0.5,0-1-0.2-1.3-0.5c-0.3-0.4-0.5-0.9-0.5-1.5c0-0.8,0.2-1.6,0.5-2.2
					C58.5,159.2,58.7,158.9,59,158.8z M58.4,161.2l1.3-0.2c0.4-0.1,0.8-0.2,1-0.4c0.2-0.2,0.3-0.5,0.3-0.7c0-0.5-0.3-0.8-1-0.8
					c-0.5,0-0.9,0.2-1.2,0.6C58.7,160,58.5,160.5,58.4,161.2z"/>
				<path class="st16" d="M66,159.7l-0.7,4h-0.6l0.8-4.7h-1l0.1-0.5h1.6l-0.1,0.6c0.2-0.2,0.6-0.3,1-0.4c0.4-0.1,0.8-0.2,1.1-0.3
					l-0.1,0.6c-0.3,0-0.6,0.1-1.1,0.2S66.2,159.6,66,159.7z"/>
				<path class="st16" d="M70.6,158.5v0.3c0.4-0.3,0.7-0.4,0.9-0.4c0.4,0,0.7,0.2,0.8,0.5c0.4-0.3,0.8-0.5,1.1-0.5
					c0.5,0,0.8,0.1,0.9,0.4c0.1,0.3,0.2,0.7,0.1,1.4l-0.6,3.5h-0.6l0.6-3.5c0.1-0.4,0.1-0.6,0-0.9c-0.1-0.2-0.2-0.4-0.5-0.4
					c-0.2,0-0.5,0.1-0.9,0.4c0,0.3,0,0.6,0,0.9l-0.3,1.8h-0.6l0.3-1.8c0.2-0.8,0-1.2-0.5-1.2c-0.3,0-0.5,0.1-0.9,0.4l-0.7,4.4h-0.6
					l0.9-5.2H70.6z"/>
				<path class="st16" d="M77.7,163.8c-0.6,0-1-0.2-1.3-0.5s-0.4-0.8-0.4-1.5c0-0.8,0.2-1.5,0.6-2.2c0.2-0.3,0.5-0.6,0.8-0.8
					c0.3-0.2,0.7-0.3,1.2-0.3c0.1,0,0.3,0,0.5,0.1c0.2,0.1,0.4,0.1,0.5,0.2l0.1-0.2h0.6l-0.7,4l0,1.2l-0.5,0.1l-0.1-1.1
					c-0.2,0.3-0.4,0.5-0.6,0.8C78.2,163.7,78,163.8,77.7,163.8z M77.7,163.3c0.2,0,0.5-0.2,0.8-0.6c0.4-0.4,0.6-0.7,0.7-0.9l0.4-2.4
					c-0.4-0.2-0.7-0.3-1-0.3c-0.6,0-1.1,0.3-1.5,0.8c-0.4,0.6-0.5,1.2-0.5,1.9c0,0.4,0.1,0.8,0.3,1.1
					C77.1,163.1,77.3,163.3,77.7,163.3z"/>
				<path class="st16" d="M83.5,158.5l0,0.4c0.7-0.3,1.3-0.5,1.7-0.5c0.4,0,0.8,0.2,1,0.5c0.2,0.3,0.3,0.8,0.2,1.3l-0.5,3.5h-0.6
					l0.6-3.5c0-0.4,0-0.7-0.1-0.9c-0.1-0.2-0.4-0.3-0.7-0.3c-0.4,0-0.9,0.2-1.6,0.5l-0.7,4.2h-0.6l0.9-5.2H83.5z"/>
				<path class="st16" d="M88.8,158.5h0.6l0.6,4.4h0.1l2-4.4h0.6l-2.8,6.1c-0.3,0.6-0.5,0.9-0.8,1.1c-0.3,0.2-0.7,0.3-1.4,0.3
					l0.1-0.6c0.4,0,0.7-0.1,0.9-0.2c0.2-0.1,0.4-0.3,0.5-0.7l0.3-0.8L88.8,158.5z"/>
			</g>
		</g>
		<g>
			<path class="st16" d="M94.2,101.6l1.2-7.3H96l-0.4,2.6c0.6-0.4,1-0.6,1.5-0.6c0.6,0,1.1,0.2,1.4,0.7c0.3,0.5,0.4,1.1,0.3,1.9
				s-0.4,1.5-0.8,2s-1,0.8-1.7,0.8c-0.2,0-0.4,0-0.7-0.1c-0.3-0.1-0.5-0.1-0.6-0.2l-0.1,0.2H94.2z M98,99c0.1-0.6,0-1.2-0.2-1.5
				c-0.2-0.4-0.5-0.5-1-0.5c-0.4,0-0.9,0.2-1.5,0.6l-0.5,3.3c0.1,0.1,0.3,0.1,0.6,0.2c0.3,0.1,0.5,0.1,0.7,0.1
				c0.5,0,0.9-0.2,1.2-0.6C97.8,100.1,98,99.6,98,99z"/>
			<path class="st16" d="M102.3,97.6l-0.7,4H101l0.8-4.7h-1l0.1-0.5h1.6l-0.1,0.6c0.2-0.2,0.6-0.3,1-0.4c0.4-0.1,0.8-0.2,1.1-0.3
				l-0.1,0.6c-0.3,0-0.6,0.1-1.1,0.2S102.5,97.5,102.3,97.6z"/>
			<path class="st16" d="M107.8,101.7c-0.6,0-1-0.2-1.3-0.5s-0.4-0.8-0.4-1.5c0-0.8,0.2-1.5,0.6-2.2c0.2-0.3,0.5-0.6,0.8-0.8
				c0.3-0.2,0.7-0.3,1.2-0.3c0.1,0,0.3,0,0.5,0.1c0.2,0.1,0.4,0.1,0.5,0.2l0.1-0.2h0.6l-0.7,4l0,1.2l-0.5,0.1l-0.1-1.1
				c-0.2,0.3-0.4,0.5-0.6,0.8C108.3,101.6,108.1,101.7,107.8,101.7z M107.8,101.1c0.2,0,0.5-0.2,0.8-0.6c0.4-0.4,0.6-0.7,0.7-0.9
				l0.4-2.4c-0.4-0.2-0.7-0.3-1-0.3c-0.6,0-1.1,0.3-1.5,0.8c-0.4,0.6-0.5,1.2-0.5,1.9c0,0.4,0.1,0.8,0.3,1.1
				C107.2,101,107.5,101.1,107.8,101.1z"/>
			<path class="st16" d="M113.7,96.4l0,0.4c0.7-0.3,1.3-0.5,1.7-0.5c0.4,0,0.8,0.2,1,0.5c0.2,0.3,0.3,0.8,0.2,1.3l-0.5,3.5h-0.6
				l0.6-3.5c0-0.4,0-0.7-0.1-0.9c-0.1-0.2-0.4-0.3-0.7-0.3c-0.4,0-0.9,0.2-1.6,0.5l-0.7,4.2h-0.6l0.9-5.2H113.7z"/>
			<path class="st16" d="M121.8,98.1L122,97c-0.3-0.1-0.6-0.1-0.8-0.1c-0.9,0-1.5,0.7-1.7,2.1c-0.1,0.6,0,1.2,0.2,1.6
				c0.2,0.4,0.6,0.6,1.1,0.6c0.3,0,0.7-0.1,1.3-0.3l0.1,0.5c-0.6,0.2-1.1,0.3-1.5,0.3c-0.7,0-1.2-0.2-1.5-0.7
				c-0.3-0.5-0.4-1.1-0.3-2c0.3-1.8,1.1-2.7,2.4-2.7c0.5,0,0.9,0.1,1.4,0.2l-0.3,1.5H121.8z"/>
			<path class="st16" d="M125.8,97.4l-0.7,4.3h-0.6l1.2-7.3h0.6l-0.4,2.5c0.7-0.3,1.3-0.5,1.7-0.5c0.5,0,0.8,0.2,1,0.5
				c0.2,0.3,0.3,0.8,0.2,1.3l-0.6,3.5h-0.5l0.6-3.5c0-0.4,0-0.7-0.1-0.9c-0.1-0.2-0.4-0.3-0.8-0.3C127,96.9,126.5,97.1,125.8,97.4z"
				/>
			<path class="st16" d="M132.2,96.6c0.3-0.2,0.7-0.3,1.1-0.3c0.4,0,0.8,0.1,1.1,0.4s0.4,0.6,0.4,1s-0.2,0.8-0.5,1.1
				c-0.3,0.3-0.8,0.5-1.4,0.6l-1.4,0.2c0,0.5,0.1,1,0.3,1.2c0.2,0.3,0.5,0.4,0.9,0.4s0.9-0.1,1.5-0.3l0.1,0.5
				c-0.6,0.2-1.2,0.3-1.7,0.3c-0.5,0-1-0.2-1.3-0.5c-0.3-0.4-0.5-0.9-0.5-1.5c0-0.8,0.2-1.6,0.5-2.2
				C131.7,97.1,131.9,96.8,132.2,96.6z M131.7,99l1.3-0.2c0.4-0.1,0.8-0.2,1-0.4c0.2-0.2,0.3-0.5,0.3-0.7c0-0.5-0.3-0.8-1-0.8
				c-0.5,0-0.9,0.2-1.2,0.6C131.9,97.9,131.7,98.4,131.7,99z"/>
			<path class="st16" d="M137.3,101.4l0.2-0.6c0.7,0.2,1.2,0.4,1.6,0.4c0.4,0,0.7-0.1,0.9-0.3c0.2-0.2,0.4-0.5,0.4-0.8
				c0-0.2-0.1-0.4-0.2-0.5c-0.2-0.1-0.5-0.2-0.9-0.4c-0.5-0.1-0.8-0.3-1-0.5c-0.2-0.2-0.4-0.5-0.4-0.8c0-0.5,0.2-0.9,0.5-1.2
				c0.3-0.3,0.8-0.4,1.3-0.4s1.1,0.1,1.6,0.3l-0.2,0.6c-0.5-0.2-1-0.3-1.4-0.3c-0.4,0-0.7,0.1-0.9,0.3c-0.2,0.2-0.4,0.4-0.4,0.6
				s0.1,0.4,0.3,0.5c0.2,0.1,0.5,0.2,1,0.4s0.8,0.3,1,0.5c0.2,0.2,0.3,0.5,0.3,0.9c0,0.4-0.2,0.8-0.5,1.1s-0.8,0.5-1.3,0.5
				S137.9,101.6,137.3,101.4z"/>
			<path class="st16" d="M151.2,101.7c-1.4,0-2-0.9-1.8-2.7c0.3-1.8,1-2.7,2.3-2.7c0.7,0,1.2,0.2,1.5,0.7c0.3,0.4,0.4,1.1,0.3,2
				C153.2,100.8,152.5,101.7,151.2,101.7z M152.7,97.5c-0.2-0.4-0.6-0.6-1-0.6s-0.9,0.2-1.1,0.5c-0.3,0.4-0.5,0.9-0.6,1.6
				c-0.1,0.7-0.1,1.2,0.1,1.6c0.2,0.4,0.6,0.6,1.1,0.5c0.9,0,1.5-0.7,1.7-2.1C153,98.4,153,97.8,152.7,97.5z"/>
			<path class="st16" d="M156.6,97h-1l0.1-0.5h1c0.2-1.5,0.8-2.2,1.8-2.2c0.3,0,0.7,0.1,1.1,0.2l-0.2,0.6c-0.4-0.1-0.7-0.2-0.9-0.2
				c-0.7,0-1,0.5-1.2,1.6h1.8l-0.1,0.5h-1.8c-0.2,1.7-0.4,3.2-0.6,4.3c-0.2,1.1-0.3,1.8-0.4,2.1l-0.1,0.4h-0.6
				c0-0.1,0.1-0.2,0.2-0.4c0.1-0.2,0.2-0.9,0.4-2C156.2,100.1,156.4,98.7,156.6,97z"/>
			<path class="st16" d="M166.6,101.4l0.2-0.6c0.7,0.2,1.2,0.4,1.6,0.4c0.4,0,0.7-0.1,0.9-0.3c0.2-0.2,0.4-0.5,0.4-0.8
				c0-0.2-0.1-0.4-0.2-0.5c-0.2-0.1-0.5-0.2-0.9-0.4c-0.5-0.1-0.8-0.3-1-0.5c-0.2-0.2-0.4-0.5-0.4-0.8c0-0.5,0.2-0.9,0.5-1.2
				c0.3-0.3,0.8-0.4,1.3-0.4s1.1,0.1,1.6,0.3l-0.2,0.6c-0.5-0.2-1-0.3-1.4-0.3c-0.4,0-0.7,0.1-0.9,0.3c-0.2,0.2-0.4,0.4-0.4,0.6
				s0.1,0.4,0.3,0.5c0.2,0.1,0.5,0.2,1,0.4s0.8,0.3,1,0.5c0.2,0.2,0.3,0.5,0.3,0.9c0,0.4-0.2,0.8-0.5,1.1s-0.8,0.5-1.3,0.5
				S167.2,101.6,166.6,101.4z"/>
			<path class="st16" d="M175.7,98.1l0.2-1.1c-0.3-0.1-0.6-0.1-0.8-0.1c-0.9,0-1.5,0.7-1.7,2.1c-0.1,0.6,0,1.2,0.2,1.6
				c0.2,0.4,0.6,0.6,1.1,0.6c0.3,0,0.7-0.1,1.3-0.3l0.1,0.5c-0.6,0.2-1.1,0.3-1.5,0.3c-0.7,0-1.2-0.2-1.5-0.7
				c-0.3-0.5-0.4-1.1-0.3-2c0.3-1.8,1.1-2.7,2.4-2.7c0.5,0,0.9,0.1,1.4,0.2l-0.3,1.5H175.7z"/>
			<path class="st16" d="M181.1,101.7c-0.4,0-0.7-0.1-0.9-0.2c-0.2-0.1-0.3-0.3-0.3-0.6c0-0.3,0-0.6,0.1-1l0.5-2.9h-1.3l0.1-0.5h1.9
				l-0.5,3.4c-0.1,0.5-0.1,0.9-0.1,1c0,0.2,0.3,0.3,0.6,0.3c0.2,0,0.4,0,0.7-0.1l0.1,0.5L181.1,101.7z M180.6,95.2
				c0.1,0.1,0.2,0.1,0.3,0.1c0.3,0,0.5-0.2,0.5-0.5c0-0.2,0-0.3-0.1-0.4c-0.1-0.1-0.2-0.1-0.3-0.1c-0.3,0-0.5,0.2-0.5,0.5
				C180.4,95,180.5,95.1,180.6,95.2z"/>
			<path class="st16" d="M186.1,96.6c0.3-0.2,0.7-0.3,1.1-0.3c0.4,0,0.8,0.1,1.1,0.4s0.4,0.6,0.4,1s-0.2,0.8-0.5,1.1
				c-0.3,0.3-0.8,0.5-1.4,0.6l-1.4,0.2c0,0.5,0.1,1,0.3,1.2c0.2,0.3,0.5,0.4,0.9,0.4s0.9-0.1,1.5-0.3l0.1,0.5
				c-0.6,0.2-1.2,0.3-1.7,0.3c-0.5,0-1-0.2-1.3-0.5c-0.3-0.4-0.5-0.9-0.5-1.5c0-0.8,0.2-1.6,0.5-2.2
				C185.6,97.1,185.8,96.8,186.1,96.6z M185.5,99l1.3-0.2c0.4-0.1,0.8-0.2,1-0.4c0.2-0.2,0.3-0.5,0.3-0.7c0-0.5-0.3-0.8-1-0.8
				c-0.5,0-0.9,0.2-1.2,0.6C185.8,97.9,185.6,98.4,185.5,99z"/>
			<path class="st16" d="M192.2,96.4l0,0.4c0.7-0.3,1.3-0.5,1.7-0.5c0.4,0,0.8,0.2,1,0.5c0.2,0.3,0.3,0.8,0.2,1.3l-0.5,3.5H194
				l0.6-3.5c0-0.4,0-0.7-0.1-0.9c-0.1-0.2-0.4-0.3-0.7-0.3c-0.4,0-0.9,0.2-1.6,0.5l-0.7,4.2h-0.6l0.9-5.2H192.2z"/>
			<path class="st16" d="M200.3,98.1l0.2-1.1c-0.3-0.1-0.6-0.1-0.8-0.1c-0.9,0-1.5,0.7-1.7,2.1c-0.1,0.6,0,1.2,0.2,1.6
				c0.2,0.4,0.6,0.6,1.1,0.6c0.3,0,0.7-0.1,1.3-0.3l0.1,0.5c-0.6,0.2-1.1,0.3-1.5,0.3c-0.7,0-1.2-0.2-1.5-0.7
				c-0.3-0.5-0.4-1.1-0.3-2c0.3-1.8,1.1-2.7,2.4-2.7c0.5,0,0.9,0.1,1.4,0.2l-0.3,1.5H200.3z"/>
			<path class="st16" d="M204.6,96.6c0.3-0.2,0.7-0.3,1.1-0.3c0.4,0,0.8,0.1,1.1,0.4s0.4,0.6,0.4,1s-0.2,0.8-0.5,1.1
				c-0.3,0.3-0.8,0.5-1.4,0.6l-1.4,0.2c0,0.5,0.1,1,0.3,1.2c0.2,0.3,0.5,0.4,0.9,0.4s0.9-0.1,1.5-0.3l0.1,0.5
				c-0.6,0.2-1.2,0.3-1.7,0.3c-0.5,0-1-0.2-1.3-0.5c-0.3-0.4-0.5-0.9-0.5-1.5c0-0.8,0.2-1.6,0.5-2.2C204,97.1,204.3,96.8,204.6,96.6
				z M204,99l1.3-0.2c0.4-0.1,0.8-0.2,1-0.4c0.2-0.2,0.3-0.5,0.3-0.7c0-0.5-0.3-0.8-1-0.8c-0.5,0-0.9,0.2-1.2,0.6
				C204.2,97.9,204.1,98.4,204,99z"/>
		</g>
		<g>
			<path class="st17" d="M94.6,84.8V63.1h1.7v13.2l2.8-0.3c1.3-1.7,2.7-3.5,3.9-5.7l0.6-1h2c-1.7,3-3.3,5.4-5,7.4
				c1.5,1.9,3,4.2,4.5,6.9l0.7,1.3h-2c-1.5-2.8-3-5.2-4.6-7.2l-3,0.3v6.9H94.6z"/>
			<path class="st17" d="M111.9,69.3l0.1,1.3c2.1-1,3.9-1.5,5.3-1.5c1.4,0,2.5,0.5,3.3,1.4c0.8,1,1.2,2.3,1.2,3.9v10.3H120V74.5
				c0-1.1-0.3-1.9-0.8-2.6c-0.5-0.7-1.3-1-2.3-1c-1,0-2.7,0.5-4.9,1.4v12.6h-1.7V69.3H111.9z"/>
			<path class="st17" d="M132.5,70.8c-2.9,0-4.4,2.1-4.4,6.3c0,4.2,1.5,6.3,4.4,6.3s4.4-2.1,4.4-6.3
				C136.9,72.9,135.4,70.8,132.5,70.8 M126.3,77.1c0-5.3,2.1-8,6.2-8c4.2,0,6.2,2.7,6.2,8c0,5.3-2.1,8-6.2,8
				C128.4,85.1,126.3,82.5,126.3,77.1"/>
			<polygon class="st17" points="154.5,69.3 156.2,69.3 154.3,84.8 150.9,84.8 149.2,78.1 149.1,78.1 147.4,84.8 144,84.8 
				142.2,69.3 143.9,69.3 145.6,83.3 146.1,83.3 148.3,75.4 150,75.4 152.2,83.3 152.8,83.3 			"/>
			<polygon class="st17" points="159.5,84.8 159.5,83.2 164.5,83.2 164.5,64.7 159.6,64.8 159.6,63.2 166.2,63.1 166.2,83.2 
				171.4,83.2 171.4,84.8 			"/>
			<g>
				<path class="st17" d="M180.3,70.8c-2.7,0-4.2,1.8-4.3,5.5h8.2C184.2,72.6,182.9,70.8,180.3,70.8 M174.1,77.1
					c0-2.5,0.5-4.5,1.5-5.9c1-1.4,2.5-2.1,4.5-2.1c2,0,3.5,0.7,4.4,2c1,1.3,1.5,3,1.5,5.2l-0.1,1.6h-10c0.1,1.6,0.5,3,1.3,4
					c0.8,1,1.8,1.5,3.1,1.5c1.3,0,2.9-0.3,4.7-0.9l0.5,1.6c-1.8,0.7-3.4,1-5,1c-2.1,0-3.8-0.7-4.9-2.1
					C174.7,81.6,174.1,79.6,174.1,77.1"/>
				<path class="st17" d="M192.1,77.1c0,1.9,0.4,3.5,1.1,4.6c0.8,1.2,1.8,1.7,3.2,1.7c1.4,0,2.9-0.6,4.3-1.9v-9.8
					c-0.5-0.2-1.1-0.4-1.9-0.6c-0.8-0.2-1.4-0.3-1.9-0.3c-1.5,0-2.7,0.6-3.6,1.7C192.6,73.6,192.1,75.1,192.1,77.1 M202.6,63.2v19
					l0.3,2.8l-1.7,0.2l-0.3-1.7c-1.6,1.1-3.1,1.7-4.5,1.7c-1.9,0-3.4-0.7-4.5-2.2c-1.1-1.4-1.6-3.4-1.6-5.9c0-2.5,0.6-4.4,1.8-5.8
					c1.2-1.4,2.8-2.1,4.9-2.1c1.2,0,2.5,0.3,3.9,0.9v-6.9H202.6z"/>
				<path class="st17" d="M210.7,72.5c-0.9,1.1-1.3,2.7-1.3,4.6c0,1.9,0.4,3.4,1.1,4.5c0.8,1.1,1.8,1.6,3.2,1.6c1.4,0,2.8-0.7,4.4-2
					v-9.1c-1.4-0.9-2.7-1.3-3.8-1.3C212.8,70.8,211.6,71.3,210.7,72.5 M209.2,82.8c-1-1.3-1.6-3.3-1.6-5.7c0-2.5,0.6-4.4,1.7-5.8
					c1.2-1.4,2.8-2.1,4.9-2.1c1.2,0,2.4,0.4,3.9,1.1l0.1-0.9h1.7v11.7c0.3,2.6,0.5,4.1,0.5,4.5c0,1.9-0.6,3.4-1.9,4.3
					c-1.3,1-2.8,1.5-4.5,1.5c-1.7,0-3.7-0.4-5.9-1.3l0.6-1.6c2.2,0.8,3.9,1.2,5.2,1.2c1.3,0,2.4-0.3,3.4-1c1-0.7,1.5-1.7,1.5-3
					l-0.3-2.6c-1.7,1.2-3.3,1.8-4.6,1.8C211.7,84.8,210.2,84.2,209.2,82.8"/>
				<path class="st17" d="M231.3,70.8c-2.7,0-4.2,1.8-4.3,5.5h8.2C235.2,72.6,233.9,70.8,231.3,70.8 M225.1,77.1
					c0-2.5,0.5-4.5,1.5-5.9c1-1.4,2.5-2.1,4.5-2.1c2,0,3.5,0.7,4.4,2c1,1.3,1.5,3,1.5,5.2l-0.1,1.6h-10c0.1,1.6,0.5,3,1.3,4
					c0.8,1,1.8,1.5,3.1,1.5s2.9-0.3,4.7-0.9l0.5,1.6c-1.8,0.7-3.4,1-5,1c-2.1,0-3.8-0.7-4.9-2.1C225.6,81.6,225.1,79.6,225.1,77.1"
					/>
				<path class="st17" d="M96.4,42.2v12.7h-1.7V33.2h1.7v7.3c2-0.9,3.7-1.4,5.1-1.4c3.1,0,4.7,1.8,4.7,5.4v10.3h-1.7V44.5
					c0-1.1-0.2-2-0.7-2.7c-0.5-0.7-1.3-1-2.5-1C100,40.8,98.4,41.3,96.4,42.2"/>
				<path class="st17" d="M114.7,34.7c0-0.4,0.1-0.8,0.4-1c0.2-0.2,0.6-0.4,1-0.4c0.9,0,1.3,0.5,1.3,1.4c0,1-0.4,1.4-1.3,1.4
					C115.2,36.2,114.7,35.7,114.7,34.7 M110.6,54.8v-1.6h4.8V40.9h-4.8v-1.6h6.5v13.9h4.8v1.6H110.6z"/>
			</g>
		</g>
	</g>
</g>
<g id="Layer_12">
</g>
<g id="Layer_11">
</g>
</svg>
