<?xml version="1.0" encoding="utf-8"?>
<!-- Generator: Adobe Illustrator 19.2.1, SVG Export Plug-In . SVG Version: 6.00 Build 0)  -->
<svg version="1.1" xmlns="http://www.w3.org/2000/svg" xmlns:xlink="http://www.w3.org/1999/xlink" x="0px" y="0px"
	 viewBox="0 0 300 120" style="enable-background:new 0 0 300 120;" xml:space="preserve">
<style type="text/css">
	.st0{display:none;}
	.st1{display:inline;fill:#FF3C36;stroke:#FFFFFF;stroke-width:1.2346;stroke-miterlimit:10;}
	.st2{display:inline;fill:#FFFBF8;}
	.st3{fill:#FFFFFF;}
	.st4{fill:none;stroke:#25596B;stroke-miterlimit:10;}
	.st5{fill:#25596B;}
	.st6{fill:#FF3C36;}
	.st7{fill:#FFF5EB;stroke:#FFF5EB;stroke-width:0.5;stroke-linecap:round;stroke-linejoin:round;stroke-miterlimit:10;}
	.st8{fill:none;}
	.st9{fill:#86AAB6;}
	.st10{opacity:0.7;}
	.st11{fill:#FF3D36;}
	.st12{fill:#26596B;}
	.st13{fill:#FF3D36;stroke:#FF3D36;stroke-width:0.2;stroke-miterlimit:10;}
	.st14{fill:#26596B;stroke:#26596B;stroke-width:0.2166;stroke-miterlimit:10;}
	.st15{fill:#26596B;stroke:#26596B;stroke-width:0.5;stroke-miterlimit:10;}
	.st16{display:inline;}
	.st17{fill:#00D2A0;stroke:#00D2A0;stroke-width:0.5;stroke-miterlimit:10;}
	.st18{display:inline;fill:#00D2A0;stroke:#00D2A0;stroke-width:0.5;stroke-miterlimit:10;}
	.st19{fill:#00D2A0;stroke:#00D2A0;stroke-width:0.4;stroke-linejoin:round;stroke-miterlimit:10;}
	.st20{fill:#00D2A0;stroke:#00D2A0;stroke-width:0.3;stroke-miterlimit:10;}
	.st21{fill:#26596B;stroke:#25596B;stroke-width:0.5;stroke-miterlimit:10;}
	.st22{fill:#00D2A0;stroke:#00D2A0;stroke-width:0.1151;stroke-miterlimit:10;}
	.st23{display:inline;fill:#00D2A0;stroke:#00D2A0;stroke-width:0.1151;stroke-miterlimit:10;}
	.st24{fill:#00D2A0;stroke:#00D2A0;stroke-linejoin:round;stroke-miterlimit:10;}
	.st25{fill:#26596B;stroke:#25596B;stroke-width:0.6;stroke-linecap:round;stroke-linejoin:round;stroke-miterlimit:10;}
	.st26{fill:#FF3D36;stroke:#FF3D36;stroke-width:0.5;stroke-miterlimit:10;}
	.st27{fill:#00D2A0;}
	.st28{fill:#C95466;stroke:#C95466;stroke-width:0.5;stroke-miterlimit:10;}
	.st29{fill:#C95466;}
	.st30{fill:#D8D3CE;stroke:#D8D3CE;stroke-width:0.5;stroke-miterlimit:10;}
	.st31{fill:#D8D3CE;}
	.st32{fill:#86AAB6;stroke:#86AAB6;stroke-width:0.5;stroke-miterlimit:10;}
	.st33{fill:#26596B;stroke:#25596B;stroke-width:0.5;stroke-linecap:round;stroke-linejoin:round;stroke-miterlimit:10;}
	.st34{fill:#FF3D36;stroke:#FF3C36;stroke-width:0.5;stroke-linecap:round;stroke-linejoin:round;stroke-miterlimit:10;}
	.st35{fill:#FF3D36;stroke:#FF3D36;stroke-width:0.1962;stroke-miterlimit:10;}
	.st36{fill:#26596B;stroke:#26596B;stroke-width:0.2985;stroke-miterlimit:10;}
	.st37{fill:#00D2A0;stroke:#00D2A0;stroke-width:0.5055;stroke-miterlimit:10;}
	.st38{fill:#C95466;stroke:#C95466;stroke-width:0.5055;stroke-miterlimit:10;}
	.st39{fill:#D8D3CE;stroke:#D8D3CE;stroke-width:0.5055;stroke-miterlimit:10;}
	.st40{opacity:0.2;}
	.st41{fill:#25596B;stroke:#FF3D36;stroke-width:9.741769e-02;stroke-miterlimit:10;}
	.st42{opacity:0.3;}
	.st43{fill:none;stroke:#231F20;stroke-miterlimit:10;}
	.st44{fill:#00D2A0;stroke:#26596B;stroke-width:9.501817e-02;stroke-miterlimit:10;}
	.st45{fill:#00D2A0;stroke:#26596B;stroke-width:8.140191e-02;stroke-miterlimit:10;}
	.st46{fill:none;stroke:#00D2A0;stroke-width:1.3;stroke-linejoin:round;stroke-miterlimit:10;}
	.st47{fill:none;stroke:#26596B;stroke-width:0.5;stroke-miterlimit:10;}
</style>
<g id="Layer_9" class="st0">
	<rect x="-18.3" y="-11.4" class="st2" width="1542.5" height="931.2"/>
</g>
<g id="box">
</g>
<g id="btns">
</g>
<g id="title">
</g>
<g id="descr">
</g>
<g id="legenda">
</g>
<g id="lines">
</g>
<g id="svg">
</g>
<g id="numbers_copy" class="st10">
</g>
<g id="Layer_16">
</g>
<g id="numbers">
</g>
<g id="numbers_white">
</g>
<g id="text">
	<g id="New_Symbol">
	</g>
	<g>
		<g class="st0">
			<g class="st16">
				<path class="st17" d="M66.1,83.8L46.2,68.3l-7.8-17.5l44.1,11L66.1,83.8z M32.1,100.2L15.7,45.6l29.7,23.1L32.1,100.2z M32.1,11
					l5.2,5.2v22.9L19.9,43l-4.2,0.9L32.1,11z M37.6,49.7l-20.9-5.2l0.8-0.2l20.2-4.5c0,0,0,0,0,0l26-5.8L37.6,49.7z M37.4,50.5
					l7.4,16.7L16.7,45.4L37.4,50.5z M83.6,61.4c0-0.1-0.2-0.2-0.3-0.3L38.8,50l27.6-16.6c0.2-0.1,0.2-0.3,0.2-0.5
					c-0.1-0.2-0.3-0.3-0.5-0.3l-28,6.2V16c0-0.1,0-0.2-0.1-0.3L32.3,10c-0.1-0.1-0.2-0.1-0.4-0.1c-0.1,0-0.2,0.1-0.3,0.2L14.5,44.3
					c0,0,0,0,0,0l0,0l0,0l0,0c0,0,0,0,0,0c0,0,0,0,0,0l0,0c0,0,0,0,0,0c0,0,0,0,0,0c0,0,0,0,0,0c0,0,0,0,0,0v0c0,0,0,0,0,0l0,0
					c0,0,0,0,0,0c0,0,0,0,0,0c0,0,0,0,0,0c0,0,0,0,0,0l0,0l0,0l17.1,56.9c0.1,0.2,0.2,0.3,0.4,0.3h0c0.2,0,0.3-0.1,0.4-0.3L46,69.2
					l19.9,15.4c0.1,0.1,0.2,0.1,0.3,0.1c0,0,0,0,0.1,0c0.1,0,0.2-0.1,0.3-0.2l17.1-22.8C83.7,61.7,83.7,61.6,83.6,61.4"/>
			</g>
		</g>
		<g class="st0">
			<path class="st18" d="M12.1,102.9c-0.1,0-0.1,0-0.2,0c-0.1-0.1-0.1-0.1-0.1-0.2V47.3c0-0.1,0-0.2,0.1-0.2C12,47,12,47,12.1,47
				l23.7,5.3c0.1,0,0.1,0.1,0.2,0.1l7.9,12.8c0.1,0.1,0.1,0.2,0,0.3L28.1,94.8c0,0.1-0.1,0.1-0.1,0.1l-15.8,7.9
				C12.2,102.9,12.1,102.9,12.1,102.9 M12.4,47.7v54.4l15.3-7.6l15.7-29.1l-7.7-12.5L12.4,47.7z"/>
			<path class="st18" d="M12.1,47.6c-0.1,0-0.1,0-0.2-0.1c-0.1-0.1-0.1-0.2-0.1-0.3L27.6,7.7c0-0.1,0.2-0.2,0.3-0.2
				c0.1,0,0.2,0.1,0.3,0.2L36,37.1c0,0.1,0,0.3-0.2,0.3L12.2,47.6C12.1,47.6,12.1,47.6,12.1,47.6 M27.8,8.8l-15.2,38L35.4,37
				L27.8,8.8z"/>
			<path class="st18" d="M35.7,52.9C35.7,52.9,35.7,52.9,35.7,52.9L12,47.6c-0.1,0-0.2-0.1-0.2-0.3c0-0.1,0.1-0.2,0.2-0.3l55.3-23.7
				c0.1-0.1,0.3,0,0.4,0.1c0.1,0.1,0.1,0.3,0,0.4L35.9,52.8C35.9,52.8,35.8,52.9,35.7,52.9 M13,47.2l22.7,5l30.2-27.7L13,47.2z"/>
			<path class="st18" d="M67.3,79.2c0,0-0.1,0-0.1,0L11.9,47.6c-0.1-0.1-0.2-0.2-0.1-0.4c0.1-0.1,0.2-0.2,0.3-0.2l71,15.8
				c0.1,0,0.2,0.1,0.2,0.2c0,0.1,0,0.2-0.1,0.3L67.5,79.1C67.5,79.2,67.4,79.2,67.3,79.2 M13.9,48l53.4,30.5l15.3-15.3L13.9,48z"/>
		</g>
		<g>
			<path class="st19" d="M34.7,103.1c-0.2,0-0.4-0.1-0.4-0.3L10.6,47.5c-0.1-0.2,0-0.3,0.1-0.5c0.1-0.1,0.2-0.2,0.4-0.2l39.5,5.6
				c0.2,0,0.4,0.2,0.4,0.5v16.3c0,0.1,0,0.1,0,0.2l-15.8,33.3C35.1,103,34.9,103.1,34.7,103.1L34.7,103.1z M34.8,101.4l15.3-32.3
				l0-15.7l-38.2-5.5L34.8,101.4z"/>
			<path class="st19" d="M11.1,47.8c-0.1,0-0.2,0-0.3-0.1c-0.1-0.1-0.2-0.3-0.2-0.5l7.9-31.6c0-0.1,0.1-0.3,0.3-0.3l15.8-7.9
				c0.1,0,0.1-0.1,0.2-0.1c0.1,0,0.2,0,0.3,0.1c0.1,0.1,0.2,0.2,0.2,0.4v29.3c0,0.2-0.1,0.4-0.3,0.4L11.3,47.8
				C11.2,47.8,11.1,47.8,11.1,47.8z M11.8,46.5l22.5-9.6V8.7l-14.9,7.4L11.8,46.5z"/>
			<path class="st19" d="M11,47.8c-0.2,0-0.4-0.2-0.4-0.4c0-0.2,0.1-0.4,0.3-0.5l55.3-23.7c0.1,0,0.1,0,0.2,0c0.1,0,0.3,0.1,0.4,0.2
				c0.1,0.2,0.2,0.4,0.1,0.6L51,53.2c-0.1,0.2-0.2,0.3-0.4,0.3L11,47.8z M50.3,52.4l15-27.8L12.9,47.1L50.3,52.4z"/>
			<path class="st19" d="M82.1,87.3c-0.1,0-0.2,0-0.2-0.1l-71-39.5c-0.2-0.1-0.3-0.4-0.2-0.6c0.1-0.2,0.3-0.3,0.5-0.3l55.3,7.9
				c0.2,0,0.3,0.1,0.4,0.3l15.8,31.6c0.1,0.2,0.1,0.4-0.1,0.6C82.3,87.2,82.2,87.3,82.1,87.3z M81,85.6L66,55.7l-52.4-7.5L81,85.6z"
				/>
		</g>
		<g>
			<path class="st20" d="M93.2,101.6l1.2-7.3H95l-0.4,2.6c0.6-0.4,1-0.6,1.5-0.6c0.6,0,1.1,0.2,1.4,0.7c0.3,0.5,0.4,1.1,0.3,1.9
				s-0.4,1.5-0.8,2s-1,0.8-1.7,0.8c-0.2,0-0.4,0-0.7-0.1c-0.3-0.1-0.5-0.1-0.6-0.2l-0.1,0.2H93.2z M97,99c0.1-0.6,0-1.2-0.2-1.5
				c-0.2-0.4-0.5-0.5-1-0.5c-0.4,0-0.9,0.2-1.5,0.6l-0.5,3.3c0.1,0.1,0.3,0.1,0.6,0.2c0.3,0.1,0.5,0.1,0.7,0.1
				c0.5,0,0.9-0.2,1.2-0.6C96.8,100.1,97,99.6,97,99z"/>
			<path class="st20" d="M101.3,97.6l-0.7,4H100l0.8-4.7h-1l0.1-0.5h1.6l-0.1,0.6c0.2-0.2,0.6-0.3,1-0.4c0.4-0.1,0.8-0.2,1.1-0.3
				l-0.1,0.6c-0.3,0-0.6,0.1-1.1,0.2S101.5,97.5,101.3,97.6z"/>
			<path class="st20" d="M106.8,101.7c-0.6,0-1-0.2-1.3-0.5s-0.4-0.8-0.4-1.5c0-0.8,0.2-1.5,0.6-2.2c0.2-0.3,0.5-0.6,0.8-0.8
				c0.3-0.2,0.7-0.3,1.2-0.3c0.1,0,0.3,0,0.5,0.1c0.2,0.1,0.4,0.1,0.5,0.2l0.1-0.2h0.6l-0.7,4l0,1.2l-0.5,0.1l-0.1-1.1
				c-0.2,0.3-0.4,0.5-0.6,0.8C107.3,101.6,107.1,101.7,106.8,101.7z M106.8,101.1c0.2,0,0.5-0.2,0.8-0.6c0.4-0.4,0.6-0.7,0.7-0.9
				l0.4-2.4c-0.4-0.2-0.7-0.3-1-0.3c-0.6,0-1.1,0.3-1.5,0.8c-0.4,0.6-0.5,1.2-0.5,1.9c0,0.4,0.1,0.8,0.3,1.1
				C106.2,101,106.5,101.1,106.8,101.1z"/>
			<path class="st20" d="M112.7,96.4l0,0.4c0.7-0.3,1.3-0.5,1.7-0.5c0.4,0,0.8,0.2,1,0.5c0.2,0.3,0.3,0.8,0.2,1.3l-0.5,3.5h-0.6
				l0.6-3.5c0-0.4,0-0.7-0.1-0.9c-0.1-0.2-0.4-0.3-0.7-0.3c-0.4,0-0.9,0.2-1.6,0.5l-0.7,4.2h-0.6l0.9-5.2H112.7z"/>
			<path class="st20" d="M120.8,98.1L121,97c-0.3-0.1-0.6-0.1-0.8-0.1c-0.9,0-1.5,0.7-1.7,2.1c-0.1,0.6,0,1.2,0.2,1.6
				c0.2,0.4,0.6,0.6,1.1,0.6c0.3,0,0.7-0.1,1.3-0.3l0.1,0.5c-0.6,0.2-1.1,0.3-1.5,0.3c-0.7,0-1.2-0.2-1.5-0.7
				c-0.3-0.5-0.4-1.1-0.3-2c0.3-1.8,1.1-2.7,2.4-2.7c0.5,0,0.9,0.1,1.4,0.2l-0.3,1.5H120.8z"/>
			<path class="st20" d="M124.8,97.4l-0.7,4.3h-0.6l1.2-7.3h0.6l-0.4,2.5c0.7-0.3,1.3-0.5,1.7-0.5s0.8,0.2,1,0.5
				c0.2,0.3,0.3,0.8,0.2,1.3l-0.6,3.5h-0.5l0.6-3.5c0-0.4,0-0.7-0.1-0.9c-0.1-0.2-0.4-0.3-0.8-0.3C126,96.9,125.5,97.1,124.8,97.4z"
				/>
			<path class="st20" d="M131.2,96.6c0.3-0.2,0.7-0.3,1.1-0.3c0.4,0,0.8,0.1,1.1,0.4s0.4,0.6,0.4,1s-0.2,0.8-0.5,1.1
				c-0.3,0.3-0.8,0.5-1.4,0.6l-1.4,0.2c0,0.5,0.1,1,0.3,1.2c0.2,0.3,0.5,0.4,0.9,0.4s0.9-0.1,1.5-0.3l0.1,0.5
				c-0.6,0.2-1.2,0.3-1.7,0.3c-0.5,0-1-0.2-1.3-0.5c-0.3-0.4-0.5-0.9-0.5-1.5c0-0.8,0.2-1.6,0.5-2.2
				C130.7,97.1,130.9,96.8,131.2,96.6z M130.7,99l1.3-0.2c0.4-0.1,0.8-0.2,1-0.4c0.2-0.2,0.3-0.5,0.3-0.7c0-0.5-0.3-0.8-1-0.8
				c-0.5,0-0.9,0.2-1.2,0.6C130.9,97.9,130.7,98.4,130.7,99z"/>
			<path class="st20" d="M136.3,101.4l0.2-0.6c0.7,0.2,1.2,0.4,1.6,0.4c0.4,0,0.7-0.1,0.9-0.3c0.2-0.2,0.4-0.5,0.4-0.8
				c0-0.2-0.1-0.4-0.2-0.5c-0.2-0.1-0.5-0.2-0.9-0.4c-0.5-0.1-0.8-0.3-1-0.5c-0.2-0.2-0.4-0.5-0.4-0.8c0-0.5,0.2-0.9,0.5-1.2
				c0.3-0.3,0.8-0.4,1.3-0.4s1.1,0.1,1.6,0.3l-0.2,0.6c-0.5-0.2-1-0.3-1.4-0.3c-0.4,0-0.7,0.1-0.9,0.3c-0.2,0.2-0.4,0.4-0.4,0.6
				s0.1,0.4,0.3,0.5c0.2,0.1,0.5,0.2,1,0.4s0.8,0.3,1,0.5c0.2,0.2,0.3,0.5,0.3,0.9c0,0.4-0.2,0.8-0.5,1.1s-0.8,0.5-1.3,0.5
				S136.9,101.6,136.3,101.4z"/>
			<path class="st20" d="M150.2,101.7c-1.4,0-2-0.9-1.8-2.7c0.3-1.8,1-2.7,2.3-2.7c0.7,0,1.2,0.2,1.5,0.7c0.3,0.4,0.4,1.1,0.3,2
				C152.2,100.8,151.5,101.7,150.2,101.7z M151.7,97.5c-0.2-0.4-0.6-0.6-1-0.6s-0.9,0.2-1.1,0.5c-0.3,0.4-0.5,0.9-0.6,1.6
				c-0.1,0.7-0.1,1.2,0.1,1.6c0.2,0.4,0.6,0.6,1.1,0.5c0.9,0,1.5-0.7,1.7-2.1C152,98.4,152,97.8,151.7,97.5z"/>
			<path class="st20" d="M155.6,97h-1l0.1-0.5h1c0.2-1.5,0.8-2.2,1.8-2.2c0.3,0,0.7,0.1,1.1,0.2l-0.2,0.6c-0.4-0.1-0.7-0.2-0.9-0.2
				c-0.7,0-1,0.5-1.2,1.6h1.8l-0.1,0.5h-1.8c-0.2,1.7-0.4,3.2-0.6,4.3c-0.2,1.1-0.3,1.8-0.4,2.1l-0.1,0.4h-0.6
				c0-0.1,0.1-0.2,0.2-0.4c0.1-0.2,0.2-0.9,0.4-2C155.2,100.1,155.4,98.7,155.6,97z"/>
			<path class="st20" d="M165.6,101.4l0.2-0.6c0.7,0.2,1.2,0.4,1.6,0.4c0.4,0,0.7-0.1,0.9-0.3c0.2-0.2,0.4-0.5,0.4-0.8
				c0-0.2-0.1-0.4-0.2-0.5c-0.2-0.1-0.5-0.2-0.9-0.4c-0.5-0.1-0.8-0.3-1-0.5c-0.2-0.2-0.4-0.5-0.4-0.8c0-0.5,0.2-0.9,0.5-1.2
				c0.3-0.3,0.8-0.4,1.3-0.4s1.1,0.1,1.6,0.3l-0.2,0.6c-0.5-0.2-1-0.3-1.4-0.3c-0.4,0-0.7,0.1-0.9,0.3c-0.2,0.2-0.4,0.4-0.4,0.6
				s0.1,0.4,0.3,0.5c0.2,0.1,0.5,0.2,1,0.4s0.8,0.3,1,0.5c0.2,0.2,0.3,0.5,0.3,0.9c0,0.4-0.2,0.8-0.5,1.1s-0.8,0.5-1.3,0.5
				S166.2,101.6,165.6,101.4z"/>
			<path class="st20" d="M174.7,98.1l0.2-1.1c-0.3-0.1-0.6-0.1-0.8-0.1c-0.9,0-1.5,0.7-1.7,2.1c-0.1,0.6,0,1.2,0.2,1.6
				c0.2,0.4,0.6,0.6,1.1,0.6c0.3,0,0.7-0.1,1.3-0.3l0.1,0.5c-0.6,0.2-1.1,0.3-1.5,0.3c-0.7,0-1.2-0.2-1.5-0.7
				c-0.3-0.5-0.4-1.1-0.3-2c0.3-1.8,1.1-2.7,2.4-2.7c0.5,0,0.9,0.1,1.4,0.2l-0.3,1.5H174.7z"/>
			<path class="st20" d="M180.1,101.7c-0.4,0-0.7-0.1-0.9-0.2c-0.2-0.1-0.3-0.3-0.3-0.6c0-0.3,0-0.6,0.1-1l0.5-2.9h-1.3l0.1-0.5h1.9
				l-0.5,3.4c-0.1,0.5-0.1,0.9-0.1,1c0,0.2,0.3,0.3,0.6,0.3c0.2,0,0.4,0,0.7-0.1l0.1,0.5L180.1,101.7z M179.6,95.2
				c0.1,0.1,0.2,0.1,0.3,0.1c0.3,0,0.5-0.2,0.5-0.5c0-0.2,0-0.3-0.1-0.4c-0.1-0.1-0.2-0.1-0.3-0.1c-0.3,0-0.5,0.2-0.5,0.5
				C179.4,95,179.5,95.1,179.6,95.2z"/>
			<path class="st20" d="M185.1,96.6c0.3-0.2,0.7-0.3,1.1-0.3c0.4,0,0.8,0.1,1.1,0.4s0.4,0.6,0.4,1s-0.2,0.8-0.5,1.1
				c-0.3,0.3-0.8,0.5-1.4,0.6l-1.4,0.2c0,0.5,0.1,1,0.3,1.2c0.2,0.3,0.5,0.4,0.9,0.4s0.9-0.1,1.5-0.3l0.1,0.5
				c-0.6,0.2-1.2,0.3-1.7,0.3c-0.5,0-1-0.2-1.3-0.5c-0.3-0.4-0.5-0.9-0.5-1.5c0-0.8,0.2-1.6,0.5-2.2
				C184.6,97.1,184.8,96.8,185.1,96.6z M184.5,99l1.3-0.2c0.4-0.1,0.8-0.2,1-0.4c0.2-0.2,0.3-0.5,0.3-0.7c0-0.5-0.3-0.8-1-0.8
				c-0.5,0-0.9,0.2-1.2,0.6C184.8,97.9,184.6,98.4,184.5,99z"/>
			<path class="st20" d="M191.2,96.4l0,0.4c0.7-0.3,1.3-0.5,1.7-0.5c0.4,0,0.8,0.2,1,0.5c0.2,0.3,0.3,0.8,0.2,1.3l-0.5,3.5H193
				l0.6-3.5c0-0.4,0-0.7-0.1-0.9c-0.1-0.2-0.4-0.3-0.7-0.3c-0.4,0-0.9,0.2-1.6,0.5l-0.7,4.2h-0.6l0.9-5.2H191.2z"/>
			<path class="st20" d="M199.3,98.1l0.2-1.1c-0.3-0.1-0.6-0.1-0.8-0.1c-0.9,0-1.5,0.7-1.7,2.1c-0.1,0.6,0,1.2,0.2,1.6
				c0.2,0.4,0.6,0.6,1.1,0.6c0.3,0,0.7-0.1,1.3-0.3l0.1,0.5c-0.6,0.2-1.1,0.3-1.5,0.3c-0.7,0-1.2-0.2-1.5-0.7
				c-0.3-0.5-0.4-1.1-0.3-2c0.3-1.8,1.1-2.7,2.4-2.7c0.5,0,0.9,0.1,1.4,0.2l-0.3,1.5H199.3z"/>
			<path class="st20" d="M203.6,96.6c0.3-0.2,0.7-0.3,1.1-0.3c0.4,0,0.8,0.1,1.1,0.4s0.4,0.6,0.4,1s-0.2,0.8-0.5,1.1
				c-0.3,0.3-0.8,0.5-1.4,0.6l-1.4,0.2c0,0.5,0.1,1,0.3,1.2c0.2,0.3,0.5,0.4,0.9,0.4s0.9-0.1,1.5-0.3l0.1,0.5
				c-0.6,0.2-1.2,0.3-1.7,0.3c-0.5,0-1-0.2-1.3-0.5c-0.3-0.4-0.5-0.9-0.5-1.5c0-0.8,0.2-1.6,0.5-2.2C203,97.1,203.3,96.8,203.6,96.6
				z M203,99l1.3-0.2c0.4-0.1,0.8-0.2,1-0.4c0.2-0.2,0.3-0.5,0.3-0.7c0-0.5-0.3-0.8-1-0.8c-0.5,0-0.9,0.2-1.2,0.6
				C203.2,97.9,203.1,98.4,203,99z"/>
		</g>
		<g>
			<path class="st21" d="M93.6,84.8V63.1h1.7v13.2l2.8-0.3c1.3-1.7,2.7-3.5,3.9-5.7l0.6-1h2c-1.7,3-3.3,5.4-5,7.4
				c1.5,1.9,3,4.2,4.5,6.9l0.7,1.3h-2c-1.5-2.8-3-5.2-4.6-7.2l-3,0.3v6.9H93.6z"/>
			<path class="st21" d="M110.9,69.3l0.1,1.3c2.1-1,3.9-1.5,5.3-1.5c1.4,0,2.5,0.5,3.3,1.4c0.8,1,1.2,2.3,1.2,3.9v10.3H119V74.5
				c0-1.1-0.3-1.9-0.8-2.6c-0.5-0.7-1.3-1-2.3-1c-1,0-2.7,0.5-4.9,1.4v12.6h-1.7V69.3H110.9z"/>
			<path class="st21" d="M131.5,70.8c-2.9,0-4.4,2.1-4.4,6.3c0,4.2,1.5,6.3,4.4,6.3s4.4-2.1,4.4-6.3
				C135.9,72.9,134.4,70.8,131.5,70.8 M125.3,77.1c0-5.3,2.1-8,6.2-8c4.2,0,6.2,2.7,6.2,8c0,5.3-2.1,8-6.2,8
				C127.4,85.1,125.3,82.5,125.3,77.1"/>
			<polygon class="st21" points="153.5,69.3 155.2,69.3 153.3,84.8 149.9,84.8 148.2,78.1 148.1,78.1 146.4,84.8 143,84.8 
				141.2,69.3 142.9,69.3 144.6,83.3 145.1,83.3 147.3,75.4 149,75.4 151.2,83.3 151.8,83.3 			"/>
			<polygon class="st21" points="158.5,84.8 158.5,83.2 163.5,83.2 163.5,64.7 158.6,64.8 158.6,63.2 165.2,63.1 165.2,83.2 
				170.4,83.2 170.4,84.8 			"/>
			<g>
				<path class="st21" d="M179.3,70.8c-2.7,0-4.2,1.8-4.3,5.5h8.2C183.2,72.6,181.9,70.8,179.3,70.8 M173.1,77.1
					c0-2.5,0.5-4.5,1.5-5.9c1-1.4,2.5-2.1,4.5-2.1c2,0,3.5,0.7,4.4,2c1,1.3,1.5,3,1.5,5.2l-0.1,1.6h-10c0.1,1.6,0.5,3,1.3,4
					c0.8,1,1.8,1.5,3.1,1.5c1.3,0,2.9-0.3,4.7-0.9l0.5,1.6c-1.8,0.7-3.4,1-5,1c-2.1,0-3.8-0.7-4.9-2.1
					C173.7,81.6,173.1,79.6,173.1,77.1"/>
				<path class="st21" d="M191.1,77.1c0,1.9,0.4,3.5,1.1,4.6c0.8,1.2,1.8,1.7,3.2,1.7c1.4,0,2.9-0.6,4.3-1.9v-9.8
					c-0.5-0.2-1.1-0.4-1.9-0.6c-0.8-0.2-1.4-0.3-1.9-0.3c-1.5,0-2.7,0.6-3.6,1.7C191.6,73.6,191.1,75.1,191.1,77.1 M201.6,63.2v19
					l0.3,2.8l-1.7,0.2l-0.3-1.7c-1.6,1.1-3.1,1.7-4.5,1.7c-1.9,0-3.4-0.7-4.5-2.2c-1.1-1.4-1.6-3.4-1.6-5.9c0-2.5,0.6-4.4,1.8-5.8
					c1.2-1.4,2.8-2.1,4.9-2.1c1.2,0,2.5,0.3,3.9,0.9v-6.9H201.6z"/>
				<path class="st21" d="M209.7,72.5c-0.9,1.1-1.3,2.7-1.3,4.6c0,1.9,0.4,3.4,1.1,4.5c0.8,1.1,1.8,1.6,3.2,1.6c1.4,0,2.8-0.7,4.4-2
					v-9.1c-1.4-0.9-2.7-1.3-3.8-1.3C211.8,70.8,210.6,71.3,209.7,72.5 M208.2,82.8c-1-1.3-1.6-3.3-1.6-5.7c0-2.5,0.6-4.4,1.7-5.8
					c1.2-1.4,2.8-2.1,4.9-2.1c1.2,0,2.4,0.4,3.9,1.1l0.1-0.9h1.7v11.7c0.3,2.6,0.5,4.1,0.5,4.5c0,1.9-0.6,3.4-1.9,4.3
					c-1.3,1-2.8,1.5-4.5,1.5c-1.7,0-3.7-0.4-5.9-1.3l0.6-1.6c2.2,0.8,3.9,1.2,5.2,1.2c1.3,0,2.4-0.3,3.4-1c1-0.7,1.5-1.7,1.5-3
					l-0.3-2.6c-1.7,1.2-3.3,1.8-4.6,1.8C210.7,84.8,209.2,84.2,208.2,82.8"/>
				<path class="st21" d="M230.3,70.8c-2.7,0-4.2,1.8-4.3,5.5h8.2C234.2,72.6,232.9,70.8,230.3,70.8 M224.1,77.1
					c0-2.5,0.5-4.5,1.5-5.9c1-1.4,2.5-2.1,4.5-2.1c2,0,3.5,0.7,4.4,2c1,1.3,1.5,3,1.5,5.2l-0.1,1.6h-10c0.1,1.6,0.5,3,1.3,4
					c0.8,1,1.8,1.5,3.1,1.5s2.9-0.3,4.7-0.9l0.5,1.6c-1.8,0.7-3.4,1-5,1c-2.1,0-3.8-0.7-4.9-2.1C224.6,81.6,224.1,79.6,224.1,77.1"
					/>
				<path class="st21" d="M95.4,42.2v12.7h-1.7V33.2h1.7v7.3c2-0.9,3.7-1.4,5.1-1.4c3.1,0,4.7,1.8,4.7,5.4v10.3h-1.7V44.5
					c0-1.1-0.2-2-0.7-2.7c-0.5-0.7-1.3-1-2.5-1C99,40.8,97.4,41.3,95.4,42.2"/>
				<path class="st21" d="M113.7,34.7c0-0.4,0.1-0.8,0.4-1c0.2-0.2,0.6-0.4,1-0.4c0.9,0,1.3,0.5,1.3,1.4c0,1-0.4,1.4-1.3,1.4
					C114.2,36.2,113.7,35.7,113.7,34.7 M109.6,54.8v-1.6h4.8V40.9h-4.8v-1.6h6.5v13.9h4.8v1.6H109.6z"/>
			</g>
		</g>
	</g>
</g>
<g id="Layer_12">
</g>
<g id="Layer_11">
</g>
</svg>
